<svg width="529" height="502" viewBox="0 0 529 502" fill="none" xmlns="http://www.w3.org/2000/svg">
<path d="M360.689 24.1408C360.689 24.1408 275.681 -6.07567 192.263 42.0367C108.845 90.149 66.7385 185.656 30.5825 262.185C-5.57354 338.715 15.2369 416.524 78.9266 452.007C142.616 487.49 185.926 435.16 275.273 432.632C364.62 430.104 388.643 442.888 462.787 392.391C536.932 341.894 550.324 222.717 491.845 134.519C433.366 46.3202 360.689 24.1408 360.689 24.1408Z" fill="#38B6FF"/>
<path opacity="0.7" d="M360.689 24.1408C360.689 24.1408 275.681 -6.07567 192.263 42.0367C108.845 90.149 66.7385 185.656 30.5825 262.185C-5.57354 338.715 15.2369 416.524 78.9266 452.007C142.616 487.49 185.926 435.16 275.273 432.632C364.62 430.104 388.643 442.888 462.787 392.391C536.932 341.894 550.324 222.717 491.845 134.519C433.366 46.3202 360.689 24.1408 360.689 24.1408Z" fill="white"/>
<path d="M135.352 11.224V167.992H408.04V11.224H135.352ZM398.435 159.16H144.957V20.056H398.435V159.16Z" fill="#B2B2B2" stroke="#B2B2B2" stroke-linecap="round" stroke-linejoin="round"/>
<path d="M144.758 81.88C144.758 81.88 228.364 38.7136 234.535 49.6763C240.707 60.639 198.214 88.7358 216.032 99.0141C233.851 109.292 329.104 22.264 346.216 42.8205C363.328 63.3769 315.381 118.202 330.451 124.373C345.52 130.544 377.735 100.383 384.547 107.923C391.359 115.464 373.584 145.614 381.124 149.721C388.665 153.828 397.563 146.298 397.563 146.298" stroke="#B2B2B2" stroke-linecap="round" stroke-linejoin="round"/>
<path d="M288.849 47.7838C291.214 37.8422 285.072 27.866 275.13 25.5012C265.189 23.1365 255.212 29.2787 252.848 39.2203C250.483 49.1619 256.625 59.1381 266.567 61.5029C276.508 63.8676 286.485 57.7254 288.849 47.7838Z" stroke="#B2B2B2" stroke-linecap="round" stroke-linejoin="round"/>
<path d="M182.859 38.0624C184.201 32.3525 180.661 26.6355 174.951 25.2932C169.241 23.9508 163.524 27.4913 162.182 33.2011C160.839 38.911 164.38 44.628 170.09 45.9704C175.799 47.3128 181.516 43.7722 182.859 38.0624Z" stroke="#B2B2B2" stroke-linecap="round" stroke-linejoin="round"/>
<path d="M206.439 112.03C206.447 112.98 206.174 113.911 205.654 114.706C205.133 115.5 204.389 116.122 203.515 116.494C202.641 116.865 201.676 116.969 200.743 116.793C199.81 116.616 198.95 116.166 198.272 115.501C197.594 114.836 197.129 113.984 196.935 113.054C196.741 112.125 196.827 111.158 197.183 110.277C197.538 109.397 198.147 108.641 198.932 108.106C199.716 107.571 200.642 107.281 201.592 107.272C202.223 107.266 202.848 107.385 203.433 107.621C204.018 107.857 204.551 108.205 205.001 108.647C205.451 109.089 205.81 109.615 206.056 110.196C206.303 110.776 206.433 111.4 206.439 112.03Z" stroke="#B2B2B2" stroke-linecap="round" stroke-linejoin="round"/>
<path d="M377.128 54.1254C377.128 54.9988 376.869 55.8526 376.384 56.5788C375.898 57.305 375.209 57.8711 374.402 58.2053C373.595 58.5395 372.707 58.627 371.85 58.4566C370.994 58.2862 370.207 57.8656 369.589 57.248C368.972 56.6304 368.551 55.8436 368.381 54.987C368.21 54.1303 368.298 53.2424 368.632 52.4355C368.966 51.6286 369.532 50.9389 370.258 50.4537C370.985 49.9684 371.838 49.7094 372.712 49.7094C373.883 49.7094 375.006 50.1747 375.834 51.0029C376.663 51.831 377.128 52.9542 377.128 54.1254Z" stroke="#B2B2B2" stroke-linecap="round" stroke-linejoin="round"/>
<path d="M309.164 151.182C315.281 148.188 317.813 140.802 314.819 134.684C311.825 128.567 304.438 126.036 298.321 129.03C292.204 132.024 289.672 139.41 292.666 145.527C295.661 151.644 303.047 154.176 309.164 151.182Z" stroke="#B2B2B2" stroke-linecap="round" stroke-linejoin="round"/>
<path d="M14.8062 250.792H507.19" stroke="#B2B2B2" stroke-linecap="round" stroke-linejoin="round"/>
<path d="M34.1262 265.552H507.19" stroke="#B2B2B2" stroke-linecap="round" stroke-linejoin="round"/>
<path d="M14.8062 265.552H24.5434" stroke="#B2B2B2" stroke-linecap="round" stroke-linejoin="round"/>
<path d="M499.341 291.121H345.752C345.674 293.612 344.611 295.971 342.796 297.678C340.98 299.386 338.561 300.303 336.07 300.229V463.146C338.559 463.072 340.977 463.988 342.792 465.693C344.607 467.399 345.671 469.754 345.752 472.243C345.751 472.766 345.699 473.287 345.598 473.8H497.353" stroke="#B2B2B2" stroke-linecap="round" stroke-linejoin="round"/>
<path d="M16.7161 291.121H69.8074C69.8261 292.336 70.084 293.535 70.5663 294.651C71.0486 295.766 71.7459 296.775 72.6183 297.621C73.4907 298.467 74.5212 299.133 75.651 299.58C76.7807 300.028 77.9875 300.248 79.2025 300.229V463.146C76.7506 463.108 74.3838 464.045 72.6221 465.75C70.8605 467.456 69.8481 469.792 69.8074 472.243C69.8104 472.765 69.8584 473.286 69.951 473.8H25.3273" stroke="#B2B2B2" stroke-linecap="round" stroke-linejoin="round"/>
<path d="M308.923 291.121H102.563C102.482 293.615 101.415 295.975 99.5955 297.683C97.776 299.391 95.3531 300.306 92.8589 300.229V463.146C95.3512 463.069 97.7725 463.983 99.5917 465.689C101.411 467.394 102.479 469.751 102.563 472.243C102.562 472.766 102.51 473.287 102.408 473.8H309.077C308.981 473.287 308.929 472.766 308.923 472.243C309.003 469.754 310.068 467.399 311.883 465.693C313.698 463.988 316.115 463.072 318.605 463.146V300.229C316.114 300.303 313.695 299.386 311.879 297.678C310.064 295.971 309.001 293.612 308.923 291.121Z" stroke="#B2B2B2" stroke-linecap="round" stroke-linejoin="round"/>
<path d="M490.63 99.9966C503.843 99.9966 514.554 89.2856 514.554 76.0729C514.554 62.8603 503.843 52.1493 490.63 52.1493C477.418 52.1493 466.707 62.8603 466.707 76.0729C466.707 89.2856 477.418 99.9966 490.63 99.9966Z" fill="white" stroke="#B2B2B2" stroke-linecap="round" stroke-linejoin="round"/>
<path d="M468.76 66.424H512.523C510.652 62.18 507.587 58.5716 503.702 56.0383C499.817 53.505 495.279 52.1562 490.641 52.1562C486.003 52.1562 481.465 53.505 477.58 56.0383C473.695 58.5716 470.631 62.18 468.76 66.424Z" fill="#636363" stroke="#636363" stroke-linecap="round" stroke-linejoin="round"/>
<path d="M490.851 47.6781V1.28799" stroke="#636363" stroke-width="2" stroke-linecap="round" stroke-linejoin="round"/>
<path d="M493.148 45.448H488.113V53.8384H493.148V45.448Z" fill="#636363" stroke="#636363" stroke-linecap="round" stroke-linejoin="round"/>
<path d="M40.1983 99.9966C53.411 99.9966 64.122 89.2856 64.122 76.0729C64.122 62.8603 53.411 52.1493 40.1983 52.1493C26.9857 52.1493 16.2747 62.8603 16.2747 76.0729C16.2747 89.2856 26.9857 99.9966 40.1983 99.9966Z" fill="white" stroke="#B2B2B2" stroke-linecap="round" stroke-linejoin="round"/>
<path d="M18.3281 66.424H62.0796C60.2075 62.1832 57.143 58.578 53.2592 56.0471C49.3753 53.5162 44.8396 52.1688 40.2039 52.1688C35.5682 52.1688 31.0325 53.5162 27.1486 56.0471C23.2648 58.578 20.2003 62.1832 18.3281 66.424Z" fill="#636363" stroke="#636363" stroke-linecap="round" stroke-linejoin="round"/>
<path d="M40.4192 47.6781V1.28799" stroke="#636363" stroke-width="2" stroke-linecap="round" stroke-linejoin="round"/>
<path d="M42.7154 45.448H37.6812V53.8384H42.7154V45.448Z" fill="#636363" stroke="#636363" stroke-linecap="round" stroke-linejoin="round"/>
<path d="M444.947 234.232C444.947 234.232 445.521 306.61 445.521 325.72C445.521 344.831 444.947 459.304 444.947 459.304" stroke="#263238" stroke-width="3" stroke-linecap="round" stroke-linejoin="round"/>
<path d="M488.378 252.757L470.427 237.699L520.803 243.484L476.212 229.01L521.962 220.907H470.427L510.381 190.79L465.216 213.377L491.271 168.787L456.528 208.741L468.683 150.262L446.106 204.689L443.788 143.892L439.162 205.848L414.521 151.112L431.633 211.059L394.77 170.851L426.996 220.322L381.379 187.776L424.103 229.01L375.737 202.58L420.052 232.488L379.965 227.266L418.892 238.273L387.727 243.484L420.052 242.324L400.941 255.064L446.106 242.909L488.378 252.757Z" fill="#38B6FF"/>
<path d="M488.378 410.618L470.427 395.571L520.803 401.355L476.212 386.882L521.962 378.779H470.427L510.381 348.662L465.216 371.249L491.271 326.659L456.528 366.613L468.683 308.134L446.106 362.561L443.788 301.764L439.162 363.72L414.521 308.984L431.633 368.931L394.77 328.734L426.996 378.194L381.379 345.648L424.103 386.882L375.737 360.452L420.052 390.36L379.965 385.138L418.892 396.145L387.727 401.355L420.052 400.196L400.941 412.936L446.106 400.781L488.378 410.618Z" fill="#38B6FF"/>
<path d="M427.57 307.184C427.57 307.184 425.837 322.232 426.996 328.028C428.224 334.713 428.804 341.501 428.729 348.297C428.729 355.816 429.314 387.809 429.314 393.02C429.314 398.231 428.729 442.513 428.729 446.564V460.464" stroke="#263238" stroke-width="3" stroke-linecap="round" stroke-linejoin="round"/>
<path d="M429.314 387.235C429.314 387.235 431.633 343.075 433.94 337.29C436.247 331.505 438.003 333.239 438.577 326.25C439.151 319.262 439.151 316.414 440.31 314.106C441.233 312.041 442.008 309.912 442.628 307.736L443.788 303.111" stroke="#263238" stroke-width="3" stroke-linecap="round" stroke-linejoin="round"/>
<path d="M470.427 322.232L452.476 307.184L502.852 312.969L458.261 298.496L504.011 290.392H452.476L492.43 260.275L447.265 282.863L473.32 238.273L438.577 278.226L450.743 219.748L428.155 274.175L425.837 213.377L421.211 275.334L403.26 219.162L413.681 280.545L381.831 234.795L409.045 289.807L367.269 262.516L406.152 298.496L363.041 280.854L402.101 301.973L361.639 298.474L400.941 307.758L373.617 313.985L402.101 311.81L382.99 324.55L428.155 312.395L470.427 322.232Z" fill="#38B6FF"/>
<path d="M411.716 444.047L399.319 464.714C398.377 466.282 397.761 468.024 397.507 469.835C397.253 471.647 397.366 473.491 397.839 475.257L403.359 495.781C403.749 497.238 404.61 498.525 405.809 499.442C407.007 500.359 408.475 500.853 409.983 500.848H466.442C467.95 500.853 469.418 500.359 470.616 499.442C471.815 498.525 472.676 497.238 473.066 495.781L478.586 475.257C479.062 473.491 479.177 471.646 478.922 469.835C478.668 468.023 478.05 466.281 477.106 464.714L464.719 444.047C464.3 443.357 463.711 442.786 463.007 442.389C462.303 441.993 461.509 441.784 460.701 441.784H415.768C414.954 441.775 414.152 441.98 413.441 442.377C412.731 442.774 412.136 443.35 411.716 444.047Z" fill="#263238" stroke="#263238" stroke-linejoin="round"/>
<path d="M374.169 150.88C374.169 150.88 374.434 138.67 375.273 136.76C376.112 134.85 378.254 131.88 379.888 131.339C382.387 130.592 384.835 129.684 387.218 128.623C389.59 126.661 391.856 124.575 394.008 122.375C394.008 122.375 398.347 121.271 398.623 122.651C398.899 124.031 392.374 129.981 392.374 129.981L395.09 131.085L409.442 131.361L417.854 122.938C417.854 122.938 420.835 121.039 420.57 122.938C420.305 124.837 412.147 135.424 411.341 135.424C410.535 135.424 386.898 144.113 386.898 144.113L384.182 154.7L374.169 150.88Z" fill="white" stroke="#263238" stroke-linecap="round" stroke-linejoin="round"/>
<path d="M399.959 138.67C399.959 138.67 405.655 137.036 406.472 135.678C407.289 134.32 413.262 122.43 413.803 121.558C414.344 120.686 410.822 121.293 409.464 121.558C408.106 121.823 404.297 133.503 404.297 133.503L398.325 135.402L399.959 138.67Z" fill="white" stroke="#263238" stroke-linecap="round" stroke-linejoin="round"/>
<path d="M402.012 136.594C402.012 136.594 407.93 136.23 409.012 135.082C410.093 133.934 418.517 123.556 419.224 122.883C419.93 122.209 416.364 121.966 414.984 121.944C413.604 121.922 407.367 132.487 407.367 132.487L401.118 133.061L402.012 136.594Z" fill="white" stroke="#263238" stroke-linecap="round" stroke-linejoin="round"/>
<path d="M379.049 143.549C379.049 143.549 378.784 138.118 382.306 135.402C385.828 132.686 396.967 132.421 396.967 132.421C396.967 132.421 402.399 121.834 403.756 121.834C405.114 121.834 408.371 120.476 408.106 121.834C407.841 123.192 404.573 128.623 403.216 131.339C401.858 134.055 401.317 137.577 399.959 138.67C398.601 139.763 390.729 141.651 390.729 141.651" fill="white"/>
<path d="M379.049 143.549C379.049 143.549 378.784 138.118 382.306 135.402C385.828 132.686 396.967 132.421 396.967 132.421C396.967 132.421 402.399 121.834 403.756 121.834C405.114 121.834 408.371 120.476 408.106 121.834C407.841 123.192 404.573 128.623 403.216 131.339C401.858 134.055 401.317 137.577 399.959 138.67C398.601 139.763 390.729 141.651 390.729 141.651" stroke="#263238" stroke-linecap="round" stroke-linejoin="round"/>
<path d="M369.819 159.844L372.811 149.798L386.379 151.973L383.123 164.459L369.819 159.844Z" fill="#38B6FF" stroke="#263238" stroke-linecap="round" stroke-linejoin="round"/>
<path d="M315.304 148.981C315.304 148.981 327.249 152.238 329.424 156.312C331.599 160.385 349.782 189.708 350.875 191.64C351.968 193.572 352.774 195.172 352.774 195.172C352.774 195.172 366.077 162.858 366.618 160.948C367.159 159.039 371.774 158.509 373.131 158.509C374.489 158.509 386.976 159.326 387.483 162.582C387.991 165.839 371.729 227.718 370.107 229.098C368.484 230.478 364.134 230.997 361.418 230.202C358.702 229.408 323.131 211.434 323.131 211.434L315.304 148.981Z" fill="#38B6FF" stroke="#263238" stroke-linecap="round" stroke-linejoin="round"/>
<path d="M352.718 195.139C350.897 199.575 349.46 204.158 348.424 208.84" stroke="#263238" stroke-linecap="round" stroke-linejoin="round"/>
<path d="M343.776 207.659C343.511 208.376 343.257 209.138 343.036 209.933" stroke="#263238" stroke-linecap="round" stroke-linejoin="round"/>
<path d="M348.667 199.213C347.192 200.925 345.952 202.826 344.979 204.866" stroke="#263238" stroke-linecap="round" stroke-linejoin="round"/>
<path d="M248.898 255.208L239.194 369.019L233.222 467.905C233.222 467.905 229.91 472.012 230.241 473.877C230.572 475.743 232.449 480.965 232.449 480.965C232.449 480.965 226.852 497.017 228.353 498.132C229.785 499.101 231.278 499.975 232.824 500.749H248.126C248.126 500.749 251.106 497.757 250.742 495.516C250.378 493.275 248.126 479.85 248.126 479.85C249.519 477.44 250.765 474.948 251.857 472.387C252.233 470.896 249.991 463.058 249.991 463.058L285.816 325.743C285.816 325.743 301.107 411.556 304.838 431.34C308.57 451.124 315.878 500.219 315.878 500.219H323.717L324.821 496.907C324.821 496.907 325.196 496.167 328.927 498.397C331.047 499.722 333.518 500.373 336.015 500.263H355.423C355.423 500.263 356.914 498.397 355.799 498.055C354.684 497.713 339.382 487.346 336.766 485.105C334.149 482.864 329.678 476.902 329.678 476.902C329.678 476.902 332.284 470.179 332.284 469.064C332.284 467.949 328.972 461.601 328.972 461.601L326.532 361.623L327.636 257.847L248.898 255.208Z" fill="#263238" stroke="#263238" stroke-linecap="round" stroke-linejoin="round"/>
<path d="M261.396 144.808L237.825 156.113L249.241 229.485L248.137 258.608C248.137 258.608 267.699 269.317 289.824 268.622C303.213 268.174 316.404 265.25 328.729 259.999L329.888 196.409C329.888 196.409 327.558 165.431 324.765 160.308C321.972 155.186 320.57 152.856 316.618 149.831C312.665 146.806 300.543 143.307 300.543 143.307C300.543 143.307 278.596 141.496 277.889 141.496C277.183 141.496 261.396 144.808 261.396 144.808Z" fill="#263238" stroke="#263238" stroke-linecap="round" stroke-linejoin="round"/>
<path d="M287.097 171.602L300.952 196.652L304.209 167.076L294.427 152.867L287.207 169.173L287.097 171.602Z" fill="#38B6FF" stroke="#263238" stroke-linecap="round" stroke-linejoin="round"/>
<path d="M295.432 157.846L303.756 169.074L305.931 144.819L300.864 138.67L295.432 157.846Z" fill="#38B6FF" stroke="#263238" stroke-linecap="round" stroke-linejoin="round"/>
<path d="M265.017 119.836L266.827 139.752L295.432 157.846L307.742 124.185L265.017 119.836Z" fill="white" stroke="#263238" stroke-linecap="round" stroke-linejoin="round"/>
<path d="M266.099 131.648C270.321 133.469 274.896 134.325 279.49 134.154C289.426 133.724 300.952 129.297 306.792 126.758L307.742 124.185L265.017 119.836L266.099 131.648Z" fill="#263238" stroke="#263238" stroke-linecap="round" stroke-linejoin="round"/>
<path d="M295.432 157.846L287.097 171.602L261.396 144.819L265.381 138.305L295.432 157.846Z" fill="#38B6FF" stroke="#263238" stroke-linecap="round" stroke-linejoin="round"/>
<path d="M328.011 237.765C328.011 237.765 338.598 228.8 339.956 228.8C341.314 228.8 348.104 233.956 348.104 233.956C348.104 233.956 354.882 233.15 355.158 234.773C355.434 236.396 354.054 241.022 354.054 241.022L352.42 242.645C352.42 242.645 347.806 249.71 347.806 250.792C347.806 251.874 341.833 251.609 339.117 252.15C336.401 252.691 328.806 250.792 328.806 250.792L328.011 237.765Z" fill="white" stroke="#263238" stroke-linecap="round" stroke-linejoin="round"/>
<path d="M317.688 236.948L330.186 237.224L330.451 250.251L320.139 250.527L317.688 236.948Z" fill="white" stroke="#263238" stroke-linecap="round" stroke-linejoin="round"/>
<path d="M260.104 181.803C260.09 178.577 259.343 175.396 257.92 172.501C256.497 169.605 254.435 167.071 251.89 165.088C247.54 161.699 242.131 157.625 240.276 156.853C237.019 155.495 235.396 156.036 230.782 159.303C226.167 162.571 224.533 169.339 224.809 180.478C225.085 191.618 232.946 250.251 233.763 252.691C234.579 255.131 237.075 255.683 239.194 255.948C241.314 256.213 316.209 253.662 317.655 253.508C322.822 252.967 323.661 245.934 323.363 242.644C322.822 236.672 317.655 234.773 309.784 233.956C301.912 233.139 263.416 228.535 262.003 228.259C261.078 228.057 260.17 227.784 259.287 227.442C259.287 227.442 260.104 195.68 260.104 186.992C260.104 185.049 260.104 183.338 260.104 181.803Z" fill="#38B6FF" stroke="#263238" stroke-linecap="round" stroke-linejoin="round"/>
<path d="M244.46 237.08C243.594 238.023 242.852 239.073 242.252 240.205" stroke="#263238" stroke-linecap="round" stroke-linejoin="round"/>
<path d="M259.32 227.442C255.233 229.186 251.367 231.41 247.805 234.066" stroke="#263238" stroke-linecap="round" stroke-linejoin="round"/>
<path d="M241.667 233.415C241.667 233.415 247.916 225.003 257.686 227.177" stroke="#263238" stroke-linecap="round" stroke-linejoin="round"/>
<path d="M380.296 92.7654H377.779V116.468H380.296V92.7654Z" fill="white" stroke="#263238" stroke-linecap="round" stroke-linejoin="round"/>
<path d="M388.554 116.468H369.521V117.55H388.554V116.468Z" fill="white" stroke="#263238" stroke-linecap="round" stroke-linejoin="round"/>
<path d="M379.038 94.9293C376.47 94.9118 374.014 93.8771 372.207 92.0519C370.401 90.2268 369.391 87.76 369.4 85.192L371.277 67.6384H386.799L388.731 85.192C388.735 86.4682 388.488 87.7328 388.003 88.9132C387.518 90.0937 386.805 91.1669 385.904 92.0714C385.004 92.9759 383.934 93.6939 382.756 94.1843C381.578 94.6747 380.314 94.9278 379.038 94.9293Z" fill="white" stroke="#263238" stroke-linecap="round" stroke-linejoin="round"/>
<path d="M410.855 54.8983L409.961 34.408H402.332L401.416 54.8983C401.343 56.8677 400.971 58.8146 400.312 60.6722L395.896 72.8162C395.034 75.168 394.594 77.6531 394.593 80.1578V119.78H417.777V80.1357C417.777 77.631 417.336 75.1459 416.475 72.7941L412.059 60.6501C411.368 58.8049 410.963 56.8654 410.855 54.8983Z" fill="#263238" stroke="#263238" stroke-linecap="round" stroke-linejoin="round"/>
<path d="M416.563 84.5627H395.587V112.869H416.563V84.5627Z" fill="white" stroke="#263238" stroke-linecap="round" stroke-linejoin="round"/>
<path d="M410.756 52.4474C410.75 52.3886 410.75 52.3295 410.756 52.2707L410.038 36.053C410.021 35.6088 409.832 35.1887 409.51 34.8817C409.189 34.5747 408.76 34.4048 408.316 34.408H403.977C403.534 34.4102 403.109 34.5819 402.789 34.8878C402.468 35.1938 402.277 35.6107 402.255 36.053L401.548 52.2707C401.548 52.2707 401.548 52.3922 401.548 52.4474H410.756Z" fill="#8C8C8C" stroke="#263238" stroke-linecap="round" stroke-linejoin="round"/>
<path d="M452.089 121.834H349.186L343.754 117.484H458.603L452.089 121.834Z" fill="#8C8C8C" stroke="#263238" stroke-linecap="round" stroke-linejoin="round"/>
<path d="M274.644 229.132L275.008 293.682H329.115L330.186 237.224L274.644 229.132Z" fill="white" stroke="#263238" stroke-linecap="round" stroke-linejoin="round"/>
<path d="M291.016 76.36C292.903 76.896 294.654 77.8267 296.154 79.0904C297.653 80.3542 298.867 81.9222 299.716 83.6906C303.028 89.9503 311.948 116.038 312.224 119.571C312.5 123.103 308.691 124.196 304.341 126.912C299.992 129.628 285.86 131.803 277.978 129.12C270.095 126.437 268.461 122.055 268.461 122.055C268.461 122.055 265.469 125.587 259.762 121.779C254.054 117.97 252.972 112.814 255.147 110.904C257.322 108.994 260.855 110.639 260.855 110.639C260.855 110.639 254.871 95.956 255.412 90.7672C255.953 85.5784 256.229 80.4448 264.928 76.912C273.628 73.3792 291.016 76.36 291.016 76.36Z" fill="white" stroke="#263238" stroke-linecap="round" stroke-linejoin="round"/>
<path d="M291.259 88.0845C291.259 88.0845 292.363 91.6173 293.699 92.1693C295.034 92.7213 302.133 90.5354 302.674 93.5272C303.215 96.519 300.466 101.41 300.466 101.41" stroke="#263238" stroke-linecap="round" stroke-linejoin="round"/>
<path d="M302.674 106.3C302.674 106.3 295.874 112.273 289.084 106.841" stroke="#263238" stroke-linecap="round" stroke-linejoin="round"/>
<path d="M277.945 96.784L285.551 94.0682" stroke="#263238" stroke-linecap="round" stroke-linejoin="round"/>
<path d="M283.1 85.9096C283.1 85.9096 277.128 82.5976 274.136 88.6365" stroke="#263238" stroke-linecap="round" stroke-linejoin="round"/>
<path d="M291.016 85.3686C291.016 85.3686 293.732 80.4779 298.633 84.5517" stroke="#263238" stroke-linecap="round" stroke-linejoin="round"/>
<path d="M282.912 95.8898C283.045 96.2762 282.537 96.784 281.808 96.9938C281.08 97.2035 280.351 97.1263 280.23 96.7399C280.108 96.3535 280.594 95.8456 281.334 95.6359C282.073 95.4261 282.78 95.5034 282.912 95.8898Z" fill="#263238" stroke="#263238" stroke-linecap="round" stroke-linejoin="round"/>
<path d="M258.647 106.3C258.647 106.3 260.27 112.008 261.363 112.273C262.455 112.538 267.07 113.377 266.794 110.65C266.518 107.923 261.639 98.4179 262.179 95.1943C262.72 91.9706 268.969 87.3117 267.611 85.4128C266.253 83.5139 264.078 83.7789 264.895 82.421C265.712 81.0631 278.751 76.7133 283.663 76.7133C288.576 76.7133 290.729 76.4483 292.904 74.8144C295.079 73.1805 298.335 66.6559 288.278 66.3909C278.221 66.1259 261.65 72.9155 255.942 80.5221C250.234 88.1287 252.95 94.1123 254.573 97.0821C256.196 100.052 258.647 106.3 258.647 106.3Z" fill="#263238" stroke="#263238" stroke-linecap="round" stroke-linejoin="round"/>
<path d="M296.304 163.333L285.375 161.004L287.627 172.474L296.713 165.53L306.836 170.134L304.971 158.42L296.304 163.333Z" fill="#263238" stroke="#263238" stroke-linecap="round" stroke-linejoin="round"/>
<path d="M175.792 220.752L179.358 238.858C179.358 238.858 181.279 241.596 187.582 244.378C193.886 247.16 196.911 244.919 196.911 240.536C196.911 236.153 194.703 212.56 194.703 212.56L175.792 220.752Z" fill="white" stroke="#263238" stroke-linecap="round" stroke-linejoin="round"/>
<path d="M176.918 227.321L195.432 222.265L194.714 212.527L175.792 220.752L176.918 227.321Z" fill="#263238" stroke="#263238" stroke-linecap="round" stroke-linejoin="round"/>
<path d="M77.9441 204.855L69.1121 229.816L75.7361 234.751C75.7361 234.751 81.2561 235.303 84.7889 232.83C88.3217 230.357 97.1316 210.076 97.1316 210.076L77.9441 204.855Z" fill="white" stroke="#263238" stroke-linecap="round" stroke-linejoin="round"/>
<path d="M75.9458 210.253L94.4599 215.773L97.0874 210.065L77.6239 203.993L75.9458 210.253Z" fill="#263238" stroke="#263238" stroke-linecap="round" stroke-linejoin="round"/>
<path d="M145.807 349.103C145.807 349.103 148.368 381.274 148.368 388.229C148.368 395.184 145.443 410.53 147.264 418.942C149.086 427.355 155.313 453.31 155.313 461.722C155.313 470.135 150.565 485.127 153.105 488.053C155.644 490.978 160.424 491.707 161.881 494.677C163.339 497.646 164.089 498.331 166.64 499.435C169.19 500.539 179.435 501.256 181.632 500.539C183.829 499.821 182.736 497.978 179.071 492.811C175.405 487.644 167.004 477.819 165.547 473.436C164.089 469.053 173.219 433.946 173.584 419.34C173.948 404.734 173.219 386.065 173.219 386.065C173.219 386.065 177.978 353.155 177.978 346.575L145.807 349.103Z" fill="white" stroke="#263238" stroke-linecap="round" stroke-linejoin="round"/>
<path d="M146.734 361.192C157.034 360.6 167.24 358.894 177.172 356.103C177.658 351.83 177.989 348.286 177.989 346.564L145.807 349.125C145.807 349.125 146.227 354.402 146.734 361.192Z" fill="#263238" stroke="#263238" stroke-linecap="round" stroke-linejoin="round"/>
<path d="M172.502 378.724C172.502 378.724 172.137 388.229 168.847 393.34" stroke="#263238" stroke-linecap="round" stroke-linejoin="round"/>
<path d="M181.643 500.484C183.851 499.755 182.747 497.922 179.082 492.756C178.452 491.872 177.669 490.846 176.818 489.731C172.48 492.48 166.176 490.768 163.725 488.008C161.517 485.491 155.853 479.364 153.303 476.604C152.409 481.892 151.813 486.54 153.116 488.008C155.677 490.934 160.435 491.663 161.892 494.632C163.35 497.602 164.1 498.287 166.651 499.391C169.201 500.495 179.446 501.212 181.643 500.484Z" fill="#263238" stroke="#263238" stroke-linecap="round" stroke-linejoin="round"/>
<path d="M111.064 349.832C111.064 349.832 116.584 384.199 117.28 385.303C117.975 386.407 117.28 416.745 120.934 426.99C124.588 437.236 134.094 469.406 134.458 474.462C134.822 479.519 122.766 489.874 117.688 493.164C112.61 496.454 111.064 498.684 114.376 499.788C117.688 500.892 129.368 499.788 134.116 499.424C138.863 499.06 145.244 500.815 146.337 499.358C147.43 497.9 145.818 477.112 145.818 470.896C145.818 464.681 147.275 420.433 145.089 405.816C142.903 391.199 140.673 378.381 140.673 378.381L141.413 348.408L109.231 347.304L111.064 349.832Z" fill="white" stroke="#263238" stroke-linecap="round" stroke-linejoin="round"/>
<path d="M111.064 349.832C111.064 349.832 111.605 353.232 112.367 357.913C121.727 360.399 131.389 361.559 141.071 361.358L141.391 348.375L109.209 347.271L111.064 349.832Z" fill="#263238" stroke="#263238" stroke-linecap="round" stroke-linejoin="round"/>
<path d="M118.384 377.984C118.384 377.984 119.112 388.958 123.506 394.08" stroke="#263238" stroke-linecap="round" stroke-linejoin="round"/>
<path d="M146.326 499.324C146.745 498.761 146.734 495.538 146.569 491.409C140.872 492.226 130.815 491.707 130.815 491.707C128.253 486.584 124.191 488.781 124.191 488.781H123.44C121.587 490.369 119.641 491.844 117.611 493.197C112.488 496.509 110.987 498.717 114.299 499.821C117.611 500.925 129.081 500.848 133.828 500.484C138.576 500.119 145.288 500.782 146.326 499.324Z" fill="#263238" stroke="#263238" stroke-linecap="round" stroke-linejoin="round"/>
<path d="M93.5215 320.576L92.4175 350.196C92.4175 350.196 117.291 357.14 138.498 357.516C159.706 357.891 187.494 349.103 187.494 349.103L186.026 316.557L94.2501 315.1L93.5215 320.576Z" fill="#38B6FF" stroke="#263238" stroke-linecap="round" stroke-linejoin="round"/>
<path d="M111.892 235.016C111.892 235.016 91.3247 287.301 86.2021 326.791C86.2021 326.791 116.187 335.204 145.818 333.747C175.449 332.289 192.992 324.241 192.992 324.241C192.992 324.241 183.851 263.521 168.704 238.306L111.892 235.016Z" fill="#263238" stroke="#263238" stroke-linecap="round" stroke-linejoin="round"/>
<path d="M151.294 75.9515C151.294 75.9515 149.825 66.4461 140.32 68.2787C130.815 70.1114 131.179 73.4013 129.722 76.6912C128.264 79.9811 107.41 83.9997 102.663 96.4307C97.9154 108.862 109.607 112.891 109.607 119.471C109.607 126.051 94.9787 131.174 98.2687 138.846C101.559 146.519 113.625 147.988 112.532 150.549C111.439 153.11 102.663 157.173 109.22 162.98C115.778 168.787 145.42 174.682 161.108 171.757C176.796 168.831 180.859 156.4 177.933 152.381C175.008 148.363 172.811 146.53 175.008 142.445C177.205 138.361 188.532 134.408 184.877 123.435C181.223 112.461 171.398 110.694 171.784 104.479C172.17 98.2634 183.111 94.2448 173.992 85.468C164.873 76.6912 151.294 75.9515 151.294 75.9515Z" fill="#263238" stroke="#263238" stroke-linecap="round" stroke-linejoin="round"/>
<path d="M125.052 152.746L95.4426 161.247L111.892 235.016C111.892 235.016 119.62 239.951 136.302 241.055C147.162 241.604 158.047 240.679 168.66 238.306L184.845 163.984L156.593 154.943L125.052 152.746Z" fill="white"/>
<path d="M119.311 154.391L118.207 154.7L129.854 240.392L130.958 240.547L119.311 154.391Z" fill="#38B6FF"/>
<path d="M125.791 152.801L125.052 152.746L124.698 152.845L134.071 240.856L135.175 240.944L125.791 152.801Z" fill="#38B6FF"/>
<path d="M133.541 153.331L132.438 153.254L139.26 241.198H140.364L133.541 153.331Z" fill="#38B6FF"/>
<path d="M112.577 156.323L111.473 156.632L126.134 239.752L127.238 239.962L112.577 156.323Z" fill="#38B6FF"/>
<path d="M105.544 158.343L121.365 238.648L122.546 238.946L106.648 158.056L105.544 158.343Z" fill="#38B6FF"/>
<path d="M148.854 154.402L147.75 154.324L149.196 241.033L150.3 240.966L148.854 154.402Z" fill="#38B6FF"/>
<path d="M115.833 236.882C116.209 237.036 116.617 237.191 117.048 237.345L100.62 159.756L99.5164 160.065L115.833 236.882Z" fill="#38B6FF"/>
<path d="M175.339 160.937L164.729 239.123L165.833 238.913L176.366 161.28L175.339 160.937Z" fill="#38B6FF"/>
<path d="M181.301 162.858L180.197 162.516L166.684 238.692L167.788 238.438L181.301 162.858Z" fill="#38B6FF"/>
<path d="M169.985 159.226L168.881 158.884L160.049 239.896L161.153 239.73L169.985 159.226Z" fill="#38B6FF"/>
<path d="M156.715 154.976H156.593L155.622 154.899L151.559 240.856L152.663 240.768L156.715 154.976Z" fill="#38B6FF"/>
<path d="M143.599 241.242H144.703L141.689 153.927L140.585 153.85L143.599 241.242Z" fill="#38B6FF"/>
<path d="M163.107 157.029L162.003 156.676L156.163 240.414L157.267 240.282L163.107 157.029Z" fill="#38B6FF"/>
<path d="M167.681 178.573L156.855 177.996C155.119 177.904 153.638 179.235 153.545 180.971L153.494 181.93C153.402 183.665 154.733 185.147 156.469 185.239L167.295 185.816C169.03 185.909 170.511 184.577 170.604 182.842L170.655 181.882C170.747 180.147 169.416 178.666 167.681 178.573Z" fill="#38B6FF" stroke="#263238" stroke-linecap="round" stroke-linejoin="round"/>
<path d="M125.052 152.746L95.4426 161.247L111.892 235.016C111.892 235.016 119.62 239.951 136.302 241.055C147.162 241.604 158.047 240.679 168.66 238.306L184.845 163.984L156.593 154.943L125.052 152.746Z" stroke="#263238" stroke-linecap="round" stroke-linejoin="round"/>
<path d="M128.132 132.189L128.761 147.767L139.768 156.29L150.742 147.689L155.147 133.227L140.596 137.588L128.132 132.189Z" fill="white" stroke="#263238" stroke-linecap="round" stroke-linejoin="round"/>
<path d="M155.147 133.227L140.596 137.643L128.132 132.244L128.452 140.182C131.069 143.715 133.74 146.541 135.529 147.314C139.945 149.18 142.385 148.352 143.842 146.895C144.946 145.791 150.521 142.368 154.672 134.828L155.147 133.227Z" fill="#263238" stroke="#263238" stroke-linecap="round" stroke-linejoin="round"/>
<path d="M134.789 160.242L137.902 164.812L135.827 204.49L141.844 204.7L139.768 165.022L144.758 158.785L139.271 153.585L134.789 160.242Z" fill="#38B6FF" stroke="#263238" stroke-linecap="round" stroke-linejoin="round"/>
<path d="M127.569 143.406L139.006 153.585L131.941 165.431L122.17 152.757L127.569 143.406Z" fill="white"/>
<path d="M122.634 151.951L132.714 164.139L133.31 163.134L123.219 150.946L122.634 151.951Z" fill="#38B6FF"/>
<path d="M124.864 148.098L124.268 149.136L133.906 162.13L134.513 161.103L124.864 148.098Z" fill="#38B6FF"/>
<path d="M127.867 143.671L127.569 143.406L127.017 144.366L137.251 155.76L135.705 157.636L126.277 145.647L125.692 146.674L135.606 159.281L138.112 155.075L127.867 143.671Z" fill="#38B6FF"/>
<path d="M127.569 143.406L139.006 153.585L131.941 165.431L122.17 152.757L127.569 143.406Z" stroke="#263238" stroke-linecap="round" stroke-linejoin="round"/>
<path d="M152.033 143.406L139.271 153.585L147.165 165.431L158.072 152.757L152.033 143.406Z" fill="white"/>
<path d="M157.554 151.951L146.304 164.139L145.63 163.134L156.902 150.946L157.554 151.951Z" fill="#38B6FF"/>
<path d="M155.07 148.098L155.732 149.136L144.957 162.13L144.283 161.103L155.07 148.098Z" fill="#38B6FF"/>
<path d="M151.713 143.671L152.034 143.406L152.663 144.366L141.225 155.76L142.948 157.636L153.48 145.647L154.142 146.674L143.058 159.281L140.254 155.075L151.713 143.671Z" fill="#38B6FF"/>
<path d="M152.033 143.406L139.271 153.585L147.165 165.431L158.072 152.757L152.033 143.406Z" stroke="#263238" stroke-linecap="round" stroke-linejoin="round"/>
<path d="M121.674 109.259C121.674 109.259 118.163 106.212 116.706 109.745C115.248 113.278 120.868 122.419 122.524 122.01C124.18 121.602 123.153 109.745 123.153 109.745L121.674 109.259Z" fill="white" stroke="#263238" stroke-linecap="round" stroke-linejoin="round"/>
<path d="M163.372 109.668C163.372 109.668 167.247 107.095 168.24 110.772C169.234 114.448 162.488 122.805 160.899 122.176C159.309 121.547 161.848 109.944 161.848 109.944L163.372 109.668Z" fill="white" stroke="#263238" stroke-linecap="round" stroke-linejoin="round"/>
<path d="M134.16 81.0741C134.16 81.0741 124.401 84.1984 122.943 92.92C121.618 100.836 121.066 115.364 122.524 122.01C123.981 128.656 133.564 142.788 137.902 144.653C142.241 146.519 144.758 145.691 146.216 144.234C147.673 142.777 156.803 137.378 160.336 123.876C163.869 110.374 163.46 100.405 161.175 90.2152C159.762 83.9334 144.758 76.2938 134.16 81.0741Z" fill="white" stroke="#263238" stroke-linecap="round" stroke-linejoin="round"/>
<path d="M161.175 90.2152C159.762 83.9334 144.758 76.2938 134.16 81.0741C134.16 81.0741 124.4 84.1984 122.943 92.92C122.134 98.3296 121.71 103.79 121.674 109.259C122.159 107.581 122.855 104.843 123.561 101.233C124.809 94.7858 127.514 89.597 132.084 89.1774C136.655 88.7579 138.521 90.8445 146.006 90.425C153.491 90.0054 155.942 89.3872 159.088 92.92C162.235 96.4528 161.793 108.089 162.621 111.412C163.311 104.315 162.823 97.1526 161.175 90.2152Z" fill="#263238" stroke="#263238" stroke-linecap="round" stroke-linejoin="round"/>
<path d="M144.968 115.563L144.549 120.343C144.549 120.343 146.834 121.801 146.216 123.468C145.597 125.135 143.091 125.952 142.053 124.914" stroke="#263238" stroke-linecap="round" stroke-linejoin="round"/>
<path d="M135.407 130.114C135.407 130.114 140.397 132.808 143.72 132.399C146.066 131.949 148.271 130.951 150.157 129.484" stroke="#263238" stroke-linecap="round" stroke-linejoin="round"/>
<path d="M135.617 113.598C135.617 114.912 135.01 115.983 134.259 115.983C133.509 115.983 132.912 114.879 132.912 113.598C132.912 112.317 133.52 111.202 134.259 111.202C134.999 111.202 135.617 112.273 135.617 113.598Z" fill="#263238"/>
<path d="M152.862 114.315C152.862 115.64 152.254 116.711 151.515 116.711C150.775 116.711 150.157 115.607 150.157 114.315C150.157 113.024 150.764 111.931 151.515 111.931C152.265 111.931 152.862 113.002 152.862 114.315Z" fill="#263238"/>
<path d="M130.009 107.669C130.009 107.669 133.321 103.253 139.15 106.013" stroke="#263238" stroke-linecap="round" stroke-linejoin="round"/>
<path d="M147.662 106.841C147.662 106.841 153.27 103.099 158.702 108.707" stroke="#263238" stroke-linecap="round" stroke-linejoin="round"/>
<path d="M95.4425 161.247L73.771 206.224L100.653 213.079L103.943 200.461L95.4425 161.247Z" fill="white"/>
<path d="M96.0275 163.984L77.105 207.074L78.1869 207.35L96.425 165.817L96.0275 163.984Z" fill="#38B6FF"/>
<path d="M97.5953 171.227L97.1868 169.317C91.9318 182.355 85.0428 199.125 81.2119 208.122L82.3159 208.387C86.6105 198.374 94.0183 180.136 97.5953 171.227Z" fill="#38B6FF"/>
<path d="M99.0858 178.049L98.6663 176.162L85.2085 209.138L86.2794 209.414L99.0858 178.049Z" fill="#38B6FF"/>
<path d="M102.806 204.788L103.943 200.461L103.877 200.151L97.8491 212.362L98.9421 212.638L102.806 204.788Z" fill="#38B6FF"/>
<path d="M102.552 194.046L102.133 192.148L94.2832 211.456L95.3541 211.721L102.552 194.046Z" fill="#38B6FF"/>
<path d="M100.698 185.49L100.278 183.58L89.5471 210.242L90.618 210.518L100.698 185.49Z" fill="#38B6FF"/>
<path d="M95.4425 161.247L73.771 206.224L100.653 213.079L103.943 200.461L95.4425 161.247Z" stroke="#263238" stroke-linecap="round" stroke-linejoin="round"/>
<path d="M184.844 163.984L202.663 215.265L174.964 225.422L173.054 218.29L184.844 163.984Z" fill="white"/>
<path d="M178.574 192.865L178.143 194.841L187.792 220.719L188.819 220.344L178.574 192.865Z" fill="#38B6FF"/>
<path d="M177.017 200.019L176.586 201.995L184.127 222.066L185.164 221.68L177.017 200.019Z" fill="#38B6FF"/>
<path d="M175.748 205.881L175.306 207.913L180.771 223.291L181.808 222.916L175.748 205.881Z" fill="#38B6FF"/>
<path d="M178.85 223.998L174.356 212.284L173.926 214.239L177.823 224.373L178.85 223.998Z" fill="#38B6FF"/>
<path d="M182.813 173.335L182.372 175.389L197 217.352L198.037 216.965L182.813 173.335Z" fill="#38B6FF"/>
<path d="M184.304 166.479L183.84 168.588L199.693 216.358L200.731 215.983L184.304 166.479Z" fill="#38B6FF"/>
<path d="M181.621 178.8L181.179 180.854L194.195 218.379L195.222 217.992L181.621 178.8Z" fill="#38B6FF"/>
<path d="M179.865 186.87L179.446 188.813L191.413 219.394L192.451 219.019L179.865 186.87Z" fill="#38B6FF"/>
<path d="M184.844 163.984L202.663 215.265L174.964 225.422L173.054 218.29L184.844 163.984Z" stroke="#263238" stroke-linecap="round" stroke-linejoin="round"/>
<path d="M105.036 186.473L100.918 190.072L95.7075 201.322L98.7324 209.823C98.7324 209.823 71.0331 225.731 69.3881 227.376C67.7432 229.021 67.1801 240.26 70.7571 245.747C74.334 251.234 89.4036 234.773 89.4036 234.773L114.089 201.598C114.089 201.598 120.117 194.466 118.505 192.545C116.893 190.624 115.491 189.233 114.663 189.233C113.835 189.233 111.925 189.509 111.925 189.509L105.036 186.473Z" fill="white" stroke="#263238" stroke-linecap="round" stroke-linejoin="round"/>
<path d="M105.599 178.657L111.892 191.684L114.365 192.512L107.377 177.84C107.318 177.711 107.231 177.596 107.123 177.504C107.016 177.412 106.889 177.344 106.753 177.305C106.617 177.267 106.474 177.258 106.334 177.279C106.193 177.301 106.06 177.353 105.942 177.431C105.75 177.563 105.611 177.758 105.549 177.982C105.486 178.206 105.504 178.445 105.599 178.657Z" fill="white" stroke="#263238" stroke-linecap="round" stroke-linejoin="round"/>
<path d="M97.0874 196.078L102.022 210.065L117.103 212.803L121.762 210.065L116.551 194.157L97.0874 196.078Z" fill="white" stroke="#263238" stroke-linecap="round" stroke-linejoin="round"/>
<path d="M112.72 198.816L92.9695 197.171C92.9695 197.171 90.2316 195.25 93.7975 193.053C95.7425 191.75 98.1195 191.259 100.422 191.684L114.409 192.512L112.72 198.816Z" fill="white" stroke="#263238" stroke-linecap="round" stroke-linejoin="round"/>
<path d="M121.762 207.04L117.346 193.053C117.346 193.053 112.93 191.684 111.583 194.157C111.34 194.532 111.175 194.953 111.098 195.394C111.022 195.835 111.036 196.287 111.139 196.722C111.242 197.158 111.433 197.568 111.699 197.927C111.965 198.287 112.301 198.589 112.687 198.816C113.504 199.368 116.242 197.447 116.242 197.447L119.267 208.685L121.762 207.04Z" fill="white" stroke="#263238" stroke-linecap="round" stroke-linejoin="round"/>
<path d="M195.807 233.647C196.444 236.34 196.722 239.106 196.635 241.872C196.635 247.392 195.266 251.476 191.7 251.476C188.134 251.476 173.054 247.06 166.198 243.517C159.342 239.973 131.643 226.239 131.643 226.239C131.643 226.239 121.762 225.135 119.024 224.594C115.414 223.713 111.983 222.22 108.878 220.178C106.129 218.257 104.76 212.77 104.76 212.77C104.76 212.77 99.8254 209.756 99.8254 208.354C99.8254 206.952 113.261 209.723 115.734 209.723C118.207 209.723 121.762 206.974 121.762 206.974L120.393 201.763C120.393 201.763 125.328 203.684 126.697 205.329C128.066 206.974 133.012 216.303 133.829 217.396C134.646 218.489 156.593 227.608 167.843 228.712C179.093 229.816 190.055 231.45 190.055 231.45" fill="white"/>
<path d="M195.807 233.647C196.444 236.34 196.722 239.106 196.635 241.872C196.635 247.392 195.266 251.476 191.7 251.476C188.134 251.476 173.054 247.06 166.198 243.517C159.342 239.973 131.643 226.239 131.643 226.239C131.643 226.239 121.762 225.135 119.024 224.594C115.414 223.713 111.983 222.22 108.878 220.178C106.129 218.257 104.76 212.77 104.76 212.77C104.76 212.77 99.8254 209.756 99.8254 208.354C99.8254 206.952 113.261 209.723 115.734 209.723C118.207 209.723 121.762 206.974 121.762 206.974L120.393 201.763C120.393 201.763 125.328 203.684 126.697 205.329C128.066 206.974 133.012 216.303 133.829 217.396C134.646 218.489 156.593 227.608 167.843 228.712C179.093 229.816 190.055 231.45 190.055 231.45" stroke="#263238" stroke-linecap="round" stroke-linejoin="round"/>
<path d="M10.1695 500.848H1.26025" stroke="#263238" stroke-linecap="round" stroke-linejoin="round"/>
<path d="M523.607 500.848H20.3484" stroke="#263238" stroke-linecap="round" stroke-linejoin="round"/>
</svg>
