<svg width="552" height="552" viewBox="0 0 552 552" fill="none" xmlns="http://www.w3.org/2000/svg">
<circle cx="276" cy="276" r="276" fill="#DCEDB3"/>
<path d="M467.09 385.28C486.56 336.52 493.09 278.9 476.76 228.38C457.76 169.43 404.32 135.57 342.76 130.07C301 126.32 258 142.25 233.74 176.82C219.22 197.49 207.93 221.26 188.88 238.49C169.83 255.72 143.7 259.13 121 269.4C99 279.35 85.38 297.7 78.79 320.34C70.9309 347.736 72.7712 377.005 84 403.2C101.51 443.84 139.12 469.89 182.35 478.91C236.35 490.19 297.56 490.09 351.69 479.12C405.82 468.15 446.86 436 467.09 385.28Z" fill="#89C400"/>
<path opacity="0.7" d="M467.09 385.28C486.56 336.52 493.09 278.9 476.76 228.38C457.76 169.43 404.32 135.57 342.76 130.07C301 126.32 258 142.25 233.74 176.82C219.22 197.49 207.93 221.26 188.88 238.49C169.83 255.72 143.7 259.13 121 269.4C99 279.35 85.38 297.7 78.79 320.34C70.9309 347.736 72.7712 377.005 84 403.2C101.51 443.84 139.12 469.89 182.35 478.91C236.35 490.19 297.56 490.09 351.69 479.12C405.82 468.15 446.86 436 467.09 385.28Z" fill="white"/>
<path opacity="0.03" d="M479.58 238.08H189.31C189.16 238.22 189.03 238.36 188.88 238.49C175.16 250.9 157.7 256.15 140.5 262H484.22C483.178 253.937 481.628 245.948 479.58 238.08Z" fill="black"/>
<path opacity="0.03" d="M486 286.55H97.19C90.8441 293.569 85.7926 301.658 82.27 310.44H485.08C485.791 302.497 486.098 294.524 486 286.55Z" fill="black"/>
<path opacity="0.03" d="M74.0801 358.91H476.08C478.313 351.057 480.19 343.09 481.71 335.01H75.5201C74.2663 342.911 73.7841 350.915 74.0801 358.91Z" fill="black"/>
<path opacity="0.03" d="M84.0002 403.2C84.6002 404.61 85.2402 406 85.9002 407.37H456.28C460.445 400.295 464.059 392.91 467.09 385.28C467.33 384.68 467.56 384.08 467.79 383.48H77.4102C79.035 390.231 81.2398 396.829 84.0002 403.2Z" fill="black"/>
<path opacity="0.03" d="M127.57 455.84H410C420.377 449.104 429.854 441.072 438.2 431.94H101.49C109.029 441.081 117.807 449.125 127.57 455.84Z" fill="black"/>
<path d="M288 486.87C309.37 485.913 330.635 483.322 351.61 479.12C367.471 475.988 382.814 470.646 397.19 463.25V377.4H288V486.87Z" fill="#89C400"/>
<path d="M288 486.87C309.37 485.913 330.635 483.322 351.61 479.12C367.471 475.988 382.814 470.646 397.19 463.25V377.4H288V486.87Z" fill="black" fill-opacity="0.5" stroke="#263238" stroke-linecap="round" stroke-linejoin="round"/>
<path d="M288 486.87V377.4L278.55 355V487.21C281.71 487.13 284.88 487 288 486.87Z" fill="#263238"/>
<path opacity="0.5" d="M397.23 377.58H288.03L278.55 354.99H387.74L397.23 377.58Z" fill="white" stroke="#263238" stroke-width="1.16992" stroke-linecap="round" stroke-linejoin="round"/>
<path d="M397.23 377.58H288.03L278.55 354.99H387.74L397.23 377.58Z" fill="#89C400" stroke="#263238" stroke-linecap="round" stroke-linejoin="round"/>
<path d="M281.35 437H172.16V476.41C175.493 477.343 178.873 478.167 182.3 478.88C214.863 485.495 248.092 488.254 281.3 487.1L281.35 437Z" fill="#89C400" stroke="#263238" stroke-linecap="round" stroke-linejoin="round"/>
<path d="M281.35 437.2H172.16L162.67 414.61H271.87L281.35 437.2Z" fill="#89C400"/>
<mask id="mask0_186_3231" style="mask-type:luminance" maskUnits="userSpaceOnUse" x="162" y="414" width="120" height="24">
<path d="M281.35 437.2H172.16L162.67 414.61H271.87L281.35 437.2Z" fill="white"/>
</mask>
<g mask="url(#mask0_186_3231)">
<path opacity="0.5" d="M281.35 437.2H172.16L162.67 414.61H271.87L281.35 437.2Z" fill="white" stroke="#263238" stroke-linecap="round" stroke-linejoin="round"/>
</g>
<path d="M281.35 437.2H172.16L162.67 414.61H271.87L281.35 437.2Z" stroke="#263238" stroke-width="1.16992" stroke-linecap="round" stroke-linejoin="round"/>
<path d="M162.67 473.5C165.79 474.58 168.96 475.55 172.16 476.44V437L162.67 414.58V473.5Z" fill="#263238"/>
<path d="M84 403.2C98.9399 438 128.67 462.07 164 474V401.36H83.2C83.46 402 83.69 402.59 84 403.2Z" fill="#89C400"/>
<path d="M84 403.2C98.9399 438 128.67 462.07 164 474V401.36H83.2C83.46 402 83.69 402.59 84 403.2Z" fill="black" fill-opacity="0.5" stroke="#263238" stroke-linecap="round" stroke-linejoin="round"/>
<path d="M83.2799 401.54H164L154.55 379H76.4199C77.973 386.717 80.2704 394.266 83.2799 401.54Z" fill="#89C400" stroke="#263238" stroke-linecap="round" stroke-linejoin="round"/>
<path d="M447.3 211.62L391.74 145.54L385.9 151.38L406.15 175.46L212.39 338.38L167.69 287.68C166.567 286.406 165.181 285.391 163.626 284.707C162.072 284.023 160.387 283.686 158.689 283.72C156.991 283.753 155.321 284.156 153.794 284.9C152.268 285.645 150.922 286.713 149.85 288.03L50.79 409.7L68.94 424.48L159.27 313.48L202.4 362.4C204.419 364.693 207.255 366.104 210.301 366.332C213.348 366.56 216.362 365.587 218.7 363.62L421.21 193.37L441.46 217.46L447.3 211.62Z" fill="white" stroke="#263238" stroke-linecap="round" stroke-linejoin="round"/>
<path d="M476.74 130.48L391.74 145.54L412 169.63L218.23 332.55L173.53 281.84C172.407 280.565 171.019 279.551 169.464 278.867C167.908 278.183 166.223 277.846 164.524 277.879C162.825 277.912 161.154 278.315 159.627 279.06C158.1 279.804 156.753 280.872 155.68 282.19L56.6301 403.87L74.7701 418.64L165.11 307.64L208.24 356.56C210.259 358.853 213.095 360.264 216.141 360.492C219.188 360.72 222.203 359.747 224.54 357.78L427.05 187.54L447.3 211.62L476.74 130.48Z" fill="#263238" stroke="#263238" stroke-linecap="round" stroke-linejoin="round"/>
<path opacity="0.15" d="M339.14 373.44C361.883 373.44 380.32 370.248 380.32 366.31C380.32 362.372 361.883 359.18 339.14 359.18C316.397 359.18 297.96 362.372 297.96 366.31C297.96 370.248 316.397 373.44 339.14 373.44Z" fill="black"/>
<path d="M313.89 352.54C313.89 352.54 307.27 362.68 307.66 365.41C308.05 368.14 315.45 371.26 317.79 372.41C320.13 373.56 334.95 375.14 336.9 372.8C338.85 370.46 334.17 369.68 331.44 368.51C328.71 367.34 321.69 361.51 321.69 361.51L320.91 354.88L313.89 352.54Z" fill="#263238" stroke="#263238" stroke-width="1.16992" stroke-miterlimit="10"/>
<path d="M336.9 372.82C337.51 372.09 337.47 371.51 337.05 371.02C332.59 371.45 325.77 371.84 320.91 370.87C315.23 369.74 310.19 365.92 307.86 363.93C307.695 364.405 307.627 364.908 307.66 365.41C308.05 368.14 315.45 371.26 317.79 372.41C320.13 373.56 335 375.16 336.9 372.82Z" fill="white" stroke="#263238" stroke-width="1.16992" stroke-linecap="round" stroke-linejoin="round"/>
<path d="M354.45 345.13C354.45 345.13 347.45 352.93 348.99 355.27C350.53 357.61 355.62 356.83 358.74 359.56C361.86 362.29 366.54 365.8 371.22 367.36C375.9 368.92 379.8 366.19 377.85 364.63C375.9 363.07 366.93 355.27 366.15 352.54C365.634 350.242 365.372 347.895 365.37 345.54L354.45 345.13Z" fill="#263238" stroke="#263238" stroke-width="1.16992" stroke-miterlimit="10"/>
<path d="M378.1 366.29C376.054 366.423 373.999 366.258 372 365.8C368.49 365.02 363.81 359.95 359.13 356.44C356.22 354.26 351.81 353.74 348.88 353.65C348.788 353.913 348.751 354.193 348.769 354.471C348.788 354.75 348.863 355.021 348.99 355.27C350.55 357.61 355.62 356.83 358.74 359.56C361.86 362.29 366.54 365.8 371.22 367.36C374.42 368.43 377.26 367.49 378.1 366.29Z" fill="white" stroke="#263238" stroke-width="1.16992" stroke-linecap="round" stroke-linejoin="round"/>
<path d="M335.37 223C335.37 223 329.75 243.3 330.92 249.15C332.09 255 340.02 303.4 340.02 303.4L313.89 352.53L323.64 357.99C323.64 357.99 357.96 313.15 358.35 307.69C358.74 302.23 359.67 259.87 359.67 259.87L382.14 300.28L352.89 344.73C352.89 344.73 357.57 348.63 360.69 348.63H365.76C365.76 348.63 402.81 302.63 403.2 299.89C403.59 297.15 378.28 241.82 378.28 241.82L376.7 229.24L335.37 223Z" fill="#89C400" stroke="#263238" stroke-width="1.16992" stroke-linecap="round" stroke-linejoin="round"/>
<path d="M343.09 237.05C343.09 237.05 345.92 243.85 343.37 247.54C340.82 251.23 335.72 252.64 335.72 252.64" stroke="#263238" stroke-width="1.16992" stroke-linecap="round" stroke-linejoin="round"/>
<path d="M359.67 259.88L372.85 248.11" stroke="#263238" stroke-width="1.16992" stroke-linecap="round" stroke-linejoin="round"/>
<path d="M368.9 239.05L366.81 243.52C366.81 243.52 372.48 245.01 370.1 247.7C367.72 250.39 366.22 250.7 366.22 250.7" stroke="#263238" stroke-width="1.16992" stroke-linecap="round" stroke-linejoin="round"/>
<path d="M360.66 259.73L370.87 253.49" stroke="#263238" stroke-width="1.16992" stroke-linecap="round" stroke-linejoin="round"/>
<path d="M336 237.05C335.283 241.652 334.809 246.288 334.58 250.94" stroke="#263238" stroke-width="1.16992" stroke-linecap="round" stroke-linejoin="round"/>
<path d="M320.59 350.5L318.99 353.27" stroke="#263238" stroke-width="1.16992" stroke-linecap="round" stroke-linejoin="round"/>
<path d="M335.72 256.61C335.72 256.61 341.95 300.83 342.52 302.25C343.09 303.67 345.35 303.67 344.79 304.8C344.22 305.652 343.437 306.342 342.52 306.8L343.94 309.92L322.87 346.56" stroke="#263238" stroke-width="1.16992" stroke-linecap="round" stroke-linejoin="round"/>
<path d="M361.13 341.77L358.68 345.62" stroke="#263238" stroke-width="1.16992" stroke-linecap="round" stroke-linejoin="round"/>
<path d="M362.93 259.44C362.93 259.44 382.21 292 385 296.86C387.79 301.72 391.8 299.41 390.67 301.11C389.54 302.81 385.28 303.67 385.28 303.67L363.4 338.19" stroke="#263238" stroke-width="1.16992" stroke-linecap="round" stroke-linejoin="round"/>
<path d="M333.57 231.61C334.254 232.097 334.98 232.522 335.74 232.88C338.85 234.43 340.15 235.21 340.15 235.21L341.15 230.03L345.04 230.8L344.52 235.21C344.52 235.21 344 236.21 349.19 236.51C354.38 236.81 356 237.8 356 237.8L357 231.8L360.89 231.54V238.28C363.921 238.284 366.949 238.11 369.96 237.76C371.905 237.486 373.765 236.779 375.4 235.69V231.02L373.29 228.69L335.37 223C335.37 223 334.53 227.58 333.57 231.61Z" fill="#263238"/>
<path d="M366.58 234.17V237.8C368.884 237.573 371.149 237.052 373.32 236.25L373.83 233.14C373.83 233.14 367.87 233.65 366.58 234.17Z" fill="white" stroke="#263238" stroke-width="1.16992" stroke-linecap="round" stroke-linejoin="round"/>
<path d="M402.17 233.41L396.12 233.92L391.46 239.45C391.46 239.45 395.95 243.07 398.37 245.32C400.79 247.57 402.86 249.63 404.76 249.11C406.66 248.59 413.21 239.62 413.21 237.55C413.21 235.48 405.79 231.68 402.17 233.41Z" fill="white" stroke="#263238" stroke-width="1.16992" stroke-linecap="round" stroke-linejoin="round"/>
<path d="M398.54 235.13C399.605 233.986 400.827 232.999 402.17 232.2C403.144 231.633 404.257 231.349 405.384 231.379C406.511 231.409 407.607 231.752 408.55 232.37C410.8 233.75 411.14 235.13 409.93 236.68C408.72 238.23 404.07 243.76 403.72 242.38C403.37 241 405.45 236.68 405.45 236.68C405.45 236.68 402.68 243.07 398.89 238.93" fill="white"/>
<path d="M398.54 235.13C399.605 233.986 400.827 232.999 402.17 232.2C403.144 231.633 404.257 231.349 405.384 231.379C406.511 231.409 407.607 231.752 408.55 232.37C410.8 233.75 411.14 235.13 409.93 236.68C408.72 238.23 404.07 243.76 403.72 242.38C403.37 241 405.45 236.68 405.45 236.68C405.45 236.68 402.68 243.07 398.89 238.93" stroke="#263238" stroke-width="1.16992" stroke-linecap="round" stroke-linejoin="round"/>
<path d="M403.55 247.73C403.55 247.73 400.79 245.14 400.79 243.94C400.79 242.74 404.41 239.62 404.41 239.62" stroke="#263238" stroke-width="1.16992" stroke-linecap="round" stroke-linejoin="round"/>
<path d="M394.74 230.64L398.2 233.41L392.5 240.14L389.39 237.2L394.74 230.64Z" fill="white" stroke="#263238" stroke-width="1.16992" stroke-linecap="round" stroke-linejoin="round"/>
<path d="M377.66 214.88L396.12 230.56L388.46 238.22L372.78 227.77L377.66 214.88Z" fill="#89C400" stroke="#263238" stroke-width="1.16992" stroke-linecap="round" stroke-linejoin="round"/>
<path d="M351 155.41C351 155.41 342 160.22 340.54 168.17C339.08 176.12 334.68 220.94 334.68 224.91C334.68 228.88 345.97 233.7 355.8 233.91C365.63 234.12 375.67 233.91 377.14 230.56C378.61 227.21 381.54 189.09 380.28 178.21C379.02 167.33 376.28 161.27 372.28 158.55C368.28 155.83 356.45 152.28 351 155.41Z" fill="white" stroke="#263238" stroke-width="1.16992" stroke-linecap="round" stroke-linejoin="round"/>
<path d="M338.64 225C338.64 225 361.08 216.1 369.97 204.11" stroke="#263238" stroke-width="1.16992" stroke-linecap="round" stroke-linejoin="round"/>
<path d="M337.09 227.66C346.517 228.619 356.039 227.429 364.94 224.18" stroke="#263238" stroke-width="1.16992" stroke-linecap="round" stroke-linejoin="round"/>
<path d="M354.35 136.17C354.35 136.17 354.35 136.56 354.41 137.23C354.577 140.642 354.49 144.061 354.15 147.46L353.52 153.11L369.41 157.71C369.41 157.71 370.04 154.37 371.51 149.56C372.623 146.201 374.095 142.973 375.9 139.93C375.9 139.93 368.58 137.63 364.39 134.08C360.2 130.53 355.82 131.78 354.35 136.17Z" fill="white" stroke="#263238" stroke-width="1.16992" stroke-linecap="round" stroke-linejoin="round"/>
<path d="M369.83 106.68C369.83 106.68 374.43 103.12 371.72 96.22C369.01 89.32 357.49 90.15 353.31 93.08C349.13 96.01 351.22 97.89 353.52 98.08C355.82 98.27 356.86 100.8 353.94 101.64C351.02 102.48 347.66 100.38 342.85 105.64C338.04 110.9 342.64 115.47 343.48 114.22C344.32 112.97 345.78 110.03 346.2 111.92C346.62 113.81 342 116.3 341.39 122.16C340.78 128.02 346.2 133.87 349.75 136.8C353.3 139.73 357.91 140.56 360 137.8C362.09 135.04 364.19 130.48 366.49 127.55C368.79 124.62 366.07 117.55 365.23 114.79C364.39 112.03 369.83 106.68 369.83 106.68Z" fill="#263238" stroke="#263238" stroke-width="1.16992" stroke-linecap="round" stroke-linejoin="round"/>
<path d="M359.37 130.73C359.37 130.73 356.45 126.34 353.73 127.8C351.01 129.26 353.73 135.33 356.24 137.22C358.75 139.11 362.09 136.22 362.09 136.22C362.09 136.22 367.09 143.33 370.88 143.33C374.67 143.33 386.15 142.7 386.98 138.94C387.81 135.18 381.75 122.83 381.75 122.83C381.75 122.83 383.64 120.53 383.43 119.07C383.22 117.61 379.24 118.23 378.43 117.6C377.62 116.97 375.5 111.54 372.99 108.6C370.48 105.66 369.23 105.67 369.23 105.67C369.23 105.67 356 112.32 359 114.42C362 116.52 363 114.63 362.76 116.09C362.52 117.55 357.95 122.99 358.76 123.62C359.57 124.25 362.52 125.92 362.1 127.8C361.68 129.68 361.88 131.36 359.37 130.73Z" fill="white" stroke="#263238" stroke-width="1.16992" stroke-linecap="round" stroke-linejoin="round"/>
<path d="M376.43 118.08C376.93 119.29 376.92 120.44 376.43 120.66C375.94 120.88 375.08 120.08 374.57 118.88C374.06 117.68 374.08 116.52 374.57 116.3C375.06 116.08 375.92 116.88 376.43 118.08Z" fill="#263238"/>
<path d="M374.6 113.91C374.6 113.91 371.52 113 370.25 115.36" stroke="#263238" stroke-width="1.16992" stroke-linecap="round" stroke-linejoin="round"/>
<path d="M381.68 128.25C381.68 128.25 380.23 129.88 377.87 128.43" stroke="#263238" stroke-width="1.16992" stroke-linecap="round" stroke-linejoin="round"/>
<path d="M321.9 183.51C321.9 183.51 300.52 183.62 296.14 184.34C291.76 185.06 296.46 196.67 296.91 199.41C297.36 202.15 321.9 183.51 321.9 183.51Z" fill="#89C400" stroke="#263238" stroke-width="1.16992" stroke-linecap="round" stroke-linejoin="round"/>
<path d="M367.71 160.29C369.902 162.977 371.345 166.196 371.893 169.62C372.441 173.045 372.074 176.553 370.83 179.79C366.54 191.09 341.97 211.37 328.71 220.73C320.087 226.736 311.104 232.206 301.81 237.11C301.81 237.11 287 225 282.7 213.71C278.4 202.42 283.85 196.71 299.45 191.27C315.05 185.83 334.95 179.01 338.45 169.27C341.95 159.53 346.33 152.19 353.51 153.12C360.69 154.05 367.71 160.29 367.71 160.29Z" fill="#89C400" stroke="#263238" stroke-width="1.16992" stroke-linecap="round" stroke-linejoin="round"/>
<path d="M339.24 212.54C339.24 212.54 324.81 218 312.33 221.9C299.85 225.8 284.26 225.02 284.65 228.14C285.04 231.26 294.01 237.14 295.96 238.28C297.91 239.42 301.81 236.72 306.49 235.55C311.17 234.38 333 220.34 339.24 212.54Z" fill="#263238" stroke="#263238" stroke-width="1.16992" stroke-linecap="round" stroke-linejoin="round"/>
<path d="M291.69 247.88L290.16 260.25L292.63 260.56L293.9 250.31L314.76 252.89L313.5 263.14L315.97 263.45L317.5 251.08L291.69 247.88Z" fill="white" stroke="#263238" stroke-width="1.16992" stroke-linecap="round" stroke-linejoin="round"/>
<path d="M329.065 262.189L277.456 255.933C274.859 255.619 272.498 257.469 272.183 260.066L267.723 296.864C267.408 299.461 269.258 301.822 271.856 302.137L323.464 308.392C326.061 308.707 328.422 306.857 328.737 304.26L333.197 267.461C333.512 264.864 331.662 262.504 329.065 262.189Z" fill="white" stroke="#263238" stroke-width="1.1667" stroke-linecap="round" stroke-linejoin="round"/>
<path d="M272.22 279.62L328.42 286.81" stroke="#263238" stroke-width="1.16992" stroke-linecap="round" stroke-linejoin="round"/>
<path d="M279.07 258.81L274.56 296.1L277.74 301.93L282.25 297.42L287.03 259.75" fill="white"/>
<path d="M279.07 258.81L274.56 296.1L277.74 301.93L282.25 297.42L287.03 259.75" stroke="#263238" stroke-width="1.16992" stroke-linecap="round" stroke-linejoin="round"/>
<path d="M285.203 285.17L274.159 283.712L273.464 288.977L284.508 290.435L285.203 285.17Z" fill="white" stroke="#263238" stroke-width="1.16992" stroke-linecap="round" stroke-linejoin="round"/>
<path d="M284.808 286.553L273.779 285.105L273.606 286.421L284.635 287.87L284.808 286.553Z" fill="white" stroke="#263238" stroke-width="1.16816" stroke-linecap="round" stroke-linejoin="round"/>
<path d="M318.36 263.91L313.83 301.14L317.01 306.98L321.52 302.46L326.3 264.79" fill="white"/>
<path d="M318.36 263.91L313.83 301.14L317.01 306.98L321.52 302.46L326.3 264.79" stroke="#263238" stroke-width="1.16992" stroke-linecap="round" stroke-linejoin="round"/>
<path d="M324.476 290.206L313.432 288.748L312.737 294.013L323.781 295.471L324.476 290.206Z" fill="white" stroke="#263238" stroke-width="1.16992" stroke-linecap="round" stroke-linejoin="round"/>
<path d="M324.216 292.179L313.171 290.721L312.997 292.04L324.042 293.498L324.216 292.179Z" fill="white" stroke="#263238" stroke-width="1.16992" stroke-linecap="round" stroke-linejoin="round"/>
<path d="M361.08 163.8C361.08 163.8 356.79 161.46 349.77 162.24C342.75 163.02 308.05 184.08 303 186.42C297.95 188.76 298.32 195.77 298.32 195.77L301.44 240.62H311.18L317.42 196.94C317.42 196.94 362.11 185.08 363.51 176.24" fill="#89C400"/>
<path d="M361.08 163.8C361.08 163.8 356.79 161.46 349.77 162.24C342.75 163.02 308.05 184.08 303 186.42C297.95 188.76 298.32 195.77 298.32 195.77L301.44 240.62H311.18L317.42 196.94C317.42 196.94 362.11 185.08 363.51 176.24" stroke="#263238" stroke-width="1.16992" stroke-linecap="round" stroke-linejoin="round"/>
<path d="M311.16 240.62L313.5 248.81C313.5 248.81 313.5 256.61 312.33 257.39C311.16 258.17 310.77 259.73 308.83 258.17L306.88 256.61C305.471 256.243 304.037 255.982 302.59 255.83C301.42 255.83 299.08 255.83 298.3 253.83C297.52 251.83 301.42 240.57 301.42 240.57L311.16 240.62Z" fill="white" stroke="#263238" stroke-width="1.16992" stroke-linecap="round" stroke-linejoin="round"/>
<path d="M370.3 163.6L371.93 170.8C368.165 172.092 364.211 172.751 360.23 172.75C353.6 172.75 342.29 162.22 334.5 156.37C326.71 150.52 318.9 158.32 311.88 160.66C304.86 163 299.4 161.83 288.48 157.93C277.56 154.03 265.48 163 265.48 163L262 171.58L272.92 177.43C272.92 177.43 283.06 166.12 290.47 166.12C297.88 166.12 312.31 171.58 317.77 168.46C323.23 165.34 327.52 159.46 331.42 160.27C335.32 161.08 352.43 178.21 361 179C363.364 179.29 365.762 178.893 367.906 177.855C370.051 176.818 371.85 175.184 373.09 173.15L376.21 164.15C376.21 164.15 371 156.78 370.3 163.6Z" fill="#263238" stroke="#263238" stroke-width="1.16992" stroke-linecap="round" stroke-linejoin="round"/>
<path d="M372.13 157.29L376.11 157.71L381.75 167.54L375.9 163.15L372.33 164.61L371.92 161.27L372.13 157.29Z" fill="white" stroke="#263238" stroke-width="1.16992" stroke-linecap="round" stroke-linejoin="round"/>
<path d="M350.5 146.39L373.18 155.62L372.76 165.24L347.57 153.09L350.5 146.39Z" fill="white" stroke="#263238" stroke-width="1.16992" stroke-linecap="round" stroke-linejoin="round"/>
</svg>
