<svg width="470" height="429" viewBox="0 0 470 429" fill="none" xmlns="http://www.w3.org/2000/svg">
<path d="M220.194 317.049H7.02235C5.35136 317.046 3.74965 316.381 2.56808 315.199C1.38652 314.018 0.721425 312.416 0.718506 310.745V11.0865C0.735932 9.42514 1.40742 7.83754 2.58743 6.66787C3.76743 5.4982 5.36087 4.8407 7.02235 4.83789H220.194C221.864 4.84082 223.464 5.50626 224.644 6.68814C225.824 7.87002 226.487 9.47176 226.487 11.1417V310.745C226.487 312.415 225.824 314.017 224.644 315.199C223.464 316.381 221.864 317.046 220.194 317.049ZM7.02235 5.05869C5.42456 5.06161 3.89305 5.69762 2.76325 6.82743C1.63344 7.95723 0.997424 9.48874 0.994506 11.0865V310.745C0.997424 312.343 1.63344 313.875 2.76325 315.004C3.89305 316.134 5.42456 316.77 7.02235 316.773H220.194C221.79 316.77 223.321 316.134 224.449 315.004C225.577 313.874 226.211 312.342 226.211 310.745V11.0865C226.211 9.48976 225.577 7.95823 224.449 6.82811C223.321 5.69798 221.79 5.06162 220.194 5.05869H7.02235Z" fill="#E6E6E6"/>
<path d="M458.989 317.049H245.806C244.137 317.046 242.536 316.381 241.356 315.199C240.176 314.017 239.514 312.415 239.514 310.745V11.0865C239.528 9.42614 240.197 7.83854 241.376 6.66857C242.554 5.49859 244.146 4.84073 245.806 4.83789H458.989C460.649 4.84073 462.242 5.49859 463.42 6.66857C464.598 7.83854 465.267 9.42614 465.282 11.0865V310.745C465.282 312.415 464.619 314.017 463.439 315.199C462.259 316.381 460.659 317.046 458.989 317.049ZM245.806 5.05869C244.21 5.06162 242.679 5.69798 241.551 6.82811C240.423 7.95823 239.79 9.48976 239.79 11.0865V310.745C239.79 312.342 240.423 313.874 241.551 315.004C242.679 316.134 244.21 316.77 245.806 316.773H458.989C460.588 316.77 462.12 316.135 463.252 315.005C464.383 313.876 465.022 312.344 465.028 310.745V11.0865C465.022 9.48773 464.383 7.95624 463.252 6.82675C462.12 5.69725 460.588 5.0616 458.989 5.05869H245.806Z" fill="#E6E6E6"/>
<path d="M186.356 157.996L184.844 287.76C179.5 330.937 102.96 365.217 102.96 365.217C102.96 365.217 26.4087 330.971 21.0322 287.76L19.4756 157.996L101.282 131.069L186.356 157.996Z" fill="#F5F5F5"/>
<path d="M175.68 166.21L174.367 282.726C169.708 320.383 102.949 350.28 102.949 350.28C102.949 350.28 36.1901 320.383 31.5422 282.726L30.1401 166.21L101.492 142.728L175.68 166.21Z" fill="#E0E0E0"/>
<path d="M171 173.562L169.763 280.529C165.347 315.857 102.805 343.854 102.805 343.854C102.805 343.854 40.2197 315.824 35.8589 280.529L34.5452 173.562L101.437 151.548L171 173.562Z" stroke="white" stroke-width="3" stroke-linecap="round" stroke-linejoin="round"/>
<path d="M443.113 114.2H295.862V372.58H443.113V114.2Z" fill="#F5F5F5"/>
<path d="M432.438 124.357H306.747V372.58H432.438V124.357Z" fill="#E0E0E0"/>
<path d="M310.28 373.684C310.06 373.685 309.842 373.64 309.64 373.552C309.44 373.472 309.26 373.352 309.11 373.199C308.949 373.048 308.825 372.863 308.745 372.658C308.666 372.457 308.625 372.244 308.624 372.028C308.624 371.784 308.679 371.542 308.783 371.322C308.888 371.101 309.04 370.906 309.229 370.75C309.418 370.595 309.639 370.484 309.876 370.424C310.113 370.365 310.36 370.358 310.6 370.405L310.909 370.494L311.196 370.648C311.286 370.712 311.371 370.782 311.45 370.858C311.529 370.933 311.596 371.018 311.649 371.112C311.713 371.2 311.765 371.297 311.804 371.399C311.848 371.498 311.881 371.602 311.903 371.708C311.914 371.815 311.914 371.922 311.903 372.028C311.904 372.245 311.859 372.46 311.77 372.658C311.691 372.86 311.571 373.045 311.417 373.199C311.114 373.499 310.707 373.673 310.28 373.684Z" fill="white"/>
<path d="M308.602 331.357C308.604 331.139 308.648 330.923 308.733 330.721C308.819 330.52 308.943 330.338 309.099 330.185C309.255 330.032 309.439 329.912 309.642 329.831C309.845 329.749 310.062 329.709 310.28 329.712C310.719 329.712 311.141 329.886 311.451 330.197C311.762 330.508 311.936 330.929 311.936 331.368C311.936 331.807 311.762 332.228 311.451 332.539C311.141 332.85 310.719 333.024 310.28 333.024C310.06 333.027 309.841 332.986 309.637 332.903C309.433 332.821 309.247 332.698 309.091 332.543C308.935 332.388 308.811 332.203 308.727 331.999C308.643 331.796 308.601 331.577 308.602 331.357ZM308.602 290.697C308.602 290.257 308.777 289.836 309.087 289.526C309.398 289.215 309.819 289.041 310.258 289.041C310.697 289.041 311.118 289.215 311.429 289.526C311.74 289.836 311.914 290.257 311.914 290.697C311.914 291.136 311.74 291.557 311.429 291.868C311.118 292.178 310.697 292.353 310.258 292.353C309.819 292.353 309.398 292.178 309.087 291.868C308.777 291.557 308.602 291.136 308.602 290.697ZM308.602 250.025C308.602 249.586 308.777 249.165 309.087 248.854C309.398 248.544 309.819 248.369 310.258 248.369C310.697 248.369 311.118 248.544 311.429 248.854C311.74 249.165 311.914 249.586 311.914 250.025C311.914 250.464 311.74 250.886 311.429 251.196C311.118 251.507 310.697 251.681 310.258 251.681C310.041 251.681 309.825 251.638 309.624 251.555C309.423 251.472 309.241 251.35 309.087 251.196C308.933 251.042 308.811 250.86 308.728 250.659C308.645 250.458 308.602 250.243 308.602 250.025ZM308.602 209.354C308.602 208.915 308.777 208.494 309.087 208.183C309.398 207.872 309.819 207.698 310.258 207.698C310.697 207.698 311.118 207.872 311.429 208.183C311.74 208.494 311.914 208.915 311.914 209.354C311.914 209.793 311.74 210.214 311.429 210.525C311.118 210.835 310.697 211.01 310.258 211.01C309.823 211.01 309.405 210.839 309.095 210.533C308.785 210.227 308.608 209.811 308.602 209.376V209.354ZM308.602 168.694C308.602 168.254 308.777 167.833 309.087 167.523C309.398 167.212 309.819 167.038 310.258 167.038C310.697 167.038 311.118 167.212 311.429 167.523C311.74 167.833 311.914 168.254 311.914 168.694C311.914 169.133 311.74 169.554 311.429 169.865C311.118 170.175 310.697 170.35 310.258 170.35C310.041 170.35 309.825 170.307 309.624 170.224C309.423 170.14 309.241 170.018 309.087 169.865C308.933 169.711 308.811 169.528 308.728 169.327C308.645 169.126 308.602 168.911 308.602 168.694Z" fill="white"/>
<path d="M310.28 129.678C310.063 129.679 309.847 129.637 309.646 129.553C309.445 129.47 309.263 129.347 309.11 129.192C309.028 129.118 308.958 129.033 308.9 128.939C308.842 128.85 308.79 128.758 308.746 128.663C308.7 128.561 308.67 128.453 308.657 128.342C308.646 128.236 308.646 128.129 308.657 128.022C308.66 127.584 308.834 127.164 309.143 126.852C309.216 126.774 309.298 126.703 309.386 126.642C309.476 126.583 309.572 126.535 309.673 126.499C309.773 126.456 309.876 126.422 309.982 126.399C310.197 126.355 310.419 126.355 310.633 126.399C310.739 126.422 310.843 126.456 310.943 126.499C311.043 126.535 311.14 126.583 311.23 126.642C311.319 126.706 311.404 126.776 311.483 126.852C311.792 127.164 311.966 127.584 311.969 128.022C311.981 128.129 311.981 128.236 311.969 128.342C311.946 128.452 311.913 128.559 311.87 128.663C311.829 128.76 311.777 128.853 311.715 128.939C311.662 129.032 311.595 129.118 311.517 129.192C311.354 129.353 311.161 129.479 310.948 129.563C310.736 129.646 310.508 129.686 310.28 129.678Z" fill="white"/>
<path d="M387.428 128.022C387.428 127.583 387.602 127.162 387.913 126.851C388.223 126.541 388.645 126.366 389.084 126.366C389.523 126.366 389.944 126.541 390.255 126.851C390.565 127.162 390.74 127.583 390.74 128.022C390.74 128.461 390.565 128.883 390.255 129.193C389.944 129.504 389.523 129.678 389.084 129.678C388.645 129.678 388.223 129.504 387.913 129.193C387.602 128.883 387.428 128.461 387.428 128.022ZM348.015 128.022C348.015 127.583 348.189 127.162 348.5 126.851C348.811 126.541 349.232 126.366 349.671 126.366C350.11 126.366 350.531 126.541 350.842 126.851C351.152 127.162 351.327 127.583 351.327 128.022C351.327 128.461 351.152 128.883 350.842 129.193C350.531 129.504 350.11 129.678 349.671 129.678C349.232 129.678 348.811 129.504 348.5 129.193C348.189 128.883 348.015 128.461 348.015 128.022Z" fill="white"/>
<path d="M428.496 129.678C428.39 129.689 428.283 129.689 428.176 129.678L427.867 129.59L427.58 129.435C427.491 129.372 427.406 129.301 427.326 129.226C427.015 128.915 426.841 128.494 426.84 128.055C426.843 127.617 427.017 127.197 427.326 126.885C427.403 126.81 427.488 126.743 427.58 126.686C427.667 126.62 427.764 126.568 427.867 126.532C427.966 126.487 428.07 126.454 428.176 126.432C428.391 126.388 428.613 126.388 428.828 126.432L429.137 126.532C429.236 126.568 429.33 126.62 429.413 126.686C429.507 126.74 429.592 126.807 429.667 126.885C429.975 127.197 430.15 127.617 430.152 128.055C430.152 128.494 429.977 128.915 429.667 129.226C429.589 129.304 429.504 129.374 429.413 129.435C429.324 129.493 429.232 129.545 429.137 129.59L428.828 129.678C428.717 129.689 428.606 129.689 428.496 129.678Z" fill="white"/>
<path d="M426.84 331.357C426.84 330.918 427.015 330.497 427.325 330.186C427.636 329.875 428.057 329.701 428.496 329.701C428.936 329.701 429.357 329.875 429.667 330.186C429.978 330.497 430.152 330.918 430.152 331.357C430.152 331.796 429.978 332.217 429.667 332.528C429.357 332.838 428.936 333.013 428.496 333.013C428.057 333.013 427.636 332.838 427.325 332.528C427.015 332.217 426.84 331.796 426.84 331.357ZM426.84 290.697C426.84 290.257 427.015 289.836 427.325 289.526C427.636 289.215 428.057 289.041 428.496 289.041C428.936 289.041 429.357 289.215 429.667 289.526C429.978 289.836 430.152 290.257 430.152 290.697C430.152 291.136 429.978 291.557 429.667 291.868C429.357 292.178 428.936 292.353 428.496 292.353C428.057 292.353 427.636 292.178 427.325 291.868C427.015 291.557 426.84 291.136 426.84 290.697ZM426.84 250.025C426.84 249.586 427.015 249.165 427.325 248.854C427.636 248.544 428.057 248.369 428.496 248.369C428.936 248.369 429.357 248.544 429.667 248.854C429.978 249.165 430.152 249.586 430.152 250.025C430.152 250.464 429.978 250.886 429.667 251.196C429.357 251.507 428.936 251.681 428.496 251.681C428.279 251.681 428.064 251.638 427.863 251.555C427.662 251.472 427.479 251.35 427.325 251.196C427.172 251.042 427.05 250.86 426.966 250.659C426.883 250.458 426.84 250.243 426.84 250.025ZM426.84 209.354C426.84 208.915 427.015 208.494 427.325 208.183C427.636 207.872 428.057 207.698 428.496 207.698C428.936 207.698 429.357 207.872 429.667 208.183C429.978 208.494 430.152 208.915 430.152 209.354C430.152 209.793 429.978 210.214 429.667 210.525C429.357 210.835 428.936 211.01 428.496 211.01C428.061 211.01 427.643 210.839 427.333 210.533C427.023 210.227 426.846 209.811 426.84 209.376V209.354ZM426.84 168.694C426.84 168.254 427.015 167.833 427.325 167.523C427.636 167.212 428.057 167.038 428.496 167.038C428.936 167.038 429.357 167.212 429.667 167.523C429.978 167.833 430.152 168.254 430.152 168.694C430.152 169.133 429.978 169.554 429.667 169.865C429.357 170.175 428.936 170.35 428.496 170.35C428.279 170.35 428.064 170.307 427.863 170.224C427.662 170.14 427.479 170.018 427.325 169.865C427.172 169.711 427.05 169.528 426.966 169.327C426.883 169.126 426.84 168.911 426.84 168.694Z" fill="white"/>
<path d="M428.496 373.684C428.169 373.684 427.849 373.587 427.577 373.405C427.305 373.223 427.093 372.964 426.968 372.662C426.843 372.359 426.81 372.027 426.874 371.706C426.937 371.385 427.095 371.09 427.326 370.858C427.406 370.782 427.491 370.712 427.58 370.648L427.867 370.494L428.176 370.405C428.391 370.361 428.613 370.361 428.828 370.405L429.137 370.494C429.232 370.539 429.324 370.59 429.413 370.648C429.504 370.709 429.589 370.78 429.667 370.858C429.977 371.168 430.152 371.589 430.152 372.028C430.155 372.246 430.113 372.462 430.029 372.663C429.946 372.864 429.822 373.046 429.667 373.199C429.356 373.509 428.935 373.684 428.496 373.684Z" fill="white"/>
<path d="M61.8801 373H16.3843V373.276H61.8801V373Z" fill="#E0E0E0"/>
<path d="M154.616 370.792H108.988V371.068H154.616V370.792Z" fill="#E0E0E0"/>
<path d="M213.989 370.792H202.949V371.068H213.989V370.792Z" fill="#E0E0E0"/>
<path d="M103.644 380.22H52.5845V380.496H103.644V380.22Z" fill="#E0E0E0"/>
<path d="M280.251 372.856H256.405V373.132H280.251V372.856Z" fill="#E0E0E0"/>
<path d="M320.912 372.856H290.077V373.132H320.912V372.856Z" fill="#E0E0E0"/>
<path d="M469.62 377.526H400.687V377.802H469.62V377.526Z" fill="#E0E0E0"/>
<path d="M214.685 36.7656H163.823L166.606 5.06976H217.456L214.685 36.7656Z" fill="#EBEBEB"/>
<path d="M215.711 0.76416L214.32 17.3131L212.929 37.2072H164.022L166.804 0.76416H215.711Z" fill="#FAFAFA"/>
<path d="M211.041 5.06976L213.812 36.7656H162.962L160.18 5.06976H164.508L166.009 2.68512H179.71L181.675 5.06976H211.041Z" fill="#E0E0E0"/>
<path d="M293.51 43.8422H239.392V97.9603H293.51V43.8422Z" fill="#EBEBEB"/>
<path d="M294.89 43.8422H293.51V97.9603H294.89V43.8422Z" fill="#E0E0E0"/>
<path d="M288.498 48.8544H244.382V92.9702H288.498V48.8544Z" fill="#F5F5F5"/>
<path d="M244.802 48.8544H244.393V92.9702H244.802V48.8544Z" fill="#E0E0E0"/>
<path d="M266.86 77.2824C271.609 77.2824 275.46 72.3792 275.46 66.3307C275.46 60.2823 271.609 55.379 266.86 55.379C262.11 55.379 258.26 60.2823 258.26 66.3307C258.26 72.3792 262.11 77.2824 266.86 77.2824Z" fill="#E0E0E0"/>
<path d="M262.367 82.8245H271.43V73.7606H262.367V82.8245Z" fill="#E0E0E0"/>
<path d="M283.199 92.9702H249.991V89.879C249.991 87.0564 251.112 84.3495 253.108 82.3536C255.104 80.3577 257.811 79.2365 260.633 79.2365H272.601C275.423 79.2365 278.13 80.3577 280.126 82.3536C282.122 84.3495 283.243 87.0564 283.243 89.879V92.9702H283.199Z" fill="#E0E0E0"/>
<path d="M249.163 74.5555C249.163 76.3551 252.475 77.8675 252.475 77.8675C252.475 77.8675 255.787 76.3992 255.787 74.5555C255.787 73.6944 254.594 73.2087 253.81 73.4515C253.51 73.5562 253.234 73.7194 252.997 73.9316C252.76 74.1439 252.567 74.401 252.43 74.688C252.008 74.1186 251.45 73.6633 250.808 73.3632C250.619 73.2972 250.418 73.2778 250.22 73.3067C250.022 73.3356 249.835 73.4119 249.673 73.529C249.511 73.6462 249.381 73.8008 249.292 73.9795C249.203 74.1583 249.159 74.3559 249.163 74.5555Z" fill="#E0E0E0"/>
<path d="M278.551 66.5074C278.551 68.881 282.846 70.8019 282.846 70.8019C282.846 70.8019 287.14 68.881 287.14 66.5074C287.14 65.4034 285.55 64.752 284.546 65.039C283.788 65.3417 283.178 65.9278 282.846 66.673C282.285 65.9291 281.555 65.3309 280.715 64.9287C280.466 64.8406 280.2 64.8145 279.939 64.8526C279.678 64.8907 279.43 64.9919 279.217 65.1474C279.004 65.3029 278.831 65.508 278.716 65.745C278.6 65.982 278.543 66.2437 278.551 66.5074Z" fill="#E0E0E0"/>
<path d="M184.104 336.689C184.612 339.88 186.919 342.629 187.096 345.852C187.239 348.381 186.058 350.754 185.473 353.216C184.888 355.678 185.175 358.736 187.328 360.039C188.111 360.437 188.986 360.619 189.863 360.567C190.74 360.514 191.587 360.229 192.318 359.741C193.76 358.743 194.95 357.424 195.795 355.888C199.182 350.414 201.031 344.129 201.15 337.694C201.15 334.989 200.874 332.119 199.284 329.966C194.36 323.088 182.845 328.74 184.104 336.689Z" fill="#F5F5F5"/>
<path d="M180.008 328.244C180.483 328.762 181.102 329.128 181.785 329.292C182.199 329.427 182.64 329.454 183.067 329.371C183.494 329.288 183.892 329.097 184.225 328.818C184.479 328.492 184.659 328.115 184.755 327.713C184.85 327.311 184.858 326.893 184.777 326.488C184.71 325.472 184.362 324.493 183.773 323.662C183.477 323.252 183.084 322.922 182.629 322.7C182.175 322.479 181.673 322.373 181.167 322.392C180.663 322.434 180.188 322.647 179.822 322.997C179.457 323.347 179.222 323.811 179.158 324.313C179.035 325.679 179.332 327.05 180.008 328.244Z" fill="#F5F5F5"/>
<path d="M189.182 321.609C188.957 321.259 188.633 320.984 188.253 320.817C187.872 320.651 187.45 320.599 187.041 320.67C186.635 320.761 186.267 320.972 185.983 321.275C185.7 321.578 185.514 321.96 185.451 322.37C185.433 322.639 185.433 322.908 185.451 323.176C185.455 323.611 185.503 324.043 185.594 324.468C185.687 324.877 185.88 325.257 186.157 325.572C186.536 325.94 187.017 326.187 187.537 326.279C187.859 326.356 188.195 326.354 188.516 326.273C188.837 326.192 189.134 326.035 189.381 325.815C189.601 325.547 189.765 325.239 189.863 324.907C189.962 324.575 189.993 324.227 189.955 323.883C189.93 323.065 189.661 322.273 189.182 321.609Z" fill="#F5F5F5"/>
<path d="M194.294 321.333C194.113 320.999 193.818 320.742 193.464 320.609C193.109 320.475 192.718 320.473 192.362 320.604C192.015 320.748 191.708 320.976 191.47 321.267C191.231 321.557 191.067 321.902 190.993 322.271C190.993 322.514 190.927 322.757 190.916 323C190.909 323.401 190.954 323.802 191.048 324.192C191.127 324.576 191.329 324.925 191.622 325.186C191.935 325.448 192.32 325.609 192.726 325.649C192.991 325.682 193.259 325.656 193.513 325.574C193.766 325.492 193.999 325.356 194.195 325.175C194.624 324.686 194.859 324.058 194.857 323.408C194.905 322.673 194.707 321.943 194.294 321.333Z" fill="#F5F5F5"/>
<path d="M198.853 322.392C198.312 321.587 197.749 321.531 197.131 321.874C196.582 322.276 196.191 322.858 196.027 323.519C195.965 323.732 195.921 323.95 195.895 324.17C195.835 324.535 195.835 324.908 195.895 325.274C195.967 325.628 196.172 325.94 196.469 326.146C196.742 326.317 197.064 326.394 197.385 326.367C197.803 326.33 198.194 326.146 198.489 325.848C198.895 325.412 199.154 324.86 199.229 324.269C199.341 323.619 199.207 322.95 198.853 322.392Z" fill="#F5F5F5"/>
<path d="M199.748 326.864C199.687 327.125 199.687 327.397 199.748 327.659C199.77 327.793 199.825 327.919 199.908 328.027C199.991 328.135 200.099 328.221 200.222 328.277C200.448 328.328 200.684 328.312 200.9 328.229C201.116 328.147 201.303 328.002 201.437 327.813C201.763 327.479 202.002 327.069 202.132 326.621C202.197 326.397 202.215 326.162 202.187 325.93C202.158 325.699 202.083 325.476 201.967 325.274C200.984 323.673 199.88 326.069 199.748 326.864Z" fill="#F5F5F5"/>
<path d="M200.642 410.425C201.382 407.82 201.812 404.961 200.83 402.432C197.794 394.561 185.252 397.067 184.424 405.082L200.642 410.425Z" fill="#F5F5F5"/>
<path d="M182.68 395.875C183.008 396.499 183.515 397.011 184.137 397.343C184.501 397.579 184.919 397.717 185.352 397.746C185.785 397.775 186.218 397.694 186.61 397.509C186.933 397.255 187.198 396.936 187.388 396.573C187.578 396.209 187.689 395.81 187.714 395.4C187.909 394.403 187.825 393.371 187.471 392.419C187.288 391.944 186.991 391.521 186.606 391.188C186.221 390.855 185.76 390.622 185.263 390.509C184.767 390.421 184.255 390.506 183.813 390.749C183.371 390.992 183.026 391.379 182.834 391.845C182.377 393.142 182.323 394.547 182.68 395.875Z" fill="#F5F5F5"/>
<path d="M193.256 391.801C193.125 391.406 192.882 391.058 192.557 390.8C192.231 390.541 191.837 390.382 191.424 390.344C191.008 390.33 190.599 390.44 190.247 390.66C189.895 390.88 189.616 391.201 189.447 391.58C189.35 391.832 189.269 392.09 189.204 392.353C189.093 392.772 189.026 393.201 189.006 393.634C188.978 394.065 189.066 394.495 189.26 394.881C189.522 395.322 189.905 395.679 190.364 395.908C190.654 396.062 190.978 396.143 191.308 396.143C191.637 396.143 191.961 396.062 192.252 395.908C192.541 395.711 192.788 395.459 192.978 395.165C193.167 394.871 193.296 394.541 193.356 394.197C193.554 393.405 193.519 392.573 193.256 391.801Z" fill="#F5F5F5"/>
<path d="M198.224 392.85C198.134 392.486 197.918 392.166 197.615 391.946C197.313 391.726 196.942 391.62 196.568 391.646C196.195 391.7 195.84 391.844 195.534 392.065C195.228 392.286 194.981 392.578 194.813 392.916C194.713 393.136 194.625 393.361 194.548 393.589C194.423 393.964 194.349 394.354 194.327 394.749C194.305 395.138 194.405 395.524 194.614 395.853C194.858 396.198 195.206 396.457 195.608 396.592C195.856 396.693 196.123 396.737 196.39 396.722C196.658 396.706 196.918 396.632 197.153 396.504C197.695 396.148 198.088 395.606 198.257 394.98C198.481 394.286 198.47 393.537 198.224 392.85Z" fill="#F5F5F5"/>
<path d="M202.353 395.047C202.044 394.119 201.459 393.943 200.83 394.097C200.186 394.337 199.647 394.794 199.306 395.389C199.196 395.582 199.096 395.781 199.008 395.985C198.873 396.316 198.791 396.666 198.765 397.023C198.744 397.379 198.858 397.73 199.085 398.005C199.304 398.243 199.595 398.402 199.913 398.458C200.327 398.539 200.755 398.464 201.117 398.248C201.615 397.928 202 397.462 202.221 396.912C202.49 396.327 202.537 395.664 202.353 395.047Z" fill="#F5F5F5"/>
<path d="M202.088 399.595C201.953 399.828 201.874 400.089 201.856 400.357C201.845 400.492 201.867 400.627 201.919 400.752C201.97 400.877 202.051 400.987 202.154 401.075C202.359 401.182 202.59 401.227 202.82 401.204C203.05 401.18 203.268 401.089 203.446 400.942C203.846 400.7 204.182 400.367 204.429 399.971C204.548 399.77 204.626 399.547 204.658 399.316C204.69 399.085 204.676 398.849 204.616 398.624C204.042 396.824 202.441 398.878 202.088 399.595Z" fill="#F5F5F5"/>
<path d="M157.122 363.561C157.531 366.773 156.018 370.052 156.791 373.199C157.354 375.66 159.153 377.615 160.39 379.823C161.626 382.031 162.212 385.033 160.489 386.888C159.85 387.489 159.061 387.909 158.205 388.103C157.349 388.297 156.457 388.259 155.621 387.992C153.959 387.423 152.449 386.483 151.205 385.243C146.437 380.922 142.92 375.396 141.026 369.246C140.231 366.652 139.745 363.815 140.672 361.264C143.576 353.327 156.14 355.579 157.122 363.561Z" fill="#F5F5F5"/>
<path d="M158.679 354.331C158.369 354.959 157.876 355.478 157.266 355.822C156.907 356.068 156.491 356.218 156.058 356.256C155.625 356.295 155.189 356.221 154.793 356.042C154.456 355.801 154.177 355.489 153.973 355.129C153.769 354.769 153.646 354.368 153.611 353.956C153.398 352.961 153.459 351.927 153.788 350.964C153.967 350.483 154.262 350.053 154.647 349.714C155.033 349.375 155.496 349.137 155.996 349.021C156.491 348.921 157.005 348.993 157.453 349.226C157.901 349.459 158.256 349.839 158.458 350.302C158.767 351.328 159.153 353.327 158.679 354.331Z" fill="#F5F5F5"/>
<path d="M148.069 350.478C148.191 350.08 148.426 349.726 148.745 349.46C149.065 349.193 149.455 349.025 149.869 348.977C150.284 348.956 150.696 349.059 151.052 349.273C151.408 349.488 151.692 349.803 151.867 350.18C151.974 350.427 152.062 350.682 152.132 350.942C152.251 351.356 152.325 351.782 152.353 352.212C152.393 352.644 152.313 353.08 152.121 353.47C151.876 353.943 151.49 354.329 151.017 354.574C150.733 354.741 150.412 354.835 150.083 354.848C149.753 354.862 149.426 354.794 149.129 354.651C148.841 354.456 148.595 354.205 148.405 353.913C148.215 353.621 148.086 353.294 148.025 352.951C147.785 352.142 147.801 351.278 148.069 350.478Z" fill="#F5F5F5"/>
<path d="M143.079 351.626C143.161 351.256 143.373 350.927 143.677 350.7C143.981 350.472 144.357 350.363 144.735 350.39C145.109 350.436 145.465 350.571 145.775 350.784C146.084 350.998 146.337 351.283 146.513 351.615C146.619 351.834 146.711 352.059 146.789 352.289C146.924 352.662 147.009 353.052 147.043 353.448C147.065 353.835 146.969 354.221 146.767 354.552C146.531 354.902 146.191 355.169 145.795 355.314C145.55 355.42 145.284 355.47 145.016 355.461C144.749 355.451 144.487 355.382 144.25 355.259C143.71 354.911 143.317 354.376 143.146 353.757C142.889 353.074 142.866 352.325 143.079 351.626Z" fill="#F5F5F5"/>
<path d="M138.994 353.912C139.293 352.984 139.867 352.808 140.507 352.929C141.155 353.158 141.702 353.608 142.053 354.199C142.168 354.387 142.271 354.582 142.362 354.784C142.51 355.108 142.6 355.455 142.627 355.811C142.661 356.168 142.554 356.525 142.329 356.804C142.115 357.045 141.828 357.208 141.512 357.268C141.099 357.359 140.667 357.296 140.297 357.091C139.785 356.783 139.38 356.324 139.138 355.777C138.866 355.193 138.815 354.53 138.994 353.912Z" fill="#F5F5F5"/>
<path d="M139.37 358.416C139.507 358.649 139.593 358.909 139.624 359.178C139.636 359.313 139.616 359.45 139.567 359.576C139.517 359.703 139.438 359.816 139.337 359.906C139.132 360.016 138.9 360.063 138.669 360.044C138.438 360.024 138.217 359.938 138.034 359.796C137.63 359.566 137.288 359.24 137.04 358.847C136.915 358.648 136.832 358.427 136.796 358.195C136.759 357.963 136.771 357.727 136.831 357.5C137.349 355.722 138.994 357.743 139.37 358.416Z" fill="#F5F5F5"/>
<path d="M130.03 98.5234C127.489 98.8805 124.9 98.4763 122.589 97.3617C120.278 96.2471 118.349 94.4723 117.047 92.2616C115.745 90.051 115.128 87.5038 115.273 84.9422C115.419 82.3807 116.32 79.9198 117.864 77.8708C119.409 75.8218 121.526 74.2766 123.948 73.4308C126.37 72.585 128.989 72.4765 131.473 73.119C133.957 73.7615 136.194 75.1262 137.903 77.0405C139.611 78.9547 140.713 81.3326 141.07 83.8733C141.543 87.279 140.646 90.7332 138.577 93.4791C136.507 96.2251 133.434 98.0389 130.03 98.5234ZM127.403 79.645C126.21 79.8093 125.094 80.3235 124.194 81.1226C123.294 81.9217 122.652 82.9697 122.348 84.134C122.044 85.2984 122.092 86.5267 122.486 87.6637C122.88 88.8007 123.603 89.7952 124.562 90.5215C125.522 91.2477 126.675 91.673 127.876 91.7436C129.078 91.8142 130.273 91.5268 131.311 90.918C132.349 90.3091 133.183 89.406 133.708 88.323C134.232 87.24 134.424 86.0257 134.258 84.8338C134.034 83.2382 133.186 81.7966 131.902 80.8242C130.617 79.8518 128.999 79.4278 127.403 79.645Z" fill="#E0E0E0"/>
<path d="M125.167 46.981L120.291 47.662L124.672 79.0313L129.548 78.3503L125.167 46.981Z" fill="#E0E0E0"/>
<path d="M129.292 42.615L120.144 43.9087L120.833 48.7833L129.981 47.4896L129.292 42.615Z" fill="#E0E0E0"/>
<path d="M130.044 49.2467L121.439 50.4469L122.119 55.3235L130.725 54.1233L130.044 49.2467Z" fill="#E0E0E0"/>
<path d="M131.298 58.0873L123.787 59.1349L124.467 64.0116L131.979 62.9639L131.298 58.0873Z" fill="#E0E0E0"/>
<path d="M233 428.619C351.219 428.619 447.055 423.024 447.055 416.122C447.055 409.22 351.219 403.625 233 403.625C114.781 403.625 18.9456 409.22 18.9456 416.122C18.9456 423.024 114.781 428.619 233 428.619Z" fill="#F5F5F5"/>
<path d="M119.807 208.577C129.985 197.944 128.832 180.322 117.231 169.216C105.629 158.111 87.9736 157.727 77.7954 168.359C67.6172 178.991 68.7709 196.614 80.3721 207.719C91.9733 218.825 109.629 219.209 119.807 208.577Z" fill="#89C400"/>
<g opacity="0.8">
<path d="M119.807 208.577C129.985 197.944 128.832 180.322 117.231 169.216C105.629 158.111 87.9736 157.727 77.7954 168.359C67.6172 178.991 68.7709 196.614 80.3721 207.719C91.9733 218.825 109.629 219.209 119.807 208.577Z" fill="white"/>
</g>
<path d="M85.8257 171.001C85.594 171.001 85.3681 170.928 85.1802 170.793C84.9922 170.657 84.8516 170.466 84.7783 170.246C84.7051 170.026 84.7028 169.789 84.7719 169.568C84.841 169.347 84.9779 169.153 85.1633 169.014C88.8808 166.346 93.3615 164.951 97.9366 165.039C98.2294 165.039 98.5102 165.156 98.7172 165.363C98.9242 165.57 99.0406 165.851 99.0406 166.143C99.0406 166.436 98.9242 166.717 98.7172 166.924C98.5102 167.131 98.2294 167.247 97.9366 167.247C93.8389 167.157 89.8223 168.397 86.4881 170.78C86.297 170.923 86.0646 171.001 85.8257 171.001Z" fill="#89C400"/>
<path d="M91.0478 208.979C90.8666 208.978 90.6884 208.932 90.5289 208.846C87.1456 207.037 84.2098 204.494 81.9366 201.403C79.6634 198.312 78.1104 194.752 77.3914 190.983C76.6899 187.723 76.7222 184.348 77.486 181.102C78.2498 177.856 79.7258 174.821 81.8074 172.215C81.9947 171.99 82.264 171.848 82.5559 171.821C82.8479 171.794 83.1385 171.884 83.364 172.072C83.5894 172.259 83.7312 172.528 83.7581 172.82C83.7851 173.112 83.6949 173.403 83.5075 173.628C81.6272 175.987 80.2958 178.734 79.6103 181.671C78.9247 184.608 78.9021 187.661 79.5441 190.608C80.2055 194.053 81.6269 197.307 83.7048 200.134C85.7827 202.961 88.4647 205.288 91.5557 206.947C91.7715 207.064 91.9424 207.249 92.0414 207.473C92.1404 207.698 92.1618 207.949 92.1024 208.186C92.0429 208.424 91.9058 208.636 91.7129 208.787C91.5199 208.939 91.2821 209.021 91.0368 209.023L91.0478 208.979Z" fill="#89C400"/>
<path d="M102.099 211.86C99.6276 211.849 97.1732 211.454 94.8234 210.69C94.6849 210.645 94.5567 210.573 94.4459 210.479C94.3352 210.384 94.2442 210.269 94.1781 210.139C94.112 210.009 94.072 209.868 94.0606 209.723C94.0491 209.578 94.0663 209.432 94.1113 209.293C94.1562 209.155 94.228 209.026 94.3225 208.916C94.417 208.805 94.5324 208.714 94.6621 208.648C94.7918 208.582 94.9332 208.542 95.0783 208.53C95.2234 208.519 95.3694 208.536 95.5078 208.581C102.297 210.789 109.076 209.553 114.099 205.269C116.648 203.02 118.573 200.152 119.691 196.942C120.809 193.732 121.081 190.288 120.48 186.943C120.433 186.65 120.505 186.35 120.679 186.11C120.853 185.87 121.115 185.709 121.408 185.662C121.7 185.615 122 185.687 122.24 185.861C122.48 186.034 122.641 186.297 122.688 186.589C123.358 190.307 123.054 194.135 121.806 197.7C120.558 201.265 118.409 204.447 115.568 206.936C111.824 210.157 107.037 211.907 102.099 211.86Z" fill="#89C400"/>
<path d="M120.668 184.116C120.434 184.116 120.206 184.04 120.017 183.901C119.829 183.762 119.689 183.567 119.619 183.344C118.604 180.209 116.941 177.322 114.739 174.87C112.536 172.419 109.844 170.457 106.835 169.113C106.566 168.996 106.354 168.777 106.246 168.503C106.138 168.23 106.144 167.925 106.261 167.656C106.378 167.386 106.597 167.175 106.871 167.067C107.144 166.959 107.449 166.965 107.718 167.082C111.013 168.555 113.962 170.704 116.373 173.389C118.785 176.074 120.605 179.236 121.717 182.67C121.807 182.948 121.784 183.251 121.651 183.512C121.519 183.773 121.288 183.97 121.01 184.061C120.899 184.095 120.784 184.113 120.668 184.116Z" fill="#89C400"/>
<path d="M103.269 167.866C103.185 167.877 103.099 167.877 103.015 167.866C101.354 167.479 99.6536 167.282 97.9477 167.28C97.655 167.28 97.3741 167.164 97.1671 166.957C96.9601 166.75 96.8438 166.469 96.8438 166.176C96.8438 165.884 96.9601 165.603 97.1671 165.396C97.3741 165.189 97.655 165.072 97.9477 165.072C99.8066 165.078 101.659 165.297 103.468 165.724C103.761 165.757 104.028 165.906 104.211 166.137C104.394 166.368 104.478 166.662 104.445 166.955C104.411 167.248 104.263 167.515 104.032 167.698C103.801 167.881 103.507 167.965 103.214 167.932L103.269 167.866Z" fill="#89C400"/>
<path d="M83.7945 194.24C83.5689 194.241 83.3485 194.172 83.163 194.044C82.9775 193.916 82.8357 193.734 82.7567 193.523C81.7219 190.851 81.3579 187.967 81.6966 185.122C82.0354 182.277 83.0665 179.559 84.6998 177.205C86.2436 174.976 88.3113 173.159 90.7214 171.916C93.1315 170.672 95.8101 170.04 98.5218 170.074C98.8146 170.074 99.0954 170.19 99.3025 170.397C99.5095 170.604 99.6258 170.885 99.6258 171.178C99.6258 171.47 99.5095 171.751 99.3025 171.958C99.0954 172.165 98.8146 172.282 98.5218 172.282C96.1657 172.254 93.8385 172.803 91.743 173.88C89.6476 174.958 87.8474 176.531 86.4993 178.464C85.0671 180.537 84.166 182.929 83.8754 185.432C83.5847 187.935 83.9133 190.47 84.8322 192.816C84.9322 193.09 84.9199 193.392 84.7978 193.657C84.6758 193.922 84.454 194.127 84.1809 194.229C84.0536 194.254 83.923 194.258 83.7945 194.24Z" fill="#89C400"/>
<path d="M101.304 206.848C97.9947 206.737 94.7612 205.829 91.8782 204.201C88.9951 202.573 86.5476 200.273 84.7438 197.497C84.6098 197.253 84.5729 196.968 84.6404 196.698C84.7079 196.428 84.875 196.193 85.108 196.041C85.3411 195.889 85.623 195.83 85.8973 195.877C86.1716 195.924 86.4182 196.073 86.5875 196.294C88.1907 198.764 90.3649 200.811 92.9263 202.264C95.4877 203.717 98.3612 204.532 101.304 204.64C101.597 204.64 101.877 204.756 102.084 204.963C102.292 205.17 102.408 205.451 102.408 205.744C102.408 206.037 102.292 206.317 102.084 206.524C101.877 206.732 101.597 206.848 101.304 206.848Z" fill="#89C400"/>
<path d="M105.433 206.373C105.181 206.38 104.934 206.301 104.733 206.149C104.532 205.996 104.389 205.779 104.329 205.534C104.259 205.25 104.304 204.95 104.456 204.699C104.607 204.449 104.851 204.269 105.135 204.198C114.088 201.99 116.407 194.141 115.667 188.113C114.707 180.253 108.502 172.293 98.4888 172.282C98.196 172.282 97.9152 172.165 97.7081 171.958C97.5011 171.751 97.3848 171.47 97.3848 171.178C97.3848 170.885 97.5011 170.604 97.7081 170.397C97.9152 170.19 98.196 170.074 98.4888 170.074C109.783 170.074 116.782 179.016 117.864 187.848C118.968 196.956 114.188 204.22 105.665 206.34C105.589 206.359 105.511 206.37 105.433 206.373Z" fill="#89C400"/>
<path d="M94.0064 178.376C93.7971 178.374 93.5926 178.313 93.4167 178.2C93.2408 178.086 93.1007 177.925 93.0128 177.735C92.8884 177.47 92.8744 177.167 92.9738 176.891C93.0731 176.616 93.2778 176.391 93.5427 176.267C95.2352 175.518 97.0687 175.142 98.9192 175.163C99.212 175.163 99.4928 175.279 99.6999 175.486C99.9069 175.693 100.023 175.974 100.023 176.267C100.023 176.56 99.9069 176.841 99.6999 177.048C99.4928 177.255 99.212 177.371 98.9192 177.371C97.3955 177.372 95.8897 177.7 94.5032 178.331C94.3432 178.384 94.1732 178.399 94.0064 178.376Z" fill="#89C400"/>
<path d="M101.105 201.703C98.309 201.658 95.5844 200.813 93.2541 199.267C90.9237 197.721 89.0852 195.54 87.9565 192.982C85.6712 188.003 86.3446 182.803 89.756 179.049C89.9539 178.834 90.2289 178.707 90.5206 178.695C90.8124 178.682 91.0972 178.786 91.3126 178.983C91.5273 179.181 91.6548 179.456 91.6672 179.748C91.6796 180.039 91.5759 180.324 91.3789 180.54C90.0071 182.091 89.1378 184.022 88.8855 186.078C88.6332 188.133 89.0099 190.217 89.9658 192.054C90.9415 194.284 92.5509 196.178 94.5942 197.501C96.6374 198.824 99.0244 199.518 101.458 199.495C103.3 199.482 105.098 198.936 106.636 197.923C108.173 196.91 109.385 195.474 110.125 193.788C110.956 191.798 111.207 189.614 110.847 187.488C110.488 185.362 109.533 183.381 108.093 181.776C107.999 181.666 107.928 181.538 107.883 181.4C107.838 181.262 107.82 181.117 107.832 180.973C107.843 180.828 107.883 180.687 107.948 180.558C108.014 180.429 108.105 180.314 108.215 180.219C108.325 180.125 108.453 180.054 108.591 180.009C108.728 179.964 108.874 179.946 109.018 179.958C109.163 179.969 109.304 180.009 109.433 180.074C109.562 180.14 109.677 180.231 109.772 180.341C111.485 182.263 112.618 184.632 113.038 187.173C113.458 189.713 113.149 192.321 112.145 194.693C111.239 196.762 109.755 198.525 107.871 199.771C105.987 201.016 103.783 201.691 101.525 201.714L101.105 201.703Z" fill="#89C400"/>
<path d="M105.753 179.347C105.545 179.348 105.341 179.287 105.168 179.171C103.304 177.971 101.136 177.327 98.9192 177.316C98.6264 177.316 98.3456 177.2 98.1385 176.992C97.9315 176.785 97.8152 176.505 97.8152 176.212C97.8152 175.919 97.9315 175.638 98.1385 175.431C98.3456 175.224 98.6264 175.108 98.9192 175.108C101.556 175.118 104.135 175.884 106.349 177.316C106.549 177.445 106.702 177.635 106.785 177.859C106.868 178.082 106.876 178.326 106.809 178.554C106.742 178.783 106.603 178.983 106.413 179.126C106.223 179.269 105.991 179.347 105.753 179.347Z" fill="#89C400"/>
<path d="M100.52 196.724C99.23 196.715 97.9576 196.424 96.7922 195.871C95.6269 195.318 94.5968 194.516 93.7745 193.523C92.7134 192.308 92.0242 190.814 91.7893 189.218C91.5544 187.623 91.7837 185.994 92.4497 184.525C93.0442 183.192 94.0171 182.063 95.2477 181.278C96.4782 180.493 97.9123 180.086 99.3718 180.109C99.6646 180.109 99.9454 180.225 100.152 180.432C100.359 180.639 100.476 180.92 100.476 181.213C100.476 181.506 100.359 181.787 100.152 181.994C99.9454 182.201 99.6646 182.317 99.3718 182.317C98.3394 182.298 97.3241 182.582 96.4511 183.133C95.5781 183.684 94.8856 184.479 94.459 185.419C93.9735 186.503 93.8102 187.704 93.9883 188.879C94.1664 190.053 94.6785 191.152 95.4636 192.043C96.2451 193.001 97.2827 193.717 98.4554 194.108C99.6281 194.499 100.888 194.548 102.088 194.251C103.064 194.031 103.956 193.536 104.659 192.824C105.362 192.111 105.845 191.212 106.051 190.233C106.114 189.947 106.288 189.699 106.534 189.542C106.781 189.384 107.079 189.331 107.365 189.394C107.507 189.424 107.642 189.482 107.762 189.564C107.881 189.646 107.984 189.752 108.063 189.874C108.142 189.996 108.196 190.132 108.222 190.275C108.248 190.418 108.246 190.565 108.215 190.707C107.922 192.089 107.241 193.358 106.252 194.365C105.262 195.373 104.005 196.076 102.629 196.393C101.941 196.587 101.233 196.698 100.52 196.724Z" fill="#89C400"/>
<path d="M106.945 187.98C106.702 187.992 106.461 187.922 106.262 187.782C106.062 187.642 105.914 187.44 105.841 187.208C105.401 185.824 104.54 184.613 103.378 183.742C102.216 182.872 100.812 182.385 99.3608 182.35C99.068 182.35 98.7872 182.234 98.5802 182.027C98.3731 181.82 98.2568 181.539 98.2568 181.246C98.2568 180.953 98.3731 180.672 98.5802 180.465C98.7872 180.258 99.068 180.142 99.3608 180.142C101.28 180.185 103.139 180.824 104.678 181.972C106.217 183.119 107.361 184.718 107.95 186.545C107.995 186.684 108.011 186.83 107.999 186.975C107.987 187.12 107.947 187.261 107.88 187.39C107.814 187.519 107.722 187.634 107.611 187.728C107.5 187.822 107.371 187.892 107.232 187.936C107.139 187.964 107.043 187.978 106.945 187.98Z" fill="#89C400"/>
<path d="M100.818 192.132C100.525 192.132 100.245 192.015 100.037 191.808C99.8305 191.601 99.7141 191.32 99.7141 191.028C99.7141 190.735 99.8305 190.454 100.037 190.247C100.245 190.04 100.525 189.924 100.818 189.924C100.969 189.924 101.118 189.893 101.257 189.834C101.395 189.774 101.52 189.687 101.623 189.577C101.727 189.467 101.806 189.338 101.858 189.196C101.909 189.054 101.931 188.904 101.922 188.753C101.928 188.538 101.891 188.324 101.814 188.124C101.736 187.923 101.619 187.74 101.47 187.585C101.321 187.43 101.143 187.306 100.946 187.22C100.749 187.135 100.536 187.089 100.321 187.086C100.159 187.091 99.9999 187.127 99.8521 187.193C99.7043 187.26 99.5711 187.355 99.4602 187.473C99.3471 187.606 99.2615 187.761 99.2085 187.927C99.1554 188.094 99.1359 188.27 99.1511 188.444C99.1598 188.589 99.1399 188.734 99.0924 188.872C99.045 189.009 98.971 189.136 98.8746 189.244C98.7782 189.353 98.6614 189.441 98.5308 189.505C98.4002 189.569 98.2583 189.606 98.1133 189.614C97.9684 189.623 97.8231 189.603 97.6858 189.556C97.5485 189.508 97.422 189.434 97.3133 189.338C97.2046 189.242 97.116 189.125 97.0525 188.994C96.989 188.863 96.9518 188.722 96.9431 188.577C96.9038 188.113 96.9597 187.647 97.1072 187.206C97.2547 186.765 97.4908 186.359 97.801 186.013C98.1111 185.666 98.4888 185.387 98.9109 185.192C99.3329 184.997 99.7903 184.89 100.255 184.878C100.76 184.88 101.261 184.981 101.726 185.177C102.192 185.373 102.614 185.66 102.969 186.02C103.323 186.381 103.602 186.808 103.79 187.277C103.978 187.746 104.071 188.248 104.064 188.753C104.073 189.194 103.994 189.632 103.831 190.041C103.669 190.451 103.426 190.824 103.118 191.138C102.809 191.453 102.441 191.703 102.035 191.873C101.629 192.044 101.192 192.132 100.752 192.132H100.818Z" fill="#89C400"/>
<path d="M129.224 188.455C130.571 203.834 119.189 216.298 103.832 216.298H102.64C117.279 215.547 127.91 203.381 126.608 188.488C125.855 181.198 122.549 174.41 117.274 169.322C111.999 164.235 105.095 161.177 97.7822 160.69C98.1686 160.69 98.5661 160.69 98.9635 160.69C114.364 160.623 127.921 173.088 129.224 188.455Z" fill="#89C400"/>
<g opacity="0.4">
<path d="M129.224 188.455C130.571 203.834 119.189 216.298 103.832 216.298H102.64C117.279 215.547 127.91 203.381 126.608 188.488C125.855 181.198 122.549 174.41 117.274 169.322C111.999 164.235 105.095 161.177 97.7822 160.69C98.1686 160.69 98.5661 160.69 98.9635 160.69C114.364 160.623 127.921 173.088 129.224 188.455Z" fill="white"/>
</g>
<path d="M151.768 52.7626C151.795 53.0922 151.839 53.4201 151.9 53.7451C152.317 55.8723 153.409 57.8082 155.013 59.2651C156.832 60.9678 159.224 61.9253 161.715 61.9479H254.992C256.08 61.9698 257.163 61.7751 258.176 61.3749C259.188 60.9747 260.112 60.3771 260.891 59.6169C261.671 58.8567 262.292 57.949 262.718 56.9466C263.143 55.9443 263.365 54.8673 263.371 53.7783C263.387 53.4509 263.387 53.123 263.371 52.7957C263.111 50.3238 261.958 48.0317 260.129 46.3489C258.3 44.6661 255.92 43.7081 253.435 43.6546H160.136C158.966 43.6309 157.805 43.8564 156.729 44.316C155.654 44.7755 154.688 45.4587 153.896 46.3202C153.105 47.1816 152.506 48.2015 152.139 49.3123C151.772 50.423 151.645 51.5992 151.768 52.7626Z" fill="#89C400"/>
<path opacity="0.8" d="M151.768 52.7626C151.795 53.0922 151.839 53.4201 151.9 53.7451C152.317 55.8723 153.409 57.8082 155.013 59.2651C156.832 60.9678 159.224 61.9253 161.715 61.9479H254.992C256.08 61.9698 257.163 61.7751 258.176 61.3749C259.188 60.9747 260.112 60.3771 260.891 59.6169C261.671 58.8567 262.292 57.949 262.718 56.9466C263.143 55.9443 263.365 54.8673 263.371 53.7783C263.387 53.4509 263.387 53.123 263.371 52.7957C263.111 50.3238 261.958 48.0317 260.129 46.3489C258.3 44.6661 255.92 43.7081 253.435 43.6546H160.136C158.966 43.6309 157.805 43.8564 156.729 44.316C155.654 44.7755 154.688 45.4587 153.896 46.3202C153.105 47.1816 152.506 48.2015 152.139 49.3123C151.772 50.423 151.645 51.5992 151.768 52.7626Z" fill="white"/>
<path d="M263.371 53.712C263.371 54.0076 263.349 54.3029 263.305 54.5952C262.976 52.1793 261.793 49.9609 259.971 48.341C258.148 46.7211 255.807 45.8068 253.369 45.7632L154.197 45.984C154.983 45.2192 155.912 44.6169 156.931 44.2115C157.95 43.8062 159.039 43.6056 160.136 43.6214H253.413C255.898 43.6749 258.278 44.6329 260.107 46.3157C261.936 47.9985 263.089 50.2907 263.349 52.7625C263.372 53.0785 263.379 53.3953 263.371 53.712Z" fill="#89C400"/>
<path opacity="0.5" d="M263.371 53.712C263.371 54.0076 263.349 54.3029 263.305 54.5952C262.976 52.1793 261.793 49.9609 259.971 48.341C258.148 46.7211 255.807 45.8068 253.369 45.7632L154.197 45.984C154.983 45.2192 155.912 44.6169 156.931 44.2115C157.95 43.8062 159.039 43.6056 160.136 43.6214H253.413C255.898 43.6749 258.278 44.6329 260.107 46.3157C261.936 47.9985 263.089 50.2907 263.349 52.7625C263.372 53.0785 263.379 53.3953 263.371 53.712Z" fill="white"/>
<path d="M247.352 48.0374L247.749 52.4534L251.9 50.9078L252.883 53.1158L248.644 54.529L251.691 58.2715L249.781 59.6736L246.811 55.7875L244.603 59.6736L242.516 58.2715L244.868 54.529L240.452 53.1158L241.048 50.9078L245.519 52.3982L245.122 47.9822L247.352 48.0374Z" fill="#89C400"/>
<path d="M221.794 48.0375L222.192 52.4535L226.343 50.9079L227.336 53.1159L223.064 54.5621L226.111 58.3047L224.212 59.7067L221.242 55.8207L219.034 59.7067L216.937 58.3047L219.299 54.5621L214.883 53.149L215.479 50.941L219.951 52.4314L219.564 48.0154L221.794 48.0375Z" fill="#89C400"/>
<path d="M196.292 48.0375L196.678 52.4535L200.83 50.9079L201.823 53.1159L197.573 54.529L200.62 58.2715L198.776 59.7067L195.806 55.8207L193.598 59.7067L191.512 58.3047L193.863 54.5621L189.447 53.149L190.054 50.941L194.47 52.4314L194.084 48.0154L196.292 48.0375Z" fill="#89C400"/>
<path d="M170.779 48.0374L171.165 52.4534L175.327 50.9078L176.31 53.1158L172.059 54.529L175.117 58.2715L173.207 59.6736L170.238 55.7875L168.03 59.6736L165.943 58.2715L168.295 54.529L163.879 53.1158L164.475 50.9078L168.891 52.3982L168.504 47.9822L170.779 48.0374Z" fill="#89C400"/>
<path d="M232.614 39.2938H228.264V40.3978H232.614V39.2938Z" fill="#89C400"/>
<path d="M251.304 39.2938H237.118V40.3978H251.304V39.2938Z" fill="#89C400"/>
<path opacity="0.8" d="M396.16 80.4729L391.645 132.096C391.471 133.744 390.702 135.271 389.483 136.393C388.264 137.515 386.677 138.154 385.021 138.19H349.174C348.398 138.194 347.63 138.035 346.92 137.722C346.21 137.41 345.574 136.951 345.053 136.376C344.532 135.801 344.138 135.123 343.897 134.385C343.656 133.648 343.573 132.868 343.654 132.096L348.169 80.4619C348.337 78.8116 349.103 77.2799 350.324 76.1568C351.545 75.0337 353.135 74.3972 354.793 74.3678H390.64C391.417 74.3634 392.186 74.5231 392.897 74.8364C393.608 75.1496 394.245 75.6094 394.766 76.1857C395.287 76.7619 395.68 77.4417 395.921 78.1805C396.161 78.9192 396.243 79.7004 396.16 80.4729Z" fill="#89C400"/>
<path opacity="0.8" d="M396.16 80.4729L391.645 132.096C391.471 133.744 390.702 135.271 389.483 136.393C388.264 137.515 386.677 138.154 385.021 138.19H349.174C348.398 138.194 347.63 138.035 346.92 137.722C346.21 137.41 345.574 136.951 345.053 136.376C344.532 135.801 344.138 135.123 343.897 134.385C343.656 133.648 343.573 132.868 343.654 132.096L348.169 80.4619C348.337 78.8116 349.103 77.2799 350.324 76.1568C351.545 75.0337 353.135 74.3972 354.793 74.3678H390.64C391.417 74.3634 392.186 74.5231 392.897 74.8364C393.608 75.1496 394.245 75.6094 394.766 76.1857C395.287 76.7619 395.68 77.4417 395.921 78.1805C396.161 78.9192 396.243 79.7004 396.16 80.4729Z" fill="white"/>
<path d="M351.437 88.7971H351.338C351.047 88.7718 350.777 88.6321 350.589 88.4086C350.401 88.1851 350.309 87.896 350.333 87.6048L350.753 82.8797C350.778 82.6044 350.905 82.3485 351.109 82.1625C351.314 81.9765 351.58 81.8739 351.857 81.875H356.847C357.14 81.875 357.42 81.9913 357.627 82.1984C357.835 82.4054 357.951 82.6862 357.951 82.979C357.951 83.2718 357.835 83.5526 357.627 83.7597C357.42 83.9667 357.14 84.083 356.847 84.083H352.872L352.541 87.7924C352.516 88.0677 352.389 88.3236 352.185 88.5096C351.98 88.6956 351.714 88.7982 351.437 88.7971Z" fill="#89C400"/>
<path d="M391.579 88.7971H391.479C391.188 88.7718 390.919 88.6321 390.73 88.4086C390.542 88.1851 390.45 87.896 390.475 87.6048L390.784 84.083H387.008C386.715 84.083 386.434 83.9667 386.227 83.7597C386.02 83.5526 385.904 83.2718 385.904 82.979C385.904 82.6862 386.02 82.4054 386.227 82.1984C386.434 81.9913 386.715 81.875 387.008 81.875H391.976C392.13 81.8744 392.282 81.9059 392.423 81.9675C392.564 82.0291 392.69 82.1194 392.794 82.2327C392.898 82.3459 392.977 82.4797 393.026 82.6253C393.076 82.7709 393.094 82.9253 393.08 83.0784L392.661 87.7925C392.636 88.0639 392.512 88.3168 392.312 88.5022C392.112 88.6877 391.851 88.7927 391.579 88.7971Z" fill="#89C400"/>
<path d="M353.336 124.423H348.346C348.194 124.423 348.045 124.391 347.906 124.33C347.768 124.27 347.643 124.181 347.54 124.07C347.437 123.957 347.358 123.825 347.308 123.68C347.259 123.536 347.24 123.383 347.253 123.231L347.661 118.506C347.686 118.213 347.826 117.942 348.051 117.753C348.276 117.563 348.566 117.471 348.859 117.496C349.152 117.52 349.423 117.661 349.612 117.885C349.802 118.11 349.894 118.401 349.869 118.693L349.56 122.215H353.336C353.629 122.215 353.91 122.331 354.117 122.539C354.324 122.746 354.44 123.026 354.44 123.319C354.44 123.612 354.324 123.893 354.117 124.1C353.91 124.307 353.629 124.423 353.336 124.423Z" fill="#89C400"/>
<path d="M388.454 124.423H383.475C383.182 124.423 382.902 124.307 382.694 124.1C382.487 123.893 382.371 123.612 382.371 123.319C382.371 123.026 382.487 122.746 382.694 122.539C382.902 122.332 383.182 122.215 383.475 122.215H387.45L387.77 118.506C387.795 118.215 387.935 117.945 388.158 117.757C388.382 117.569 388.671 117.477 388.962 117.501C389.253 117.526 389.522 117.666 389.711 117.89C389.899 118.113 389.991 118.402 389.967 118.693L389.558 123.419C389.533 123.694 389.406 123.95 389.202 124.136C388.997 124.322 388.731 124.424 388.454 124.423Z" fill="#89C400"/>
<path d="M384.654 106.623C387.147 96.9581 382.869 87.4989 375.099 85.4952C367.329 83.4916 359.01 89.7024 356.518 99.3674C354.025 109.032 358.304 118.492 366.073 120.495C373.843 122.499 382.162 116.288 384.654 106.623Z" fill="white"/>
<path d="M374.919 130.473H360.623L361.87 116.176H376.167L374.919 130.473Z" fill="white"/>
<path d="M391.645 132.096C391.471 133.744 390.702 135.271 389.483 136.393C388.264 137.515 386.677 138.154 385.021 138.19H349.174C348.398 138.194 347.63 138.035 346.92 137.722C346.21 137.41 345.574 136.951 345.053 136.376C344.532 135.801 344.138 135.123 343.897 134.385C343.656 133.648 343.573 132.868 343.654 132.096C343.654 132.096 360.126 126.885 362.157 126.885H374.886L391.645 132.096Z" fill="white"/>
<path d="M398.242 95.5596L396.572 115.838L397.672 115.928L399.343 95.6503L398.242 95.5596Z" fill="#89C400"/>
<path d="M399.404 86.2804L399.075 90.2634L400.176 90.354L400.504 86.371L399.404 86.2804Z" fill="#89C400"/>
<path d="M360.932 209.453H356.582V210.557H360.932V209.453Z" fill="#89C400"/>
<path d="M379.622 209.453H365.436V210.557H379.622V209.453Z" fill="#89C400"/>
<path d="M405.588 190.608L402.839 222.072C402.697 223.463 402.049 224.753 401.02 225.699C399.991 226.644 398.651 227.181 397.253 227.206C396.596 227.217 395.943 227.089 395.339 226.829C394.734 226.569 394.192 226.183 393.749 225.698C393.305 225.212 392.969 224.638 392.765 224.013C392.56 223.388 392.491 222.726 392.561 222.072L395.288 190.608C395.542 188.261 395.294 185.888 394.56 183.644C393.827 181.4 392.625 179.339 391.034 177.595C389.443 175.851 387.499 174.466 385.332 173.531C383.165 172.596 380.823 172.133 378.463 172.171H367.246C362.23 172.266 357.421 174.194 353.728 177.59C350.035 180.986 347.712 185.617 347.198 190.608L346.094 203.459H335.827L336.931 190.608C338.311 174.777 352.32 161.904 368.141 161.904H379.402C383.076 161.843 386.721 162.565 390.095 164.021C393.468 165.477 396.494 167.634 398.971 170.348C401.447 173.063 403.318 176.273 404.459 179.766C405.6 183.259 405.985 186.955 405.588 190.608Z" fill="#89C400"/>
<g opacity="0.5">
<path d="M405.588 190.608L402.839 222.072C402.697 223.463 402.049 224.753 401.02 225.699C399.991 226.644 398.651 227.181 397.253 227.206C396.596 227.217 395.943 227.089 395.339 226.829C394.734 226.569 394.192 226.183 393.749 225.698C393.305 225.212 392.969 224.638 392.765 224.013C392.56 223.388 392.491 222.726 392.561 222.072L395.288 190.608C395.542 188.261 395.294 185.888 394.56 183.644C393.827 181.4 392.625 179.339 391.034 177.595C389.443 175.851 387.499 174.466 385.332 173.531C383.165 172.596 380.823 172.133 378.463 172.171H367.246C362.23 172.266 357.421 174.194 353.728 177.59C350.035 180.986 347.712 185.617 347.198 190.608L346.094 203.459H335.827L336.931 190.608C338.311 174.777 352.32 161.904 368.141 161.904H379.402C383.076 161.843 386.721 162.565 390.095 164.021C393.468 165.477 396.494 167.634 398.971 170.348C401.447 173.063 403.318 176.273 404.459 179.766C405.6 183.259 405.985 186.955 405.588 190.608Z" fill="white"/>
</g>
<path d="M406.328 220.924L400.974 282.24C400.779 284.141 399.894 285.905 398.486 287.197C397.078 288.489 395.245 289.22 393.334 289.25H332.018C331.12 289.267 330.229 289.092 329.403 288.737C328.578 288.382 327.838 287.855 327.233 287.192C326.627 286.529 326.169 285.744 325.89 284.89C325.611 284.036 325.517 283.133 325.615 282.24L330.98 220.924C331.103 219.701 331.514 218.525 332.178 217.491C332.841 216.457 333.74 215.594 334.8 214.973C335.951 214.269 337.27 213.887 338.62 213.869H399.925C401.177 213.862 402.406 214.211 403.469 214.874C404.461 215.517 405.253 216.424 405.759 217.492C406.264 218.561 406.461 219.749 406.328 220.924Z" fill="#89C400"/>
<path d="M342.572 247.707L358.503 272.227L411.042 219.687C411.123 219.59 411.167 219.467 411.165 219.34C411.163 219.213 411.116 219.091 411.031 218.996C410.947 218.901 410.832 218.84 410.706 218.823C410.581 218.806 410.453 218.834 410.347 218.904L360.28 258.151L350.819 242.904L342.572 247.707Z" fill="white"/>
<path d="M91.688 129.126H51.7453C49.8971 129.093 48.1253 128.383 46.7645 127.133C45.4036 125.882 44.5481 124.175 44.3595 122.337L40.904 82.416C40.8081 81.5516 40.8976 80.6766 41.1667 79.8495C41.4357 79.0224 41.8781 78.2623 42.4643 77.6197C43.0504 76.9771 43.7669 76.4669 44.5658 76.1232C45.3648 75.7795 46.2278 75.6101 47.0974 75.6264H86.996C88.8372 75.6683 90.5996 76.3815 91.9517 77.6319C93.3038 78.8823 94.1523 80.5837 94.3376 82.416L97.8262 122.315C97.9249 123.176 97.8392 124.049 97.575 124.875C97.3107 125.7 96.8738 126.461 96.2933 127.105C95.7129 127.749 95.0021 128.262 94.2081 128.611C93.4141 128.959 92.5551 129.135 91.688 129.126Z" fill="#89C400"/>
<path opacity="0.8" d="M91.688 129.126H51.7453C49.8971 129.093 48.1253 128.383 46.7645 127.133C45.4036 125.882 44.5481 124.175 44.3595 122.337L40.904 82.416C40.8081 81.5516 40.8976 80.6766 41.1667 79.8495C41.4357 79.0224 41.8781 78.2623 42.4643 77.6197C43.0504 76.9771 43.7669 76.4669 44.5658 76.1232C45.3648 75.7795 46.2278 75.6101 47.0974 75.6264H86.996C88.8372 75.6683 90.5996 76.3815 91.9517 77.6319C93.3038 78.8823 94.1523 80.5837 94.3376 82.416L97.8262 122.315C97.9249 123.176 97.8392 124.049 97.575 124.875C97.3107 125.7 96.8738 126.461 96.2933 127.105C95.7129 127.749 95.0021 128.262 94.2081 128.611C93.4141 128.959 92.5551 129.135 91.688 129.126Z" fill="white"/>
<path d="M44.3816 106.406C44.3816 106.406 58.568 86.6554 69.0118 87.1632C79.4557 87.671 96.8105 105.931 96.8105 105.931C96.8105 105.931 71.2309 119.367 44.3816 106.406Z" fill="white"/>
<path d="M44.8342 106.704L43.9399 106.064C44.514 105.258 58.038 86.5781 68.6143 86.5781H69.0449C79.5991 87.086 96.4903 104.772 97.2079 105.523L96.4131 106.285C96.2364 106.108 79.1023 88.1679 68.9897 87.6821H68.6143C58.5679 87.7042 44.9667 106.538 44.8342 106.704Z" fill="#263238"/>
<path d="M42.9132 107.101C40.7715 107.101 37.9894 106.307 37.0069 103.282C36.9616 103.143 36.9733 102.991 37.0396 102.861C37.1058 102.73 37.2211 102.632 37.3601 102.586C37.4289 102.562 37.5018 102.552 37.5745 102.557C37.6472 102.562 37.7182 102.582 37.7831 102.615C37.8481 102.648 37.9057 102.693 37.9525 102.749C37.9994 102.805 38.0344 102.87 38.0556 102.939C39.3252 106.848 44.0725 105.909 44.2712 105.865C44.4143 105.839 44.5622 105.869 44.6836 105.949C44.8051 106.029 44.8907 106.153 44.9225 106.296C44.937 106.367 44.9374 106.44 44.9236 106.511C44.9098 106.582 44.8822 106.65 44.8422 106.71C44.8022 106.771 44.7507 106.823 44.6906 106.863C44.6305 106.904 44.563 106.932 44.492 106.947C43.972 107.05 43.4433 107.102 42.9132 107.101Z" fill="#263238"/>
<path d="M51.3367 98.6228C51.2135 98.6252 51.093 98.5863 50.9944 98.5124C50.8288 98.3799 46.9096 95.3549 45.916 92.2748C45.8708 92.1357 45.8825 91.9843 45.9488 91.8539C46.015 91.7235 46.1303 91.6247 46.2693 91.5792C46.4084 91.5369 46.5585 91.5501 46.6882 91.6159C46.8178 91.6818 46.917 91.7952 46.9648 91.9325C47.8591 94.6815 51.6237 97.6071 51.6679 97.6292C51.7833 97.7186 51.8585 97.8502 51.8772 97.995C51.8958 98.1399 51.8563 98.2862 51.7672 98.402C51.7169 98.469 51.652 98.5238 51.5774 98.5621C51.5028 98.6003 51.4205 98.6211 51.3367 98.6228Z" fill="#263238"/>
<path d="M59.4401 91.1045C59.2956 91.0962 59.1595 91.0336 59.0592 90.9291C58.9589 90.8247 58.9017 90.6863 58.8992 90.5415C58.2545 88.1369 57.4542 85.7767 56.5035 83.4759C56.2275 82.7473 56.0288 82.2173 55.9846 82.0848C55.9626 82.0145 55.955 81.9406 55.962 81.8672C55.9691 81.7939 55.9907 81.7228 56.0257 81.658C56.0607 81.5932 56.1083 81.536 56.1657 81.4899C56.2231 81.4437 56.2892 81.4095 56.36 81.3893C56.4296 81.369 56.5025 81.3626 56.5745 81.3705C56.6466 81.3784 56.7164 81.4004 56.78 81.4352C56.8435 81.4701 56.8996 81.5171 56.945 81.5737C56.9904 81.6302 57.0242 81.6951 57.0445 81.7647C57.0445 81.8972 57.2763 82.3829 57.5302 83.0785C59.0758 87.1301 60.0253 89.7908 60.0032 90.5636C60.0032 90.6365 59.9886 90.7087 59.96 90.7758C59.9314 90.8429 59.8896 90.9036 59.837 90.9541C59.7844 91.0046 59.7222 91.044 59.6539 91.0699C59.5857 91.0957 59.513 91.1075 59.4401 91.1045Z" fill="#263238"/>
<path d="M69.0118 87.7152C68.8742 87.7109 68.7428 87.6572 68.6414 87.5639C68.5401 87.4707 68.4757 87.3442 68.4598 87.2074L67.687 78.3754C67.6739 78.229 67.7194 78.0834 67.8136 77.9705C67.9078 77.8577 68.043 77.7869 68.1894 77.7737C68.3358 77.7605 68.4814 77.8061 68.5942 77.9003C68.7071 77.9945 68.7779 78.1296 68.791 78.276L69.5638 87.1743C69.5733 87.3184 69.527 87.4607 69.4346 87.5716C69.3421 87.6826 69.2105 87.7538 69.067 87.7704L69.0118 87.7152Z" fill="#263238"/>
<path d="M98.4664 106.494C97.9263 106.497 97.387 106.453 96.8546 106.362C96.7835 106.347 96.716 106.319 96.6559 106.278C96.5958 106.238 96.5443 106.186 96.5043 106.125C96.4644 106.065 96.4367 105.997 96.4229 105.926C96.4091 105.855 96.4095 105.781 96.424 105.71C96.4358 105.639 96.462 105.571 96.501 105.51C96.5401 105.449 96.5912 105.397 96.6512 105.357C96.7112 105.317 96.7787 105.289 96.8498 105.276C96.9208 105.262 96.9939 105.264 97.0643 105.28C97.0643 105.28 99.7691 105.799 101.425 104.628C101.779 104.371 102.075 104.04 102.292 103.66C102.509 103.279 102.642 102.857 102.684 102.42C102.695 102.348 102.72 102.278 102.757 102.216C102.795 102.153 102.845 102.098 102.904 102.054C102.963 102.011 103.03 101.979 103.101 101.962C103.172 101.944 103.246 101.94 103.318 101.951C103.391 101.962 103.461 101.987 103.523 102.025C103.586 102.063 103.641 102.113 103.685 102.172C103.728 102.23 103.76 102.297 103.777 102.369C103.795 102.44 103.799 102.514 103.788 102.586C103.721 103.167 103.533 103.728 103.237 104.231C102.94 104.735 102.541 105.171 102.065 105.512C100.993 106.195 99.7378 106.538 98.4664 106.494Z" fill="#263238"/>
<path d="M88.5527 98.0376C88.475 98.0382 88.3982 98.0217 88.3276 97.9892C88.257 97.9568 88.1944 97.9092 88.1442 97.8499C88.0925 97.7986 88.0514 97.7376 88.0234 97.6703C87.9954 97.603 87.981 97.5309 87.981 97.458C87.981 97.3851 87.9954 97.313 88.0234 97.2457C88.0514 97.1785 88.0925 97.1174 88.1442 97.0661C88.1442 97.0661 91.4562 94.1515 91.8095 91.4357C91.834 91.292 91.9132 91.1633 92.0306 91.0769C92.148 90.9904 92.2943 90.9528 92.4388 90.972C92.5106 90.9828 92.5796 91.0076 92.6418 91.0451C92.704 91.0826 92.7581 91.132 92.8012 91.1905C92.8443 91.2489 92.8754 91.3153 92.8928 91.3858C92.9102 91.4563 92.9135 91.5295 92.9025 91.6013C92.4388 94.7146 89.0164 97.7616 88.8729 97.8941C88.7866 97.9785 88.6731 98.0293 88.5527 98.0376Z" fill="#263238"/>
<path d="M79.2238 91.6234H79.1244C78.9805 91.5964 78.8528 91.5145 78.7683 91.395C78.6838 91.2754 78.6492 91.1277 78.6718 90.983C78.6718 90.9168 79.8862 83.8181 80.107 82.3608C80.1179 82.2883 80.1429 82.2187 80.1807 82.1559C80.2185 82.0931 80.2683 82.0383 80.3272 81.9947C80.3862 81.9512 80.4531 81.9196 80.5242 81.902C80.5954 81.8843 80.6693 81.8807 80.7418 81.8916C80.8143 81.9025 80.8839 81.9275 80.9467 81.9653C81.0095 82.0031 81.0643 82.0529 81.1079 82.1118C81.1514 82.1708 81.183 82.2377 81.2007 82.3089C81.2184 82.38 81.2219 82.4539 81.211 82.5264C80.9902 83.9947 79.7868 91.1045 79.7758 91.1707C79.7523 91.2993 79.6839 91.4154 79.5828 91.4983C79.4817 91.5812 79.3545 91.6255 79.2238 91.6234Z" fill="#263238"/>
<path d="M79.5481 108.719C84.1186 103.944 83.5962 96.027 78.3814 91.0348C73.1666 86.0427 65.234 85.8662 60.6635 90.6406C56.093 95.415 56.6154 103.332 61.8302 108.324C67.0451 113.317 74.9776 113.493 79.5481 108.719Z" fill="#89C400"/>
<path opacity="0.3" d="M75.2826 99.6715C75.2991 99.3921 75.2991 99.1119 75.2826 98.8325C75.1343 97.3932 74.4638 96.058 73.3978 95.0795C72.3319 94.101 70.9444 93.547 69.4976 93.5223C68.8176 93.5104 68.1429 93.6435 67.5183 93.9126C66.8938 94.1816 66.3336 94.5806 65.8752 95.0829C65.4167 95.5852 65.0704 96.1794 64.8594 96.8259C64.6483 97.4724 64.5773 98.1564 64.6511 98.8325C64.6693 99.1173 64.7212 99.3989 64.8056 99.6715H57.6075C57.4316 98.0796 57.5969 96.4685 58.0925 94.9454C58.5881 93.4224 59.4026 92.0225 60.4816 90.8389C61.5607 89.6554 62.8797 88.7154 64.3505 88.0816C65.8214 87.4478 67.4105 87.1347 69.0118 87.1632C72.4169 87.2261 75.6812 88.533 78.1889 90.8373C80.6966 93.1416 82.2742 96.284 82.6242 99.6715H75.2826Z" fill="black"/>
<path opacity="0.7" d="M75.2714 98.8325C75.2879 99.1119 75.2879 99.3921 75.2714 99.6716C75.192 100.9 74.6415 102.051 73.7345 102.884C72.8275 103.717 71.634 104.168 70.4028 104.143C69.105 104.119 67.8513 103.667 66.8355 102.859C65.8198 102.051 65.0986 100.931 64.7834 99.6716C64.699 99.3989 64.6471 99.1173 64.6288 98.8325C64.5551 98.1564 64.6261 97.4724 64.8372 96.8259C65.0482 96.1794 65.3945 95.5853 65.853 95.0829C66.3114 94.5806 66.8716 94.1817 67.4961 93.9126C68.1207 93.6435 68.7954 93.5104 69.4754 93.5223C70.9241 93.5444 72.3143 94.0972 73.3826 95.0759C74.4508 96.0547 75.1229 97.3913 75.2714 98.8325Z" fill="black"/>
<path opacity="0.7" d="M78.1529 93.6216C78.2125 94.1727 78.1542 94.7301 77.9818 95.2569C77.8095 95.7838 77.527 96.2679 77.1532 96.6772C76.7794 97.0865 76.3228 97.4116 75.8138 97.6309C75.3047 97.8502 74.7548 97.9587 74.2006 97.9493C73.0237 97.9259 71.8959 97.473 71.0297 96.6759C70.1635 95.8788 69.6186 94.7925 69.4976 93.6216C69.4362 93.0701 69.4932 92.512 69.6649 91.9843C69.8366 91.4567 70.1189 90.9719 70.4931 90.5622C70.8673 90.1525 71.3246 89.8274 71.8345 89.6087C72.3444 89.3899 72.8952 89.2826 73.4499 89.2939C74.6275 89.3149 75.7566 89.767 76.6233 90.5645C77.49 91.3621 78.0343 92.4497 78.1529 93.6216Z" fill="white"/>
<path d="M61.0629 70.6915H56.7131V71.7955H61.0629V70.6915Z" fill="#89C400"/>
<path d="M79.7538 70.6915H65.5674V71.7955H79.7538V70.6915Z" fill="#89C400"/>
<path d="M261.704 151.582L262.08 152.034L262.587 152.619C262.952 153.006 263.305 153.414 263.691 153.79C264.453 154.584 265.281 155.357 266.12 156.141C267.797 157.687 269.555 159.143 271.386 160.502C273.252 161.893 275.217 163.163 277.182 164.421C278.286 165.017 279.192 165.647 280.229 166.221L282.625 167.545C282.973 167.699 283.365 167.722 283.729 167.612C284.502 167.38 288.94 162.986 290.353 161.352C293.488 157.764 298.236 153.039 300.797 149.02L303.656 152.962C301.849 157.885 299.45 162.571 296.513 166.916C294.934 169.265 293.039 171.386 290.883 173.22C289.588 174.311 288.127 175.187 286.555 175.814C284.563 176.61 282.374 176.775 280.284 176.289C279.744 176.157 279.216 175.98 278.706 175.759L277.712 175.329L275.924 174.512C274.72 173.982 273.561 173.341 272.391 172.756C270.051 171.508 267.781 170.133 265.59 168.638C263.382 167.12 261.262 165.476 259.242 163.715C258.193 162.798 257.255 161.871 256.295 160.866C255.82 160.369 255.334 159.851 254.87 159.31L254.186 158.471C253.932 158.161 253.744 157.93 253.402 157.455L261.704 151.582Z" fill="#FFB573"/>
<path d="M300.344 149.628L305.467 138.676L310.357 147.442C310.357 147.442 307.145 152.962 303.656 152.962L300.344 149.628Z" fill="#FFB573"/>
<path d="M311.274 134.127L316.44 140.773L310.401 147.431L305.511 138.676L311.274 134.127Z" fill="#FFB573"/>
<path d="M309.474 150.456H317.611C317.84 150.454 318.061 150.367 318.23 150.212C318.399 150.057 318.505 149.845 318.527 149.616L320.216 130.109C320.228 129.981 320.214 129.853 320.173 129.731C320.133 129.609 320.067 129.498 319.981 129.403C319.895 129.308 319.789 129.233 319.672 129.181C319.555 129.13 319.428 129.104 319.3 129.104H311.174C310.943 129.106 310.721 129.194 310.551 129.352C310.382 129.509 310.277 129.724 310.258 129.954L308.547 149.451C308.536 149.579 308.552 149.708 308.594 149.83C308.636 149.951 308.702 150.063 308.789 150.157C308.877 150.252 308.983 150.327 309.1 150.378C309.218 150.43 309.345 150.456 309.474 150.456Z" fill="#89C400"/>
<path opacity="0.3" d="M309.562 148.501H317.71L319.234 131.069H311.086L309.562 148.501Z" fill="white"/>
<path d="M309.032 146.028L310.479 145.289C311.215 144.915 311.895 144.439 312.499 143.876L312.764 142.915C312.61 142.659 312.377 142.46 312.101 142.347C311.824 142.233 311.519 142.212 311.229 142.286L310.026 142.617L304.053 143.07L303.91 145.587L305.654 148.281H306.25C306.908 148.304 307.551 148.089 308.063 147.675C308.574 147.261 308.918 146.676 309.032 146.028Z" fill="#FFB573"/>
<path d="M251.282 140.928C255.422 140.177 284.623 165.492 284.623 165.492L275.968 178.188C275.968 178.188 244.04 155.953 245.056 150.588C246.038 144.947 245.254 142.032 251.282 140.928Z" fill="#263238"/>
<path opacity="0.2" d="M254.97 149.02L254.649 162.268C257.961 164.841 269.929 174.015 269.929 174.015L254.97 149.02Z" fill="black"/>
<path d="M231.819 404.022L241.611 404.983L244.725 382.273L234.921 381.313L231.819 404.022Z" fill="#FFB573"/>
<path d="M135.406 270.769L132.9 280.308L154.086 289.438L158.48 279.756L135.406 270.769Z" fill="#FFB573"/>
<path d="M248.622 406.992C249.464 407.096 250.317 406.909 251.039 406.462C251.195 406.326 251.317 406.155 251.394 405.963C251.47 405.771 251.5 405.564 251.481 405.358C251.481 405.229 251.446 405.103 251.38 404.992C251.314 404.881 251.219 404.79 251.106 404.729C249.924 404.022 245.928 405.921 245.475 406.131C245.432 406.151 245.396 406.184 245.372 406.226C245.349 406.267 245.338 406.315 245.343 406.363C245.349 406.411 245.371 406.457 245.404 406.493C245.438 406.528 245.482 406.552 245.531 406.561C246.546 406.799 247.58 406.943 248.622 406.992ZM250.399 405.016C250.553 405.004 250.707 405.039 250.841 405.115C250.887 405.139 250.926 405.176 250.953 405.221C250.981 405.265 250.995 405.317 250.995 405.369C251.007 405.507 250.986 405.646 250.935 405.774C250.883 405.903 250.801 406.018 250.697 406.109C250.09 406.628 248.489 406.672 246.281 406.252C247.583 405.602 248.987 405.18 250.432 405.005L250.399 405.016Z" fill="#89C400"/>
<path d="M245.575 406.517H245.663C246.855 406.02 249.251 403.967 249.096 402.841C249.053 402.645 248.944 402.471 248.787 402.346C248.63 402.221 248.435 402.154 248.235 402.156C248.005 402.114 247.769 402.121 247.542 402.178C247.315 402.236 247.104 402.341 246.921 402.488C245.652 403.47 245.354 406.131 245.332 406.23C245.321 406.27 245.321 406.313 245.33 406.353C245.34 406.393 245.359 406.431 245.387 406.462C245.413 406.484 245.443 406.5 245.475 406.509C245.507 406.519 245.541 406.522 245.575 406.517ZM248.014 402.576H248.147C248.577 402.642 248.6 402.808 248.6 402.863C248.699 403.536 247.065 405.17 245.84 405.822C245.957 404.703 246.429 403.651 247.186 402.819C247.432 402.642 247.737 402.566 248.036 402.609L248.014 402.576Z" fill="#89C400"/>
<path d="M241.125 401.03L232.293 401.406C232.103 401.408 231.92 401.479 231.78 401.608C231.639 401.736 231.551 401.912 231.532 402.101L229.412 414.433C229.4 414.643 229.43 414.853 229.5 415.051C229.569 415.249 229.678 415.431 229.818 415.587C229.959 415.743 230.129 415.87 230.319 415.96C230.509 416.05 230.715 416.101 230.924 416.111H231.101C234.954 415.912 236.809 415.625 241.688 415.46C244.68 415.36 253.832 416.442 257.917 415.515C262.002 414.587 261.229 410.536 259.474 410.569C253.799 410.679 247.253 406.981 244.018 402.653C243.455 402.289 241.744 400.997 241.125 401.03Z" fill="#263238"/>
<path d="M137.405 281.556L141.909 273.905C142.011 273.743 142.048 273.548 142.014 273.36C141.979 273.172 141.875 273.004 141.721 272.889L132.536 264.421C132.195 264.181 131.773 264.083 131.36 264.149C130.948 264.215 130.577 264.439 130.328 264.775L130.229 264.929C128.308 268.241 127.546 269.986 125.04 274.17C123.494 276.742 117.599 283.885 116.208 287.782C114.817 291.679 118.593 293.302 119.52 291.779C122.512 286.943 129.169 283.454 134.578 283.035C135.097 282.836 137.096 282.096 137.405 281.556Z" fill="#263238"/>
<path opacity="0.2" d="M244.725 382.273L243.124 393.987L233.32 393.026L234.91 381.324L244.725 382.273Z" fill="black"/>
<path opacity="0.2" d="M164.994 282.119L160.467 292.331L146.822 286.303L150.299 276.576L164.994 282.119Z" fill="black"/>
<path d="M257.542 152.575C263.139 162.092 256.295 170.118 250.576 198.557L213.68 198.656C214.276 183.333 214.21 170.946 207.674 140.796C207.505 140.053 207.505 139.281 207.676 138.538C207.846 137.796 208.182 137.101 208.659 136.506C209.135 135.912 209.74 135.433 210.428 135.105C211.116 134.777 211.869 134.609 212.631 134.613C215.678 134.613 219.509 134.712 223.406 135.11C229.553 135.613 235.658 136.538 241.678 137.881C244.942 138.668 248.151 139.672 251.282 140.884C253.181 141.524 255.467 146.691 257.542 152.575Z" fill="#263238"/>
<path d="M251.945 200.478C251.945 200.478 272.667 260.392 272.17 289.206C271.883 305.711 270.635 336.468 265.656 358.096C261.594 375.76 245.034 387.021 245.034 387.021L231.786 386.237C231.786 386.237 224.61 359.299 225.857 348.579C228.341 327.239 235.705 311.209 234.811 291.613C233.397 259.531 223.903 199.981 223.903 199.981L251.945 200.478Z" fill="#89C400"/>
<path d="M229.125 389.692L247.838 390.796L249.538 385.177L228.628 383.245L229.125 389.692Z" fill="#263238"/>
<path opacity="0.2" d="M231.488 321.52C231.488 321.52 231.488 321.41 231.598 321.421C243.356 322.525 251.47 305.601 249.538 282.428L243.3 223.364L231.488 321.52Z" fill="black"/>
<path d="M242.649 199.981C242.649 199.981 259.121 305.336 224.875 317.193C206.802 324.037 191.6 316.619 173.594 308.648C163.183 304.044 150.178 291.58 150.178 291.58L155.179 277.968C164.174 275.535 173.586 275.061 182.779 276.576C200.333 279.292 201.072 284.304 207.31 280.518C220.425 248.104 197.86 222.481 213.194 199.926L242.649 199.981Z" fill="#89C400"/>
<path d="M156.162 275.384L149.471 293.037L154.395 296.802L162.344 275.793L156.162 275.384Z" fill="#263238"/>
<path d="M153.402 180.186C151.735 182.648 143.278 180.981 143.278 180.981L141.479 170.504L151.867 174.666L153.402 180.186Z" fill="#FFB573"/>
<path d="M143.576 169.963L145.188 180.849L138.95 181.776C138.612 181.807 138.275 181.711 138.004 181.507C137.732 181.303 137.546 181.005 137.482 180.672L135.086 172.944C135.046 172.764 135.076 172.576 135.17 172.417C135.265 172.259 135.417 172.143 135.594 172.094L143.576 169.963Z" fill="#FFB573"/>
<path d="M140.783 174.898L144.338 175.527L147.705 172.999L146.402 172.072C145.52 171.443 144.899 170.512 144.658 169.455C144.408 168.349 144.256 167.222 144.205 166.088V165.713C144.163 165.38 144.013 165.07 143.777 164.831C143.542 164.592 143.235 164.436 142.903 164.388L142.019 165.039C141.467 166.243 141.865 167.645 141.799 168.583L141.655 170.405L140.231 171.023L140.783 174.898Z" fill="#FFB573"/>
<path d="M209.452 138.72L188.564 167.424L150.2 174.997V181.29C150.2 181.29 186.257 183.962 194.36 179.248C202.463 174.534 216.054 145.94 216.054 145.94L209.452 138.72Z" fill="#FFB573"/>
<path d="M209.209 83.52C200.443 80.5834 190.275 86.0261 186.268 94.3502C182.26 102.674 183.662 112.886 188.178 120.946C189.536 123.385 191.158 125.682 192.273 128.232C193.513 130.76 193.784 133.654 193.035 136.368C192.13 139.007 191.203 140.696 187.935 140.277C187.935 140.277 187.935 138.466 189.182 138.687C189.182 138.687 186.533 140.155 185.495 139.195C186.698 141.049 189.911 140.376 190.938 138.411C192.472 135.485 189.646 131.522 186.334 131.555C183.022 131.588 180.328 134.944 180.439 138.245C180.577 139.896 181.164 141.478 182.137 142.819C183.11 144.16 184.432 145.209 185.959 145.852C185.064 145.999 184.145 145.846 183.346 145.417C182.548 144.988 181.913 144.306 181.543 143.478C183.044 147.408 187.946 149.142 192.086 148.369C196.226 147.596 199.725 144.947 202.971 142.264C207.387 138.643 211.903 134.061 211.803 128.398C211.704 124.169 208.988 120.537 206.703 116.971C204.417 113.405 202.419 109.056 203.876 105.092C205.102 101.725 208.436 99.6936 211.373 97.6401C213.492 96.1718 217.798 92.8929 217.29 89.7907C216.771 86.832 211.693 84.348 209.209 83.52Z" fill="#263238"/>
<path d="M189.458 181.776L183.673 166.463L184.998 166.574C186.07 166.664 187.145 166.443 188.095 165.938C189.044 165.433 189.828 164.665 190.353 163.726C194.769 155.865 206.173 135.916 209.385 134.922C213.967 133.564 218.681 137.23 220.425 142.65C221.739 146.636 208.281 163.726 202.077 173.441C196.568 182.041 189.458 181.776 189.458 181.776Z" fill="#263238"/>
<path d="M133.033 286.59V286.711C133.114 286.924 133.248 287.112 133.422 287.259C133.596 287.405 133.804 287.506 134.027 287.55C134.16 287.592 134.303 287.599 134.44 287.57C134.577 287.541 134.705 287.477 134.81 287.385C135.738 286.535 135.142 282.969 135.086 282.615C135.08 282.569 135.06 282.527 135.028 282.493C134.997 282.459 134.955 282.437 134.91 282.428C134.867 282.422 134.823 282.428 134.783 282.443C134.742 282.458 134.706 282.483 134.678 282.516C133.927 283.576 132.735 285.464 133.033 286.59ZM134.733 283.278C134.932 284.691 135.02 286.59 134.501 287.053C134.447 287.083 134.386 287.099 134.325 287.099C134.263 287.099 134.202 287.083 134.148 287.053C134 287.026 133.861 286.96 133.745 286.864C133.629 286.767 133.54 286.642 133.486 286.501C133.287 285.905 133.706 284.691 134.733 283.256V283.278Z" fill="#89C400"/>
<path d="M134.744 283.079C135.031 284.271 136.157 286.303 137.151 286.546C137.332 286.582 137.52 286.556 137.684 286.472C137.849 286.388 137.98 286.25 138.056 286.082C138.143 285.924 138.193 285.75 138.205 285.57C138.216 285.391 138.188 285.211 138.122 285.044C137.67 283.675 135.064 282.549 134.954 282.494C134.918 282.475 134.878 282.464 134.838 282.464C134.797 282.464 134.758 282.475 134.722 282.494C134.69 282.52 134.664 282.554 134.649 282.593C134.634 282.631 134.628 282.673 134.634 282.715C134.661 282.839 134.698 282.961 134.744 283.079ZM137.747 285.287C137.769 285.385 137.772 285.486 137.755 285.584C137.738 285.683 137.702 285.777 137.648 285.861C137.504 286.126 137.361 286.126 137.25 286.104C136.577 285.972 135.55 284.304 135.219 283.145C136.069 283.576 137.427 284.382 137.714 285.221C137.706 285.242 137.706 285.266 137.714 285.287H137.747Z" fill="#89C400"/>
<path d="M213.548 196.79L212.521 200.378C212.388 200.654 212.709 200.941 213.172 200.93H251.26C251.625 200.93 251.923 200.743 251.945 200.522L252.298 196.934C252.298 196.691 252.011 196.47 251.613 196.481H214.188C214.063 196.472 213.939 196.495 213.826 196.549C213.714 196.604 213.617 196.687 213.548 196.79Z" fill="#89C400"/>
<path opacity="0.5" d="M213.548 196.79L212.521 200.378C212.388 200.654 212.709 200.941 213.172 200.93H251.26C251.625 200.93 251.923 200.743 251.945 200.522L252.298 196.934C252.298 196.691 252.011 196.47 251.613 196.481H214.188C214.063 196.472 213.939 196.495 213.826 196.549C213.714 196.604 213.617 196.687 213.548 196.79Z" fill="white"/>
<path d="M220.856 201.262H219.752C219.542 201.262 219.366 201.151 219.388 201.019L219.885 196.349C219.885 196.216 220.094 196.106 220.315 196.106H221.419C221.629 196.106 221.795 196.216 221.784 196.36L221.287 201.019C221.22 201.151 221.022 201.273 220.856 201.262Z" fill="#89C400"/>
<path d="M248.312 201.262H247.208C247.01 201.262 246.833 201.151 246.855 201.019L247.352 196.36C247.352 196.216 247.551 196.106 247.76 196.106H248.864C249.074 196.106 249.251 196.216 249.229 196.349L248.732 201.008C248.71 201.151 248.533 201.262 248.312 201.262Z" fill="#89C400"/>
<path d="M235.716 201.24H234.612C234.402 201.24 234.225 201.129 234.247 200.997L234.744 196.338C234.744 196.194 234.954 196.084 235.164 196.084H236.268C236.478 196.084 236.643 196.194 236.632 196.327L236.124 200.986C236.124 201.129 235.937 201.24 235.716 201.24Z" fill="#89C400"/>
<path d="M225.128 115.017C226.299 121.034 227.447 131.897 223.362 135.165C223.362 135.165 224.996 141.336 235.915 142.981C247.97 144.792 241.644 137.925 241.644 137.925C235.075 135.331 235.241 130.583 236.367 126.212L225.128 115.017Z" fill="#FFB573"/>
<path d="M223.406 135.11C229.232 135.479 235.022 136.284 240.728 137.517L248.986 139.979C250.454 142.937 248.047 149.02 241.136 150.18C241.136 150.18 223.726 152.575 218.593 134.646L223.406 135.11Z" fill="#FFB573"/>
<path opacity="0.2" d="M229.688 119.599L236.312 126.223C236.033 127.248 235.852 128.298 235.771 129.358C233.254 128.618 229.213 125.847 228.937 123.198C228.94 121.96 229.196 120.735 229.688 119.599Z" fill="black"/>
<path d="M217.754 107.422C220.713 116.761 221.75 120.78 227.811 124.456C236.842 129.976 247.683 124.324 247.573 114.3C247.485 105.269 242.682 91.513 232.426 90.0115C230.172 89.6736 227.868 89.9183 225.735 90.7222C223.602 91.5261 221.71 92.8626 220.239 94.6044C218.769 96.3461 217.768 98.4353 217.333 100.673C216.898 102.911 217.043 105.223 217.754 107.388V107.422Z" fill="#FFB573"/>
<path d="M240.044 105.964C241.088 107.604 242.355 109.09 243.808 110.38C243.468 110.748 243.052 111.038 242.589 111.228C242.126 111.419 241.626 111.506 241.126 111.484L240.044 105.964Z" fill="#ED893E"/>
<path d="M238.995 116.474C239.369 116.433 239.738 116.359 240.099 116.254C240.127 116.247 240.154 116.235 240.177 116.218C240.201 116.201 240.221 116.18 240.237 116.155C240.252 116.131 240.262 116.103 240.267 116.075C240.272 116.046 240.271 116.017 240.264 115.989C240.249 115.931 240.211 115.881 240.16 115.85C240.108 115.819 240.047 115.81 239.988 115.823C239.046 116.083 238.056 116.118 237.097 115.927C236.139 115.735 235.238 115.321 234.468 114.719C234.423 114.674 234.361 114.648 234.297 114.648C234.233 114.648 234.172 114.674 234.126 114.719C234.104 114.741 234.087 114.766 234.075 114.795C234.063 114.823 234.057 114.854 234.057 114.885C234.057 114.915 234.063 114.946 234.075 114.974C234.087 115.003 234.104 115.029 234.126 115.05C234.804 115.596 235.583 116.002 236.419 116.247C237.254 116.491 238.13 116.569 238.995 116.474Z" fill="#263238"/>
<path d="M214.541 88.775C213.324 89.5619 212.314 90.6294 211.596 91.8877C210.877 93.146 210.472 94.5584 210.412 96.0062C210.362 96.5598 210.449 97.1173 210.666 97.6291C210.775 97.8823 210.949 98.1024 211.17 98.2672C211.39 98.4319 211.651 98.5355 211.925 98.5675C212.764 98.5675 213.382 97.8168 213.846 97.1102L215.987 93.7982C216.869 92.7223 217.611 91.539 218.195 90.2765C218.913 88.1016 215.855 87.936 214.541 88.775Z" fill="#89C400"/>
<path d="M215.59 90.972C209.728 97.7505 207.1 116.508 224.278 121.74C227.149 119.466 222.512 115.326 220.547 110.093C219.255 106.671 225.802 100.279 228.352 97.6512C230.902 95.0237 233.254 91.2369 236.853 91.8441C237.767 92.1496 238.75 92.1765 239.679 91.9214C242.539 90.6297 241.147 88.9185 239.679 87.7262C237.427 86.0595 234.746 85.0712 231.951 84.8779C228.936 84.5227 225.88 84.8902 223.035 85.9498C220.19 87.0095 217.638 88.731 215.59 90.972Z" fill="#263238"/>
<path d="M234.656 88.6977C241.556 94.4496 232.448 94.5931 227.624 98.2363C222.998 101.736 226.244 107.466 218.416 110.126C212.024 111.992 210.545 110.866 208.778 109.63C210.967 109.251 212.97 108.159 214.473 106.523C215.977 104.888 216.897 102.801 217.091 100.588C217.632 96.3926 226.774 82.0296 234.656 88.6977Z" fill="#263238"/>
<path d="M216.716 115.271C217.797 116.828 219.446 117.899 221.309 118.252C223.782 118.682 224.731 116.419 223.881 114.211C223.075 112.224 220.834 109.608 218.438 110.171C217.615 110.384 216.909 110.915 216.476 111.648C216.044 112.38 215.92 113.255 216.131 114.079C216.243 114.512 216.443 114.917 216.716 115.271Z" fill="#FFB573"/>
<path d="M233.475 89.2828C234.811 92.6832 238.664 92.2305 241.512 95.7854C243.267 97.9934 246.712 91.1817 242.02 88.499C237.328 85.8163 231.377 83.9616 233.475 89.2828Z" fill="#263238"/>
<path d="M229.412 103.635C229.51 103.645 229.609 103.624 229.695 103.575C229.78 103.525 229.847 103.449 229.887 103.359C230.792 101.35 233.508 100.842 233.53 100.842C233.651 100.815 233.758 100.743 233.828 100.64C233.897 100.538 233.925 100.412 233.905 100.29C233.881 100.17 233.811 100.065 233.71 99.9964C233.609 99.9282 233.484 99.9027 233.364 99.9254C233.221 99.9254 230.13 100.577 229.026 103.006C228.977 103.119 228.973 103.246 229.017 103.362C229.06 103.477 229.146 103.571 229.258 103.624H229.412V103.635Z" fill="#263238"/>
<path d="M243.764 99.5721C243.845 99.578 243.926 99.5615 243.998 99.5245C244.07 99.4875 244.13 99.4314 244.173 99.3624C244.208 99.3127 244.233 99.2565 244.245 99.197C244.258 99.1376 244.259 99.0762 244.248 99.0164C244.237 98.9566 244.213 98.8998 244.18 98.8492C244.146 98.7986 244.102 98.7554 244.051 98.7221C243.44 98.2985 242.735 98.0282 241.997 97.934C241.26 97.8399 240.51 97.9246 239.812 98.1811C239.754 98.2038 239.701 98.2383 239.657 98.2823C239.613 98.3264 239.578 98.3791 239.555 98.4372C239.532 98.4952 239.522 98.5573 239.524 98.6197C239.527 98.682 239.542 98.7431 239.569 98.7993C239.617 98.9118 239.709 99.0005 239.822 99.046C239.936 99.0916 240.063 99.0902 240.176 99.0422C240.725 98.8503 241.312 98.7923 241.888 98.8729C242.464 98.9536 243.013 99.1706 243.488 99.5059C243.574 99.5476 243.668 99.5702 243.764 99.5721Z" fill="#263238"/>
<path d="M289.15 160.005L282.68 163.681L275.957 178.144C275.957 178.144 282.448 182.273 287.571 178.928C292.693 175.583 289.15 160.005 289.15 160.005Z" fill="#89C400"/>
<path opacity="0.5" d="M289.15 160.005L282.68 163.681L275.957 178.144C275.957 178.144 282.448 182.273 287.571 178.928C292.693 175.583 289.15 160.005 289.15 160.005Z" fill="white"/>
<path d="M176.023 164.476L183.673 166.684L190.927 181.688C190.927 181.688 185.097 187.086 178.783 181.931C174.057 178.022 176.023 164.476 176.023 164.476Z" fill="#89C400"/>
<g opacity="0.5">
<path d="M176.023 164.476L183.673 166.684L190.927 181.688C190.927 181.688 185.097 187.086 178.783 181.931C174.057 178.022 176.023 164.476 176.023 164.476Z" fill="white"/>
</g>
<path d="M243.322 103.315C243.852 103.215 244.426 103.812 244.548 104.628C244.669 105.445 244.371 106.196 243.841 106.284C243.311 106.373 242.737 105.788 242.616 104.971C242.494 104.154 242.792 103.392 243.322 103.315Z" fill="#263238"/>
<path d="M244.956 102.509L243.091 103.425C244.217 104.22 244.956 102.509 244.956 102.509Z" fill="#263238"/>
<path d="M234.104 105.214C234.634 105.114 235.208 105.71 235.329 106.527C235.451 107.344 235.153 108.095 234.623 108.183C234.093 108.272 233.519 107.687 233.397 106.87C233.276 106.053 233.552 105.313 234.104 105.214Z" fill="#263238"/>
<path d="M235.716 104.408L233.85 105.324C234.976 106.119 235.716 104.408 235.716 104.408Z" fill="#263238"/>
<path d="M187.361 147.453C186.321 147.459 185.29 147.264 184.325 146.879C180.902 145.476 179.313 141.922 179.909 137.108C179.928 136.963 180.004 136.832 180.12 136.743C180.236 136.654 180.382 136.615 180.527 136.633C180.599 136.642 180.669 136.664 180.733 136.7C180.796 136.736 180.852 136.784 180.896 136.842C180.94 136.899 180.972 136.965 180.991 137.036C181.009 137.106 181.013 137.18 181.002 137.252C180.428 141.524 181.774 144.66 184.7 145.852C186.398 146.433 188.236 146.462 189.952 145.934C191.667 145.407 193.172 144.35 194.25 142.915C197.021 139.228 196.115 133.995 191.799 128.563C180.494 114.377 181.245 106.836 182.845 100.875C185.164 92.2195 191.953 82.3056 211.163 84.2155C211.309 84.2302 211.444 84.3024 211.537 84.4162C211.63 84.5301 211.674 84.6763 211.66 84.8227C211.645 84.9691 211.573 85.1037 211.459 85.1969C211.345 85.29 211.199 85.3342 211.053 85.3195C192.627 83.4869 186.113 92.9371 183.905 101.173C182.315 107.135 181.697 114.101 192.66 127.89C199.284 136.203 196.601 141.646 195.133 143.589C194.214 144.779 193.037 145.745 191.691 146.414C190.345 147.084 188.864 147.439 187.361 147.453Z" fill="#263238"/>
</svg>
