<svg width="552" height="577" viewBox="0 0 552 577" fill="none" xmlns="http://www.w3.org/2000/svg">
<circle cx="276" cy="276" r="276" fill="#89C400" fill-opacity="0.3"/>
<path d="M273.99 556.62C398.282 556.62 499.04 498.448 499.04 426.69C499.04 354.932 398.282 296.76 273.99 296.76C149.698 296.76 48.9399 354.932 48.9399 426.69C48.9399 498.448 149.698 556.62 273.99 556.62Z" fill="#F5F5F5"/>
<path d="M312.51 498.13C335.363 498.13 353.89 487.434 353.89 474.24C353.89 461.046 335.363 450.35 312.51 450.35C289.656 450.35 271.13 461.046 271.13 474.24C271.13 487.434 289.656 498.13 312.51 498.13Z" fill="#E0E0E0"/>
<path d="M420.16 483.98C443.014 483.98 461.54 473.284 461.54 460.09C461.54 446.896 443.014 436.2 420.16 436.2C397.306 436.2 378.78 446.896 378.78 460.09C378.78 473.284 397.306 483.98 420.16 483.98Z" fill="#E0E0E0"/>
<path d="M193.82 533.95C216.673 533.95 235.2 523.254 235.2 510.06C235.2 496.866 216.673 486.17 193.82 486.17C170.966 486.17 152.44 496.866 152.44 510.06C152.44 523.254 170.966 533.95 193.82 533.95Z" fill="#E0E0E0"/>
<path d="M126 431.5C126 431.5 124.92 406.24 114.33 392.18C103.74 378.12 90.7601 376.1 84.3301 380.06C79.6301 382.94 80.2601 391.5 88.3901 397.06C96.5201 402.62 112.19 416.87 114.64 426.16L126 431.5Z" fill="#37474F"/>
<path d="M119 427.82C118.828 427.807 118.669 427.728 118.555 427.599C118.441 427.47 118.382 427.302 118.39 427.13C119.48 404.21 99.39 389.92 93.92 387.35C93.7631 387.276 93.6415 387.143 93.5816 386.981C93.5217 386.818 93.5283 386.638 93.6 386.48C93.6759 386.322 93.8104 386.201 93.9749 386.141C94.1393 386.081 94.3206 386.088 94.48 386.16C100.09 388.82 120.82 403.55 119.7 427.16C119.69 427.333 119.611 427.496 119.482 427.612C119.353 427.728 119.183 427.788 119.01 427.78L119 427.82Z" fill="white"/>
<path d="M121 423.52C119.556 423.5 118.168 422.961 117.09 422C115.86 420.65 115.96 418.58 115.39 416.84C114.46 413.98 111.64 412.04 108.7 411.43C105.719 410.965 102.672 411.17 99.7801 412.03C93.8801 413.48 88.2101 409.85 82.3001 410.28C80.1676 410.349 78.0938 410.995 76.3001 412.15C75.4153 412.735 74.6905 413.532 74.1911 414.468C73.6917 415.404 73.4336 416.449 73.4401 417.51C73.6428 419.266 74.5172 420.875 75.8801 422C77.2466 423.122 78.7524 424.063 80.3601 424.8L85.5501 427.45C86.4473 427.848 87.2745 428.389 88.0001 429.05C88.6857 429.785 89.2029 430.66 89.5155 431.615C89.8281 432.57 89.9286 433.582 89.8101 434.58C89.4101 436.58 87.8101 438.1 87.3001 440.06C86.6701 442.63 88.2401 445.38 90.5001 446.77C92.8475 448.041 95.527 448.564 98.1801 448.27C100.83 448.12 103.45 447.59 106.1 447.54C107.893 447.412 109.685 447.804 111.26 448.67C113.039 449.958 114.321 451.819 114.89 453.94C115.234 455.301 115.78 456.602 116.51 457.8C117.411 458.938 118.623 459.79 120 460.25C122.663 461.23 125.587 461.23 128.25 460.25C130.44 459.41 131.51 456.94 132.33 454.8C133.149 452.56 133.54 450.185 133.48 447.8C133.354 441.67 131.969 435.632 129.41 430.06C128.18 427.5 126.41 424.94 123.69 424.06C122.809 423.809 121.91 423.628 121 423.52Z" fill="#455A64"/>
<path d="M126.68 451C126.559 451 126.441 450.963 126.343 450.893C126.244 450.823 126.17 450.724 126.13 450.61C119.96 432.92 90.7701 417.53 80.1301 415.76C80.0546 415.748 79.9823 415.72 79.9173 415.68C79.8523 415.639 79.7959 415.587 79.7514 415.524C79.7068 415.462 79.6749 415.392 79.6575 415.317C79.6402 415.243 79.6377 415.165 79.6501 415.09C79.6626 415.014 79.6898 414.942 79.7303 414.877C79.7707 414.812 79.8235 414.756 79.8857 414.711C79.9479 414.667 80.0183 414.635 80.0929 414.617C80.1674 414.6 80.2446 414.597 80.3201 414.61C91.2001 416.41 120.97 432.14 127.32 450.22C127.347 450.293 127.359 450.37 127.355 450.448C127.351 450.525 127.332 450.601 127.299 450.671C127.265 450.741 127.218 450.803 127.16 450.855C127.102 450.906 127.034 450.945 126.96 450.97C126.87 451.001 126.775 451.011 126.68 451Z" fill="white"/>
<path d="M100.44 441.3C100.328 441.291 100.222 441.249 100.133 441.181C100.044 441.112 99.9775 441.019 99.9405 440.914C99.9035 440.808 99.8979 440.694 99.9245 440.585C99.951 440.476 100.009 440.377 100.09 440.3C104.863 436.998 110.507 435.185 116.31 435.09C116.452 435.109 116.582 435.178 116.677 435.286C116.771 435.393 116.823 435.532 116.823 435.675C116.823 435.818 116.771 435.956 116.677 436.064C116.582 436.172 116.452 436.241 116.31 436.26C110.76 436.394 105.366 438.131 100.78 441.26C100.673 441.306 100.555 441.32 100.44 441.3Z" fill="white"/>
<path d="M127 464.68C126.371 464.252 125.851 463.683 125.483 463.018C125.115 462.352 124.908 461.61 124.88 460.85V252.46C124.923 251.677 125.151 250.915 125.543 250.235C125.936 249.556 126.483 248.979 127.14 248.55L372.3 107C372.951 106.59 373.702 106.366 374.472 106.351C375.242 106.336 376.001 106.532 376.667 106.916C377.334 107.301 377.883 107.861 378.255 108.534C378.628 109.208 378.809 109.971 378.78 110.74V319.14C378.736 319.923 378.509 320.685 378.116 321.365C377.724 322.044 377.177 322.621 376.52 323.05L131.36 464.6C130.69 464.953 129.946 465.144 129.189 465.158C128.432 465.172 127.682 465.008 127 464.68Z" fill="#455A64"/>
<path d="M130.93 464.79H130.84C130.772 464.831 130.697 464.861 130.62 464.88H130.45C130.35 464.915 130.246 464.938 130.14 464.95C130.073 464.977 130.002 464.994 129.93 465L129.59 465.05C128.698 465.171 127.79 465.014 126.99 464.6C126.362 464.175 125.843 463.607 125.477 462.943C125.11 462.279 124.906 461.538 124.88 460.78V279.17L129.12 281.62V463.29C129.12 464.29 129.63 464.91 130.37 464.91C130.469 464.925 130.57 464.925 130.67 464.91C130.762 464.884 130.85 464.843 130.93 464.79Z" fill="#89C400"/>
<path opacity="0.81" d="M130.93 464.79H130.84C130.772 464.831 130.697 464.861 130.62 464.88H130.45C130.35 464.915 130.246 464.938 130.14 464.95C130.073 464.977 130.002 464.994 129.93 465L129.59 465.05C128.698 465.171 127.79 465.014 126.99 464.6C126.362 464.175 125.843 463.607 125.477 462.943C125.11 462.279 124.906 461.538 124.88 460.78V279.17L129.12 281.62V463.29C129.12 464.29 129.63 464.91 130.37 464.91C130.469 464.925 130.57 464.925 130.67 464.91C130.762 464.884 130.85 464.843 130.93 464.79Z" fill="#E0E0E0"/>
<path d="M129.11 281.62L124.87 279.17V319.52L129.11 321.99V281.62Z" fill="#89C400"/>
<path opacity="0.15" d="M129.11 281.62L124.87 279.17V319.52L129.11 321.99V281.62Z" fill="black"/>
<path d="M129.76 252.68C129.36 253.353 129.136 254.117 129.11 254.9V281.62L124.87 279.17V252.46C124.865 252.37 124.865 252.28 124.87 252.19C124.889 252.002 124.919 251.815 124.96 251.63C125.085 251.141 125.273 250.67 125.52 250.23L129.76 252.68Z" fill="#263238"/>
<path d="M378.78 110.75V122.81L199.07 226.56C197.83 227.28 196.82 226.69 196.82 225.26V220.69C196.82 219.26 195.82 218.69 194.56 219.39L139.83 251C139.173 251.429 138.626 252.006 138.233 252.685C137.841 253.365 137.613 254.127 137.57 254.91V259.47C137.527 260.252 137.302 261.014 136.911 261.693C136.52 262.372 135.975 262.95 135.32 263.38L129.11 267V255C129.152 254.218 129.378 253.456 129.769 252.777C130.16 252.098 130.705 251.52 131.36 251.09L376.53 109.45C377.77 108.73 378.78 109.31 378.78 110.75Z" fill="#37474F"/>
<path d="M378.79 319.15C378.745 319.932 378.517 320.692 378.124 321.369C377.732 322.047 377.186 322.622 376.53 323.05L131.36 464.6C130.12 465.31 129.11 464.73 129.11 463.29V267L135.32 263.42C136.56 262.7 138.58 251.76 139.83 251.04L193.64 219.97C194.89 219.25 197.83 227.33 199.07 226.61L378.78 122.81V319.15H378.79Z" fill="#89C400"/>
<path opacity="0.9" d="M378.79 319.15C378.745 319.932 378.517 320.692 378.124 321.369C377.732 322.047 377.186 322.622 376.53 323.05L131.36 464.6C130.12 465.31 129.11 464.73 129.11 463.29V267L135.32 263.42C136.56 262.7 138.58 251.76 139.83 251.04L193.64 219.97C194.89 219.25 197.83 227.33 199.07 226.61L378.78 122.81V319.15H378.79Z" fill="white"/>
<g opacity="0.4">
<path d="M377.78 124.54V319.15C377.731 319.75 377.548 320.332 377.243 320.851C376.938 321.371 376.52 321.815 376.02 322.15L130.86 463.73C130.709 463.832 130.532 463.891 130.35 463.9C130.12 463.9 130.11 463.4 130.11 463.29V267.53L135.82 264.23C136.7 263.72 137.26 261.97 138.52 257.47C138.977 255.531 139.607 253.637 140.4 251.81L193.77 221C194.409 221.871 194.983 222.786 195.49 223.74C196.94 226.28 197.74 227.6 198.9 227.6C199.134 227.599 199.364 227.541 199.57 227.43L377.78 124.54ZM378.78 122.81L199.07 226.56C199.014 226.574 198.956 226.574 198.9 226.56C197.64 226.56 195.08 219.83 193.81 219.83C193.754 219.816 193.696 219.816 193.64 219.83L139.83 251C138.58 251.72 136.56 262.66 135.32 263.38L129.11 267V463.29C129.11 464.29 129.62 464.9 130.35 464.9C130.703 464.885 131.047 464.782 131.35 464.6L376.53 323.05C377.186 322.622 377.732 322.047 378.124 321.369C378.517 320.692 378.745 319.932 378.79 319.15V122.81H378.78Z" fill="#89C400"/>
</g>
<path d="M129.11 281.62V321.99L378.78 177.86V137.48L129.11 281.62Z" fill="#89C400"/>
<path d="M378.78 122.81V137.48L129.11 281.62V267L133.74 264.32C134.98 263.6 135.4 262.5 135.99 260.41L137.57 254.95C138.06 253.05 138.57 251.76 139.83 251.04L193.64 219.97C194.89 219.25 195.87 219.17 196.82 220.74L198.75 224.24C199.45 225.47 199.81 226.19 201.05 225.47L378.78 122.81Z" fill="#F0F0F0"/>
<path d="M368.2 118.31C369.77 117.41 371.04 118.14 371.04 119.95C370.986 120.936 370.701 121.895 370.208 122.749C369.715 123.604 369.027 124.331 368.2 124.87C366.64 125.77 365.37 125.04 365.37 123.23C365.424 122.246 365.708 121.288 366.199 120.433C366.691 119.579 367.376 118.851 368.2 118.31Z" fill="#89C400"/>
<path d="M358 124.2C359.56 123.3 360.83 124.03 360.83 125.84C360.776 126.824 360.492 127.782 360 128.637C359.509 129.491 358.824 130.218 358 130.76C356.43 131.66 355.16 130.93 355.16 129.12C355.213 128.134 355.498 127.175 355.992 126.32C356.485 125.466 357.173 124.739 358 124.2Z" fill="#89C400"/>
<path d="M347.77 130.09C349.33 129.19 350.61 129.92 350.61 131.73C350.554 132.715 350.268 133.673 349.775 134.528C349.282 135.382 348.595 136.109 347.77 136.65C346.2 137.56 344.93 136.82 344.93 135.01C344.983 134.024 345.268 133.065 345.762 132.211C346.255 131.356 346.943 130.629 347.77 130.09Z" fill="#89C400"/>
<path opacity="0.5" d="M139.45 268L135.91 270L137.26 267.41C137.313 267.312 137.341 267.202 137.341 267.09C137.341 266.978 137.313 266.868 137.26 266.77C137.16 266.65 136.98 266.77 136.86 266.96L134.94 270.66C134.936 270.707 134.936 270.753 134.94 270.8C134.935 270.863 134.935 270.927 134.94 270.99C134.934 271.047 134.934 271.104 134.94 271.16C134.935 271.186 134.935 271.214 134.94 271.24L136.86 272.72C136.888 272.738 136.921 272.747 136.955 272.747C136.988 272.747 137.021 272.738 137.05 272.72C137.142 272.645 137.214 272.549 137.26 272.44C137.36 272.2 137.35 271.93 137.26 271.84L135.91 270.84L139.45 268.84C139.543 268.768 139.617 268.675 139.667 268.569C139.718 268.464 139.743 268.347 139.74 268.23C139.74 268 139.61 267.92 139.45 268Z" fill="#455A64"/>
<path opacity="0.5" d="M142.41 266.3L145.95 264.3L144.6 263.3C144.48 263.21 144.47 262.94 144.6 262.7C144.73 262.46 144.88 262.33 145 262.42L146.92 263.9C146.945 263.918 146.966 263.942 146.98 263.97C146.99 264.023 146.99 264.077 146.98 264.13C146.99 264.193 146.99 264.257 146.98 264.32C146.98 264.32 146.98 264.32 146.98 264.37C146.964 264.418 146.944 264.465 146.92 264.51L145 268.17C144.958 268.26 144.893 268.336 144.81 268.39C144.782 268.417 144.744 268.433 144.705 268.433C144.666 268.433 144.628 268.417 144.6 268.39C144.544 268.293 144.514 268.182 144.514 268.07C144.514 267.958 144.544 267.847 144.6 267.75L145.95 265.15L142.41 267.2C142.25 267.29 142.13 267.2 142.13 266.92C142.124 266.802 142.146 266.684 142.194 266.576C142.243 266.468 142.317 266.373 142.41 266.3Z" fill="#455A64"/>
<path opacity="0.5" d="M154 256.1C154 255.89 153.79 255.92 153.7 256.15L153.21 257.34C152.38 257.25 151.38 258.05 150.7 259.49C149.83 261.34 149.83 263.49 150.7 264.38C150.913 264.58 151.19 264.699 151.482 264.717C151.774 264.735 152.063 264.652 152.3 264.48C153.007 264.006 153.56 263.335 153.89 262.55C153.945 262.456 153.975 262.349 153.975 262.24C153.975 262.131 153.945 262.024 153.89 261.93C153.77 261.82 153.59 261.93 153.48 262.16C152.83 263.54 151.76 264.16 151.11 263.53C150.46 262.9 150.45 261.26 151.11 259.87C151.57 258.87 152.24 258.3 152.83 258.27L152.46 259.16C152.37 259.39 152.46 259.61 152.6 259.51L154.05 258.57C154.105 258.52 154.148 258.458 154.176 258.389C154.204 258.319 154.215 258.244 154.21 258.17L154 256.1Z" fill="#455A64"/>
<path opacity="0.5" d="M192.09 226.62L193.38 223.88C193.456 223.751 193.495 223.604 193.495 223.455C193.495 223.306 193.456 223.159 193.38 223.03C193.23 222.89 192.98 223.03 192.83 223.35L191.54 226.08L190.24 224.84C190.09 224.69 189.84 224.84 189.69 225.16C189.614 225.289 189.574 225.436 189.574 225.585C189.574 225.734 189.614 225.881 189.69 226.01L190.98 227.25L189.69 230C189.614 230.129 189.574 230.276 189.574 230.425C189.574 230.574 189.614 230.721 189.69 230.85C189.729 230.883 189.779 230.9 189.83 230.9C189.881 230.9 189.93 230.883 189.97 230.85C190.094 230.773 190.189 230.657 190.24 230.52L191.54 227.78L192.83 229.03C192.868 229.062 192.916 229.079 192.965 229.079C193.014 229.079 193.062 229.062 193.1 229.03C193.224 228.951 193.322 228.836 193.38 228.7C193.456 228.571 193.495 228.424 193.495 228.275C193.495 228.126 193.456 227.979 193.38 227.85L192.09 226.62Z" fill="#455A64"/>
<path d="M158.73 259.46V254.9C158.776 254.117 159.006 253.357 159.4 252.679C159.794 252.002 160.342 251.427 161 251L363.85 134C365.1 133.28 366.11 133.86 366.11 135.3V139.8C366.066 140.583 365.839 141.345 365.447 142.025C365.054 142.704 364.507 143.281 363.85 143.71L161 260.77C159.74 261.49 158.73 260.9 158.73 259.46Z" fill="white"/>
<path d="M360.76 144C360.707 144.01 360.653 144.01 360.6 144C360.494 143.947 360.409 143.86 360.358 143.753C360.308 143.646 360.294 143.525 360.32 143.41L360.54 141.52L359.62 140.86C359.555 140.812 359.502 140.749 359.467 140.675C359.432 140.602 359.416 140.521 359.42 140.44C359.421 140.302 359.451 140.167 359.51 140.042C359.569 139.918 359.654 139.808 359.76 139.72L361.08 138.72C361.124 138.68 361.156 138.628 361.17 138.57L361.76 136.63C361.794 136.488 361.867 136.36 361.972 136.259C362.076 136.157 362.207 136.089 362.35 136.06C362.439 136.057 362.527 136.08 362.604 136.126C362.68 136.172 362.741 136.24 362.78 136.32L363.31 137.46L364.51 137C364.594 136.964 364.688 136.955 364.778 136.975C364.867 136.994 364.949 137.042 365.01 137.11C365.089 137.23 365.131 137.371 365.131 137.515C365.131 137.659 365.089 137.8 365.01 137.92L364.01 139.72C364 139.773 364 139.827 364.01 139.88L364.24 141.51C364.254 141.643 364.238 141.778 364.193 141.904C364.148 142.031 364.075 142.145 363.98 142.24C363.927 142.303 363.859 142.353 363.782 142.384C363.706 142.416 363.622 142.428 363.54 142.42L362.35 142.27L361.2 143.81C361.144 143.871 361.076 143.92 361.001 143.953C360.925 143.985 360.843 144.001 360.76 144ZM360 140.33L360.92 140.99C360.997 141.055 361.056 141.139 361.089 141.234C361.123 141.329 361.13 141.431 361.11 141.53L361 143.09L362 141.83C362.057 141.749 362.134 141.683 362.223 141.64C362.312 141.596 362.411 141.575 362.51 141.58L363.7 141.73C363.7 141.73 363.75 141.57 363.7 141.49L363.47 139.86C363.454 139.68 363.492 139.498 363.58 139.34L364.58 137.54L363.48 137.96C363.428 137.983 363.371 137.995 363.314 137.996C363.257 137.997 363.2 137.986 363.147 137.965C363.094 137.943 363.045 137.912 363.005 137.871C362.964 137.831 362.932 137.783 362.91 137.73L362.42 136.73L361.83 138.67C361.781 138.848 361.676 139.006 361.53 139.12L360.21 140.12C360.117 140.162 360.042 140.237 360 140.33Z" fill="#E0E0E0"/>
<g opacity="0.5">
<path d="M368.75 133.38C368.577 133.382 368.408 133.326 368.27 133.221C368.132 133.116 368.033 132.969 367.988 132.801C367.944 132.634 367.956 132.457 368.023 132.297C368.09 132.137 368.209 132.005 368.36 131.92L374.7 128.26C374.789 128.208 374.887 128.174 374.988 128.16C375.09 128.146 375.194 128.152 375.293 128.178C375.392 128.204 375.485 128.25 375.567 128.312C375.649 128.374 375.718 128.451 375.77 128.54C375.822 128.629 375.856 128.727 375.87 128.828C375.884 128.93 375.877 129.034 375.851 129.133C375.825 129.232 375.78 129.326 375.718 129.407C375.656 129.489 375.579 129.558 375.49 129.61L369.14 133.28C369.021 133.347 368.886 133.381 368.75 133.38Z" fill="#455A64"/>
<path d="M368.75 137.05C368.612 137.05 368.477 137.014 368.358 136.945C368.239 136.877 368.14 136.779 368.07 136.66C368.018 136.571 367.985 136.472 367.971 136.37C367.958 136.268 367.965 136.164 367.992 136.065C368.019 135.965 368.065 135.872 368.128 135.79C368.192 135.709 368.27 135.641 368.36 135.59L374.7 131.92C374.878 131.838 375.081 131.825 375.268 131.885C375.456 131.944 375.614 132.071 375.713 132.241C375.812 132.411 375.843 132.612 375.802 132.804C375.761 132.996 375.65 133.166 375.49 133.28L369.14 136.94C369.022 137.01 368.887 137.048 368.75 137.05Z" fill="#455A64"/>
<path d="M368.75 140.71C368.612 140.71 368.477 140.674 368.358 140.605C368.239 140.537 368.139 140.439 368.07 140.32C368.018 140.232 367.985 140.134 367.972 140.032C367.958 139.931 367.965 139.828 367.992 139.729C368.019 139.63 368.066 139.538 368.129 139.458C368.192 139.377 368.27 139.31 368.36 139.26L374.7 135.59C374.788 135.538 374.886 135.504 374.988 135.49C375.09 135.476 375.193 135.482 375.293 135.508C375.392 135.534 375.485 135.58 375.567 135.642C375.649 135.704 375.718 135.781 375.77 135.87C375.822 135.959 375.856 136.057 375.87 136.158C375.884 136.26 375.877 136.364 375.851 136.463C375.825 136.562 375.78 136.656 375.718 136.737C375.656 136.819 375.578 136.888 375.49 136.94L369.14 140.61C369.021 140.677 368.886 140.711 368.75 140.71Z" fill="#455A64"/>
</g>
<path d="M129.11 266.95V281.62L124.87 279.17V264.51L129.11 266.95Z" fill="#E0E0E0"/>
<path d="M301.986 208.119L300.305 209.101L305.166 190.927L306.82 189.96L311.681 202.451L310 203.433L306.045 192.839L305.941 192.899L301.986 208.119ZM302.606 201.767L309.38 197.807V199.454L302.606 203.414V201.767ZM313.742 201.246V185.913L315.268 185.021V190.681L315.397 190.606C315.509 190.34 315.664 189.995 315.862 189.57C316.065 189.137 316.353 188.689 316.728 188.225C317.107 187.754 317.62 187.329 318.267 186.951C319.102 186.463 319.839 186.274 320.477 186.385C321.115 186.497 321.612 186.892 321.97 187.571C322.328 188.251 322.506 189.194 322.506 190.402C322.506 191.62 322.328 192.78 321.97 193.883C321.612 194.98 321.117 195.959 320.483 196.818C319.85 197.673 319.12 198.342 318.292 198.825C317.655 199.198 317.144 199.374 316.761 199.354C316.377 199.328 316.082 199.219 315.875 199.026C315.668 198.827 315.509 198.656 315.397 198.512L315.216 198.617V200.384L313.742 201.246ZM315.242 194.619C315.242 195.488 315.352 196.19 315.571 196.725C315.791 197.255 316.112 197.584 316.534 197.712C316.957 197.834 317.474 197.717 318.086 197.359C318.723 196.986 319.255 196.48 319.682 195.842C320.113 195.195 320.436 194.477 320.652 193.688C320.871 192.89 320.981 192.083 320.981 191.264C320.981 190.455 320.873 189.79 320.658 189.267C320.447 188.736 320.126 188.407 319.695 188.28C319.268 188.145 318.732 188.267 318.086 188.644C317.465 189.007 316.944 189.494 316.521 190.105C316.099 190.712 315.78 191.402 315.565 192.177C315.349 192.947 315.242 193.761 315.242 194.619ZM328.873 192.64C327.977 193.164 327.19 193.376 326.514 193.278C325.842 193.177 325.316 192.793 324.937 192.126C324.562 191.457 324.374 190.528 324.374 189.34C324.374 188.142 324.562 186.987 324.937 185.874C325.316 184.759 325.842 183.758 326.514 182.871C327.19 181.982 327.977 181.275 328.873 180.751C329.769 180.227 330.553 180.016 331.225 180.117C331.902 180.215 332.428 180.602 332.802 181.276C333.182 181.948 333.371 182.883 333.371 184.08C333.371 185.268 333.182 186.417 332.802 187.527C332.428 188.635 331.902 189.634 331.225 190.523C330.553 191.41 329.769 192.116 328.873 192.64ZM328.873 191.053C329.554 190.655 330.114 190.125 330.553 189.464C330.993 188.803 331.318 188.081 331.529 187.299C331.74 186.516 331.846 185.741 331.846 184.972C331.846 184.204 331.74 183.549 331.529 183.009C331.318 182.468 330.993 182.122 330.553 181.97C330.114 181.817 329.554 181.94 328.873 182.338C328.192 182.736 327.632 183.268 327.192 183.934C326.753 184.601 326.428 185.327 326.216 186.115C326.005 186.902 325.9 187.68 325.9 188.448C325.9 189.217 326.005 189.869 326.216 190.404C326.428 190.94 326.753 191.281 327.192 191.429C327.632 191.576 328.192 191.451 328.873 191.053ZM341.956 180.05V173.252L343.481 172.36V183.86L341.956 184.752V182.805L341.853 182.865C341.62 183.585 341.258 184.294 340.767 184.99C340.276 185.682 339.655 186.246 338.905 186.685C338.285 187.047 337.733 187.213 337.251 187.18C336.768 187.143 336.389 186.886 336.113 186.408C335.837 185.925 335.7 185.195 335.7 184.217V176.91L337.225 176.018V183.205C337.225 184.044 337.427 184.594 337.832 184.856C338.242 185.116 338.763 185.061 339.397 184.691C339.776 184.469 340.161 184.131 340.553 183.677C340.95 183.221 341.282 182.683 341.549 182.062C341.82 181.439 341.956 180.769 341.956 180.05ZM350.593 168.203V169.7L345.448 172.708V171.211L350.593 168.203ZM346.947 167.579L348.473 166.687V177.648C348.473 178.147 348.535 178.485 348.66 178.661C348.789 178.83 348.953 178.899 349.151 178.868C349.354 178.83 349.567 178.745 349.791 178.614C349.959 178.516 350.097 178.425 350.205 178.342C350.312 178.254 350.399 178.184 350.463 178.131L350.773 179.537C350.67 179.642 350.526 179.771 350.34 179.925C350.155 180.083 349.92 180.245 349.636 180.411C349.205 180.663 348.783 180.803 348.369 180.83C347.96 180.855 347.619 180.727 347.348 180.446C347.081 180.163 346.947 179.687 346.947 179.019V167.579ZM364.262 167.009V160.211L365.788 159.32V170.819L364.262 171.711V169.764L364.159 169.825C363.926 170.545 363.564 171.253 363.073 171.949C362.582 172.641 361.961 173.206 361.212 173.644C360.591 174.007 360.04 174.172 359.557 174.14C359.074 174.102 358.695 173.845 358.42 173.367C358.144 172.885 358.006 172.154 358.006 171.176V163.869L359.531 162.977V170.164C359.531 171.003 359.734 171.553 360.139 171.816C360.548 172.076 361.069 172.02 361.703 171.65C362.082 171.428 362.468 171.091 362.86 170.637C363.256 170.18 363.588 169.642 363.855 169.022C364.127 168.399 364.262 167.728 364.262 167.009ZM375.613 156.151L374.243 157.401C374.157 157.187 374.03 157.004 373.862 156.853C373.698 156.694 373.474 156.615 373.19 156.617C372.905 156.618 372.541 156.749 372.097 157.008C371.49 157.364 370.984 157.822 370.579 158.383C370.178 158.937 369.977 159.461 369.977 159.955C369.977 160.394 370.115 160.66 370.391 160.754C370.667 160.847 371.098 160.807 371.684 160.634L373.157 160.192C374.045 159.923 374.706 159.918 375.142 160.177C375.577 160.432 375.794 160.961 375.794 161.765C375.794 162.424 375.631 163.108 375.303 163.819C374.98 164.527 374.528 165.201 373.946 165.84C373.364 166.48 372.688 167.025 371.916 167.476C370.904 168.068 370.066 168.303 369.402 168.182C368.739 168.061 368.319 167.563 368.142 166.688L369.59 165.422C369.728 165.96 369.988 166.272 370.372 166.357C370.759 166.44 371.266 166.299 371.891 165.934C372.602 165.518 373.166 165.013 373.584 164.42C374.006 163.818 374.217 163.271 374.217 162.777C374.217 162.377 374.097 162.113 373.855 161.985C373.614 161.852 373.244 161.864 372.744 162.021L371.089 162.539C370.18 162.821 369.512 162.825 369.085 162.55C368.663 162.268 368.452 161.73 368.452 160.936C368.452 160.287 368.609 159.622 368.924 158.939C369.243 158.253 369.676 157.608 370.223 157.004C370.775 156.397 371.399 155.889 372.097 155.481C373.08 154.907 373.851 154.705 374.411 154.877C374.976 155.046 375.376 155.471 375.613 156.151Z" fill="#455A64"/>
<path opacity="0.1" d="M139.94 331.51L208.99 291.64V404.21L139.74 443.97L139.94 331.51Z" fill="#89C400"/>
<path opacity="0.15" d="M224.21 284.93L307.51 236.84C309.19 235.84 310.51 236.6 310.51 238.47C310.447 239.505 310.143 240.51 309.622 241.406C309.101 242.302 308.378 243.064 307.51 243.63L224.2 292.26C222.53 293.26 221.2 292.46 221.2 290.53V290.18C221.256 289.13 221.558 288.109 222.081 287.197C222.603 286.285 223.333 285.509 224.21 284.93Z" fill="#89C400"/>
<path opacity="0.1" d="M223.34 299.5L361.18 219.92C362.38 219.23 363.35 219.72 363.35 221.01C363.297 221.738 363.073 222.444 362.696 223.07C362.319 223.695 361.799 224.223 361.18 224.61L223.34 304.19C222.15 304.88 221.18 304.39 221.18 303.1C221.232 302.373 221.455 301.668 221.831 301.042C222.206 300.417 222.723 299.889 223.34 299.5Z" fill="#89C400"/>
<path opacity="0.1" d="M223.34 308.92L361.18 229.34C362.38 228.65 363.35 229.14 363.35 230.43C363.297 231.158 363.073 231.864 362.696 232.49C362.319 233.115 361.799 233.643 361.18 234.03L223.34 313.61C222.15 314.3 221.18 313.81 221.18 312.51C221.234 311.784 221.458 311.081 221.833 310.458C222.208 309.834 222.724 309.308 223.34 308.92Z" fill="#89C400"/>
<path opacity="0.1" d="M223.34 318.33L361.18 238.75C362.38 238.06 363.35 238.55 363.35 239.85C363.296 240.577 363.071 241.281 362.694 241.904C362.317 242.528 361.798 243.054 361.18 243.44L223.34 323C222.15 323.69 221.18 323.2 221.18 321.9C221.239 321.178 221.464 320.48 221.839 319.86C222.214 319.241 222.728 318.717 223.34 318.33Z" fill="#89C400"/>
<path opacity="0.1" d="M223.34 327.75L361.18 248.17C362.38 247.48 363.35 247.97 363.35 249.26C363.297 249.988 363.073 250.694 362.696 251.32C362.319 251.945 361.799 252.473 361.18 252.86L223.34 332.44C222.15 333.13 221.18 332.64 221.18 331.35C221.232 330.623 221.455 329.918 221.831 329.292C222.206 328.667 222.723 328.139 223.34 327.75Z" fill="#89C400"/>
<path opacity="0.1" d="M223.34 337.17L319.52 281.17C320.71 280.48 321.68 280.97 321.68 282.27C321.626 282.996 321.402 283.699 321.027 284.322C320.652 284.946 320.136 285.472 319.52 285.86L223.34 341.86C222.15 342.55 221.18 342.06 221.18 340.76C221.234 340.034 221.458 339.331 221.833 338.708C222.208 338.084 222.724 337.558 223.34 337.17Z" fill="#89C400"/>
<path opacity="0.1" d="M223.34 356L361.18 276.42C362.38 275.73 363.35 276.22 363.35 277.51C363.297 278.238 363.073 278.944 362.696 279.57C362.319 280.195 361.799 280.723 361.18 281.11L223.34 360.69C222.15 361.38 221.18 360.89 221.18 359.6C221.232 358.873 221.455 358.168 221.831 357.542C222.206 356.917 222.723 356.389 223.34 356Z" fill="#89C400"/>
<path opacity="0.1" d="M223.34 365.42L361.18 285.84C362.38 285.15 363.35 285.64 363.35 286.93C363.297 287.658 363.073 288.364 362.696 288.99C362.319 289.615 361.799 290.143 361.18 290.53L223.34 370.11C222.15 370.8 221.18 370.31 221.18 369.01C221.234 368.284 221.458 367.581 221.833 366.958C222.208 366.334 222.724 365.808 223.34 365.42Z" fill="#89C400"/>
<path opacity="0.1" d="M223.34 374.83L361.18 295.25C362.38 294.56 363.35 295.05 363.35 296.35C363.296 297.077 363.071 297.781 362.694 298.404C362.317 299.028 361.798 299.554 361.18 299.94L223.34 379.53C222.15 380.22 221.18 379.73 221.18 378.43C221.234 377.703 221.458 376.999 221.833 376.374C222.208 375.748 222.724 375.22 223.34 374.83Z" fill="#89C400"/>
<path opacity="0.1" d="M223.34 384.25L274 354.69C275.19 354 276.16 354.49 276.16 355.79C276.106 356.516 275.882 357.219 275.507 357.842C275.132 358.466 274.616 358.992 274 359.38L223.35 388.94C222.16 389.63 221.19 389.14 221.19 387.85C221.241 387.123 221.463 386.419 221.836 385.794C222.21 385.169 222.725 384.64 223.34 384.25Z" fill="#89C400"/>
<path d="M407.54 330.2C414.87 306.42 422 290.75 414.73 285.9C407.97 287.16 404.94 290.51 403.5 299.43C401.99 308.78 398.85 321.82 397.02 329.34C395.438 335.624 393.175 341.717 390.27 347.51C389.832 348.312 389.123 348.933 388.27 349.26C386.01 350.15 384.93 351.26 383.09 352.62C381.64 353.62 380.58 353.76 380.65 354.19C380.769 354.673 381.072 355.089 381.494 355.351C381.917 355.613 382.425 355.699 382.91 355.59C383.996 355.385 385.054 355.049 386.06 354.59C385.195 356.781 383.849 358.75 382.12 360.35C378.57 363.35 379.12 366.28 384.81 366.62C386.81 366.74 391.58 364.88 395.97 357.41C397.454 354.626 398.76 351.75 399.88 348.8C402.94 341.14 406.07 335 407.54 330.2Z" fill="#FFA8A7"/>
<path d="M416 285.62C416 285.62 410.36 285.33 406.94 289.1C403.52 292.87 399.54 315.39 399.54 315.39C399.54 315.39 403.28 320.53 413.14 318.39L416 285.62Z" fill="#89C400"/>
<path opacity="0.3" d="M416 285.62C416 285.62 410.36 285.33 406.94 289.1C403.52 292.87 399.54 315.39 399.54 315.39C399.54 315.39 403.28 320.53 413.14 318.39L416 285.62Z" fill="black"/>
<path d="M442.41 445.38H434.84V458.88H442.41V445.38Z" fill="#FFA8A7"/>
<path d="M416.16 444.66L408.59 444.94L408.21 430.65L416.16 430.38V444.66Z" fill="#FFA8A7"/>
<path d="M443.48 328.5C443.48 336.03 442.37 396.63 442.37 396.63C442.54 398.8 444.49 402.8 444.07 411.12C443.5 422.42 442.73 452.12 442.73 452.12C441.431 452.789 439.997 453.153 438.536 453.184C437.075 453.215 435.626 452.913 434.3 452.3C434.3 452.3 427.14 411.15 425.79 399.94C424.6 390.17 422.59 357.25 422.59 357.25L418.49 395.52C419.364 399.639 419.68 403.857 419.43 408.06C419.07 413.24 416.64 440.23 416.64 440.23C415.331 441.001 413.864 441.464 412.35 441.584C410.835 441.703 409.314 441.476 407.9 440.92C407.9 440.92 403.59 400.28 403.5 395.52C403.4 390.1 406.02 328.41 406.02 328.41L443.48 328.5Z" fill="#37474F"/>
<path d="M434.84 455V453.87C434.11 454.2 432.43 460.87 429.43 463.75C427.04 466.01 423.78 468.63 422.95 471.16C422.12 473.69 427.49 475.25 429.72 474.84C432.31 474.36 436.81 472.46 437.93 470.69C439.05 468.92 439.59 466.33 440.51 465.04C441.43 463.75 443.51 462.31 444.03 460.81C444.31 459.99 444.03 458.19 443.6 456.67C443.17 455.15 442.87 453.74 442.41 453.87V454.73C441.349 455.61 440.009 456.085 438.63 456.07C437.52 456.1 434.83 455.87 434.84 455Z" fill="#263238"/>
<path d="M408.51 442.5C408.12 442.5 407.8 443.09 406.93 444.07C405.645 445.426 404.14 446.555 402.48 447.41C399.64 448.89 394.13 451.16 391.63 452.33C390.08 453.06 390.15 455.02 391.76 456.14C393.37 457.26 397.26 458.06 401.93 456.97C404.47 456.38 407.79 453.97 409.88 454.06C411.97 454.15 415.88 454.17 417.45 453.06C419.02 451.95 418.38 449.58 417.94 447.54C417.46 445.32 416.87 441.85 416.16 442V442.77C415.25 444.2 410.55 444.77 408.55 443.77L408.51 442.5Z" fill="#263238"/>
<path d="M422.59 357.26C418.65 355.973 415.049 353.821 412.05 350.96C412.05 350.96 414.05 354.96 420.13 358.62L418.84 392.8L422.59 357.26Z" fill="#263238"/>
<path d="M439.54 287.42C439.54 287.42 445.46 287.97 445.04 299.25L443.73 317.25V344.25C438.16 350.56 413.48 350.09 405.03 343.74C405.03 343.74 405.98 311.81 406.55 299.52C406.96 290.79 408.97 286.39 417.55 285.43L428.1 285.89L439.54 287.42Z" fill="#89C400"/>
<path opacity="0.3" d="M422.71 293.34L421.35 302.82L418.19 302.76L421.76 303.33L422.71 293.34Z" fill="black"/>
<path d="M430.61 262C430.672 265.052 429.519 268.004 427.406 270.207C425.293 272.41 422.392 273.684 419.34 273.75C413.11 273.75 408.34 268.48 408.06 262.01C407.57 250.54 413.11 250.26 419.34 250.26C422.39 250.326 425.29 251.599 427.403 253.8C429.516 256 430.669 258.95 430.61 262Z" fill="#263238"/>
<path d="M437 267.81C437 267.81 435.27 276.27 434.58 277.66C434.134 278.508 433.372 279.147 432.46 279.44L432.58 273.49L437 267.81Z" fill="#263238"/>
<path d="M434.86 255.69C434.86 255.69 436.1 255.38 437.42 257.44C438.55 259.2 438.81 263.16 437.03 267.81L433.78 268.2L434.86 255.69Z" fill="#263238"/>
<path d="M432.8 268.2C433.45 268.61 434.38 267.3 435.19 266.42C436 265.54 438.62 264.35 439.94 267.22C441.26 270.09 438.78 274.03 436.71 274.71C433.14 275.88 432.61 273.49 432.61 273.49L432.33 286.89C427.6 294.22 416.87 293.95 420.73 286.54V282.46C419.141 282.724 417.528 282.811 415.92 282.72C413.3 282.29 411.65 280.14 410.85 277.18C409.57 272.43 409.09 268.6 410.17 259.25C411.37 249 422.81 248.91 429 253C435.19 257.09 432.8 268.2 432.8 268.2Z" fill="#FFA8A7"/>
<path d="M432.39 283.89C431.29 286.142 429.709 288.125 427.76 289.7C426.104 290.924 424.181 291.739 422.15 292.08C423.826 293.216 425.199 294.743 426.15 296.53C427.34 299.13 435.67 291.96 435.59 286.87C435.59 286.87 434.29 281.76 432.49 281.44L432.39 283.89Z" fill="#263238"/>
<path d="M422.15 292.08C422.15 292.08 419.58 290.81 420.73 286.54V282.46L419.6 282.61C418.283 283.893 417.348 285.517 416.9 287.3C416.64 288.47 416 294.39 417.13 295.56C418.26 296.73 419.84 292.4 422.15 292.08Z" fill="#263238"/>
<path d="M428.42 257C428.712 256.936 429.017 256.953 429.3 257.05C430.3 257.49 430.48 260.51 430.65 261.38C431.22 264.31 431.7 269.28 432.8 269.3C433.13 269.3 434.38 267.15 435.19 266.38C436.32 265.31 434.86 255.65 434.86 255.65C435.158 254.816 435.215 253.915 435.024 253.05C434.833 252.185 434.402 251.391 433.78 250.76C431.78 248.44 428.56 247.92 425.65 247.76C422.22 247.57 418.74 247.83 415.36 247.08C414.298 246.785 413.22 246.555 412.13 246.39C412.084 246.37 412.035 246.36 411.985 246.36C411.935 246.36 411.886 246.37 411.84 246.39C411.73 246.48 411.75 246.65 411.78 246.79C411.992 247.803 412.349 248.779 412.84 249.69C410.828 249.531 408.841 249.138 406.92 248.52C406.809 248.485 406.691 248.485 406.58 248.52C406.35 248.59 406.31 248.89 406.33 249.13C406.46 251.55 407.61 255.21 409.58 256.63C411.326 257.773 413.354 258.413 415.44 258.48C420.74 258.68 424 257.56 428.42 257Z" fill="#263238"/>
<path d="M434.86 256.2L438.81 253.99C438.689 253.718 438.513 253.474 438.293 253.274C438.073 253.074 437.813 252.922 437.531 252.828C437.249 252.734 436.95 252.7 436.653 252.728C436.357 252.755 436.07 252.845 435.81 252.99C435.285 253.315 434.897 253.821 434.722 254.414C434.547 255.006 434.596 255.642 434.86 256.2Z" fill="#263238"/>
<path d="M420.74 282.46C420.74 282.46 426.59 281.23 428.64 280.1C429.854 279.432 430.84 278.415 431.47 277.18C431.165 278.422 430.618 279.591 429.86 280.62C428.37 282.62 420.74 284.08 420.74 284.08V282.46Z" fill="#F28F8F"/>
<path d="M422.15 266.68C422.171 266.906 422.258 267.12 422.398 267.297C422.539 267.475 422.728 267.608 422.943 267.679C423.158 267.751 423.389 267.759 423.608 267.703C423.828 267.646 424.026 267.527 424.178 267.359C424.331 267.192 424.432 266.984 424.469 266.761C424.506 266.537 424.477 266.308 424.386 266.101C424.296 265.893 424.146 265.716 423.957 265.592C423.768 265.468 423.547 265.401 423.32 265.4C423.158 265.405 423 265.442 422.853 265.51C422.706 265.578 422.574 265.674 422.465 265.793C422.356 265.912 422.272 266.052 422.218 266.205C422.164 266.357 422.141 266.519 422.15 266.68Z" fill="#263238"/>
<path d="M424 261.62L426.51 263.06C426.691 262.714 426.74 262.313 426.646 261.933C426.552 261.554 426.322 261.222 426 261C425.832 260.893 425.643 260.823 425.445 260.796C425.247 260.77 425.046 260.786 424.856 260.845C424.666 260.905 424.49 261.004 424.342 261.138C424.195 261.272 424.078 261.436 424 261.62Z" fill="#263238"/>
<path d="M421.27 275.12L418.59 276.12C418.643 276.304 418.733 276.475 418.855 276.623C418.977 276.771 419.128 276.892 419.298 276.98C419.469 277.067 419.656 277.118 419.847 277.13C420.038 277.142 420.23 277.115 420.41 277.05C420.766 276.891 421.051 276.606 421.21 276.25C421.369 275.894 421.39 275.491 421.27 275.12Z" fill="#F28F8F"/>
<path d="M411.38 262.69L413.67 260.85C413.567 260.689 413.43 260.551 413.27 260.447C413.11 260.342 412.929 260.273 412.74 260.244C412.551 260.215 412.358 260.226 412.173 260.277C411.989 260.328 411.817 260.418 411.67 260.54C411.364 260.799 411.166 261.162 411.112 261.559C411.058 261.956 411.154 262.359 411.38 262.69Z" fill="#263238"/>
<path d="M412.39 266.33C412.383 266.49 412.408 266.649 412.464 266.799C412.519 266.949 412.603 267.087 412.712 267.204C412.821 267.321 412.952 267.416 413.097 267.482C413.243 267.548 413.4 267.585 413.56 267.59C413.897 267.59 414.22 267.456 414.458 267.218C414.696 266.98 414.83 266.657 414.83 266.32C414.83 265.983 414.696 265.66 414.458 265.422C414.22 265.184 413.897 265.05 413.56 265.05C413.236 265.068 412.933 265.212 412.714 265.452C412.495 265.691 412.379 266.006 412.39 266.33Z" fill="#263238"/>
<path d="M418.67 265.35L418.53 272.76L414.32 271.79L418.67 265.35Z" fill="#F28F8F"/>
<path d="M451.06 272.8C452.75 270.56 456.17 275.53 457.75 278.96C459.33 282.39 459.36 284.33 458.06 285.69C456.76 287.05 454.31 286.23 451.86 282.98C449.41 279.73 450.09 274.45 451.06 272.8Z" fill="#89C400"/>
<path opacity="0.5" d="M451.06 272.8C452.75 270.56 456.17 275.53 457.75 278.96C459.33 282.39 459.36 284.33 458.06 285.69C456.76 287.05 454.31 286.23 451.86 282.98C449.41 279.73 450.09 274.45 451.06 272.8Z" fill="black"/>
<path d="M463 273.46C457 287.46 448.65 295.35 444.9 304.36C439.99 304.03 436.16 292.16 439.82 287.09C439.82 287.09 454.2 271.52 455.5 265.4C456.66 259.97 458.21 251.01 458.08 246.4C458.029 245.649 457.713 244.941 457.19 244.4C455.68 242.77 455.68 241.47 454.71 239.68C453.96 238.28 453.13 237.76 453.37 237.44C453.681 237.107 454.106 236.904 454.56 236.871C455.014 236.837 455.464 236.976 455.82 237.26C456.514 237.767 457.136 238.366 457.67 239.04C457.855 237.242 457.562 235.428 456.82 233.78C455.15 230 455.56 228.08 460.65 229.42C463.85 230.27 465.85 232.93 466.33 240.6C466.552 243.792 466.572 246.995 466.39 250.19C465.83 256.1 465.48 262.26 464.75 267.19C464.435 269.346 463.847 271.453 463 273.46Z" fill="#FFA8A7"/>
<path d="M438.32 287.26L451 272.76C451 272.76 449.49 276.29 452.79 281.44C456.09 286.59 458.05 285.69 458.05 285.69C458.05 285.69 450.56 296.62 448.56 300.28C446.56 303.94 444.47 307.03 444.47 307.03C444.249 307.457 443.905 307.808 443.483 308.038C443.06 308.268 442.579 308.366 442.1 308.32C440.24 308.32 435.31 300.06 438.32 287.26Z" fill="#89C400"/>
<path opacity="0.3" d="M438.32 287.26L451 272.76C451 272.76 449.49 276.29 452.79 281.44C456.09 286.59 458.05 285.69 458.05 285.69C458.05 285.69 450.56 296.62 448.56 300.28C446.56 303.94 444.47 307.03 444.47 307.03C444.249 307.457 443.905 307.808 443.483 308.038C443.06 308.268 442.579 308.366 442.1 308.32C440.24 308.32 435.31 300.06 438.32 287.26Z" fill="black"/>
<path d="M335.42 319.85L341.39 327.8L334.97 335.15L326.7 325.48L335.42 319.85Z" fill="#F28F8F"/>
<path d="M315.87 301.77C321.08 302.01 323.56 302.77 326.29 306.03C329.02 309.29 342.66 329 342.66 329C342.66 329 340.25 335.76 334.97 335.18L325.38 325.29L315.87 301.77Z" fill="#455A64"/>
<path d="M290.31 466.89C289.939 468.964 289.739 471.064 289.71 473.17C289.64 476.97 288.94 478.33 288.85 481.45C288.74 485.02 289.36 486.36 290.85 488.36C292.34 490.36 296.1 492.19 297.71 488.8C299.32 485.41 299.11 483.19 298.59 479.68C298.07 476.17 297.99 474.06 297.69 471.3C297.41 468.86 297.09 467.01 297.09 467.01L290.31 466.89Z" fill="#263238"/>
<path d="M301.12 437L288.57 436.77C288.76 445.15 290.09 459.09 290.31 466.94C290.31 468.42 290.31 478.43 290.83 481.48C291.67 486.05 297.09 485.43 297.38 482.7C297.67 479.97 297.03 468.27 297.05 467.06C297 462.06 299.36 448.88 300.6 439.83C300.66 439.34 301.06 437.38 301.12 437Z" fill="#FFBDA7"/>
<path d="M319.55 460.38C319.55 460.38 318.91 460.38 318.8 460.94C318.69 461.5 318.65 462.56 318.39 463.6C317.964 465.23 317.815 466.92 317.95 468.6C318.16 469.77 320.83 471.51 322.66 471.82C324.49 472.13 327.06 473.93 328.49 475.28C330.786 477.175 333.627 478.289 336.6 478.46C339.6 478.46 341.77 477.46 342.77 475.82C343.77 474.18 341.86 473.99 338.38 471.73L335.67 469.97C330.16 466.37 328.14 464.44 326.58 460.84L319.55 460.38Z" fill="#263238"/>
<path d="M326.62 458.42C326.53 455.82 327.85 436.72 327.85 436.72L317.06 437.94C319.62 453.16 319.82 458.35 319.53 460.57C319.476 460.775 319.452 460.988 319.46 461.2C319.46 464.2 322.81 465.76 325.46 467.73C326.46 468.51 329.13 470.91 332.23 471.96C334.23 472.65 337.94 472.96 338.41 471.69C335.25 469.27 330.93 466.11 328.41 463.34C327.17 462 326.71 461 326.62 458.42Z" fill="#FFBDA7"/>
<path d="M291.48 350.36C285.6 363.22 291.7 408.5 291.7 408.5C291.52 410.59 289.13 414.69 288.25 423.88C287.2 434.72 290.18 463.77 290.18 463.77C291.231 464.407 292.431 464.757 293.66 464.783C294.889 464.809 296.103 464.512 297.18 463.92C297.18 463.92 304.77 421.24 306.18 410.46C307.37 401.04 309.65 380.34 309.65 380.34L316.13 410.4C315.18 413.436 314.491 416.547 314.07 419.7C313.46 426.04 319.64 457.89 319.64 457.89C320.754 458.35 321.95 458.575 323.155 458.551C324.359 458.527 325.546 458.254 326.64 457.75C326.64 457.75 329.37 416.61 329.95 408.97C330.95 396.13 327.5 356.08 325.15 348.48L291.48 350.36Z" fill="#89C400"/>
<path opacity="0.5" d="M291.48 350.36C285.6 363.22 291.7 408.5 291.7 408.5C291.52 410.59 289.13 414.69 288.25 423.88C287.2 434.72 290.18 463.77 290.18 463.77C291.231 464.407 292.431 464.757 293.66 464.783C294.889 464.809 296.103 464.512 297.18 463.92C297.18 463.92 304.77 421.24 306.18 410.46C307.37 401.04 309.65 380.34 309.65 380.34L316.13 410.4C315.18 413.436 314.491 416.547 314.07 419.7C313.46 426.04 319.64 457.89 319.64 457.89C320.754 458.35 321.95 458.575 323.155 458.551C324.359 458.527 325.546 458.254 326.64 457.75C326.64 457.75 329.37 416.61 329.95 408.97C330.95 396.13 327.5 356.08 325.15 348.48L291.48 350.36Z" fill="black"/>
<path opacity="0.2" d="M309.63 380.34L311.54 368.4C311.54 368.4 319.62 366.73 323.29 363.28C320.759 366.248 317.447 368.448 313.73 369.63L311.58 378.83L315.34 406.66L309.63 380.34Z" fill="black"/>
<path d="M294.5 310.43L302.5 312.51V295.58C298.08 294.43 294.5 296.98 294.5 301.28V310.43Z" fill="#89C400"/>
<path opacity="0.6" d="M294.5 310.43L302.5 312.51V295.58C298.08 294.43 294.5 296.98 294.5 301.28V310.43Z" fill="black"/>
<path d="M310.34 298L307.47 297.94C298.71 297.73 291.77 290.18 291.96 281.06C291.96 271.12 299.66 263.06 309.2 262.97C318.74 262.92 326.52 270.97 326.57 280.87V281.87C326.33 291 319.08 298.19 310.34 298Z" fill="#89C400"/>
<path opacity="0.6" d="M310.34 298L307.47 297.94C298.71 297.73 291.77 290.18 291.96 281.06C291.96 271.12 299.66 263.06 309.2 262.97C318.74 262.92 326.52 270.97 326.57 280.87V281.87C326.33 291 319.08 298.19 310.34 298Z" fill="black"/>
<path d="M296.93 267.12C296.86 266.83 296.731 266.557 296.552 266.319C296.372 266.081 296.145 265.883 295.885 265.736C295.625 265.59 295.338 265.499 295.041 265.468C294.744 265.438 294.444 265.469 294.16 265.56L294.93 268.56C294.771 268.358 294.574 268.188 294.35 268.06C294.09 267.913 293.803 267.823 293.506 267.794C293.21 267.765 292.91 267.799 292.628 267.893C292.345 267.988 292.085 268.14 291.865 268.341C291.645 268.542 291.469 268.787 291.35 269.06L295.25 271.35C295.453 270.959 295.543 270.519 295.51 270.08C296.068 269.846 296.521 269.416 296.783 268.87C297.045 268.324 297.097 267.702 296.93 267.12Z" fill="#89C400"/>
<path opacity="0.6" d="M296.93 267.12C296.86 266.83 296.731 266.557 296.552 266.319C296.372 266.081 296.145 265.883 295.885 265.736C295.625 265.59 295.338 265.499 295.041 265.468C294.744 265.438 294.444 265.469 294.16 265.56L294.93 268.56C294.771 268.358 294.574 268.188 294.35 268.06C294.09 267.913 293.803 267.823 293.506 267.794C293.21 267.765 292.91 267.799 292.628 267.893C292.345 267.988 292.085 268.14 291.865 268.341C291.645 268.542 291.469 268.787 291.35 269.06L295.25 271.35C295.453 270.959 295.543 270.519 295.51 270.08C296.068 269.846 296.521 269.416 296.783 268.87C297.045 268.324 297.097 267.702 296.93 267.12Z" fill="black"/>
<path d="M301.66 302.46C298.967 302.825 296.296 303.339 293.66 304C296.76 311.6 291.9 323.34 291.9 323.34L296.49 337.47C293.32 343.96 290.71 347.18 289.63 352.47C292.55 358.17 313.16 363.61 326.58 353.22C326.58 353.22 326.15 338.79 324.44 330.38C328.83 321.81 328.12 319.29 327.22 316.3C325.13 309.35 320.91 306.68 315.88 301.78L312.88 301.46L301.66 302.46Z" fill="#37474F"/>
<path d="M297 343.13C299.49 340.58 304.77 339.85 304.77 339.85L299.92 337.09L294.5 324C296.774 319.544 297.898 314.591 297.77 309.59L294.65 308.84C295.03 315.77 291.89 323.35 291.89 323.35L296.48 337.48C293.31 343.97 290.7 347.19 289.62 352.48C291.62 356.38 301.91 360.16 312.51 358.82C298.31 357.86 294.61 345.6 297 343.13Z" fill="#263238"/>
<path d="M311.35 358.93L311.93 358.87C311.735 358.874 311.541 358.894 311.35 358.93Z" fill="#E6E6E6"/>
<path d="M320.13 271.83C321.85 273.41 324 276.83 323.83 286.83C323.68 295.33 321.05 297.44 319.72 298.05C318.39 298.66 315.84 298.31 313.35 297.89V301.41C313.35 301.41 316.63 305.05 316.43 307.41C316.23 309.77 311.75 310.72 308.52 308.41C306.244 306.687 304.224 304.65 302.52 302.36V291.67C302.52 291.67 301.06 293.16 298.52 290.92C296.52 289.06 295.76 285.92 297.35 284.22C297.758 283.817 298.259 283.521 298.808 283.358C299.358 283.194 299.939 283.168 300.501 283.281C301.063 283.395 301.588 283.645 302.031 284.009C302.474 284.373 302.82 284.841 303.04 285.37C306.851 284.971 310.562 283.902 314 282.21C315.934 281.28 317.548 279.797 318.639 277.95C319.73 276.102 320.249 273.972 320.13 271.83Z" fill="#FFBDA7"/>
<path d="M313.34 284.92C313.339 285.114 313.282 285.304 313.175 285.466C313.069 285.629 312.917 285.756 312.739 285.834C312.561 285.911 312.364 285.935 312.172 285.903C311.981 285.87 311.803 285.783 311.66 285.651C311.518 285.519 311.417 285.348 311.37 285.16C311.323 284.971 311.331 284.773 311.395 284.59C311.458 284.406 311.574 284.245 311.728 284.126C311.881 284.007 312.066 283.936 312.26 283.92C312.534 283.914 312.8 284.016 313.002 284.202C313.203 284.389 313.324 284.646 313.34 284.92Z" fill="#263238"/>
<path d="M313.73 292L316.4 292.87C316.357 293.052 316.278 293.224 316.166 293.374C316.055 293.525 315.914 293.651 315.751 293.745C315.589 293.838 315.41 293.898 315.224 293.919C315.038 293.941 314.849 293.924 314.67 293.87C314.307 293.734 314.008 293.466 313.833 293.119C313.659 292.773 313.622 292.373 313.73 292Z" fill="#F79776"/>
<path d="M323 281.09L320.57 280.26C320.608 280.098 320.68 279.945 320.781 279.813C320.882 279.68 321.01 279.57 321.156 279.49C321.302 279.41 321.463 279.362 321.629 279.348C321.795 279.334 321.962 279.355 322.12 279.41C322.448 279.532 322.719 279.772 322.881 280.082C323.044 280.392 323.086 280.751 323 281.09Z" fill="#263238"/>
<path d="M303.05 284.42V288.01C303.28 288.02 303.51 287.982 303.725 287.899C303.94 287.817 304.136 287.691 304.301 287.53C304.466 287.369 304.596 287.176 304.684 286.963C304.771 286.749 304.814 286.521 304.81 286.29C304.813 285.812 304.632 285.351 304.304 285.003C303.977 284.654 303.527 284.446 303.05 284.42Z" fill="#89C400"/>
<path opacity="0.6" d="M303.05 284.42V288.01C303.28 288.02 303.51 287.982 303.725 287.899C303.94 287.817 304.136 287.691 304.301 287.53C304.466 287.369 304.596 287.176 304.684 286.963C304.771 286.749 304.814 286.521 304.81 286.29C304.813 285.812 304.632 285.351 304.304 285.003C303.977 284.654 303.527 284.446 303.05 284.42Z" fill="black"/>
<path d="M322.12 284.57C322.142 284.858 322.049 285.142 321.862 285.362C321.674 285.581 321.408 285.717 321.12 285.74C320.9 285.762 320.678 285.717 320.483 285.611C320.289 285.506 320.13 285.345 320.028 285.148C319.925 284.952 319.884 284.73 319.909 284.51C319.934 284.29 320.024 284.082 320.168 283.914C320.312 283.746 320.503 283.624 320.716 283.565C320.929 283.506 321.156 283.513 321.365 283.583C321.575 283.654 321.759 283.785 321.894 283.961C322.028 284.137 322.107 284.349 322.12 284.57Z" fill="#263238"/>
<path d="M316.42 283.12L316.4 290.08L319.64 289.01L316.42 283.12Z" fill="#F79776"/>
<path d="M313.35 297.93C310.72 297.59 305.35 296 304.46 293.78C304.798 294.894 305.464 295.88 306.37 296.61C307.99 298.04 313.37 299.61 313.37 299.61L313.35 297.93Z" fill="#F79776"/>
<path d="M281.35 338C281.35 338 287.77 347.12 288.87 348.31C289.97 349.5 290.73 349.1 291.92 348.57C293.371 347.984 294.861 347.499 296.38 347.12C298.38 346.63 298.76 348.44 296.82 349.73C295.42 350.67 293.82 351.07 294.48 351.84C295.848 353.079 297.435 354.052 299.16 354.71C303.9 356.58 303.53 357.52 302.66 359.05C301.9 360.39 299.66 363.27 291.22 359.87C287.72 358.46 282.8 354.47 280.48 351.87C277.13 348.16 271.9 341.51 271.9 341.51L281.35 338Z" fill="#FFBDA7"/>
<path d="M294.89 303.67C292.57 303.82 288.2 304.38 282.72 313.48C277.91 321.48 270.46 332.29 269.08 336.16C268.52 337.73 270.7 340.98 273.51 344.31C277.34 344.14 280.83 341.49 282.64 339.37C282.165 338.242 281.575 337.167 280.88 336.16L292.12 323.34C292.12 323.34 296.39 319.43 297.28 314.34C298.24 308.82 297.94 304.48 294.89 303.67Z" fill="#455A64"/>
<path d="M357.82 320.93L330.11 328.23L322.48 359.58L348.83 351.93L357.82 320.93Z" fill="#89C400"/>
<path opacity="0.25" d="M357.82 320.93L330.11 328.23L322.48 359.58L348.83 351.93L357.82 320.93Z" fill="black"/>
<g opacity="0.1">
<path d="M345.3 343.13C345.764 344.098 346.502 344.908 347.423 345.459C348.345 346.011 349.407 346.279 350.48 346.23L350.68 345.54L345.3 343.13Z" fill="black"/>
</g>
<g opacity="0.1">
<path d="M349.47 325.91L349.7 324.85C349.83 324.27 348.2 324.24 346.07 324.85L341.98 325.85C339.85 326.41 337.98 327.33 337.89 327.91L337.67 328.97L349.47 325.91Z" fill="black"/>
</g>
<path d="M351.6 321.94C351.68 321.57 351.02 321.47 350.13 321.72L348.51 322.17C348.51 322.17 348.99 319.88 345.41 320.68C344.449 320.822 343.541 321.209 342.773 321.805C342.006 322.4 341.405 323.184 341.03 324.08L339.31 324.57C338.31 324.84 337.49 325.35 337.38 325.71L337.17 326.37L351.45 322.61L351.6 321.94Z" fill="#37474F"/>
<path d="M349.63 323.06C348.33 323.38 347.78 323.55 347.63 324.45C347.48 325.35 347.31 326.23 347.31 326.23L341 327.9C341 327.9 341.31 326.6 341.41 326.1C341.51 325.6 341.29 325.28 340.28 325.55L340.2 325.15L350.1 322.62L349.63 323.06Z" fill="#37474F"/>
<path d="M349.85 326L350.08 324.94C350.21 324.36 348.58 324.33 346.45 324.94L342.36 325.94C340.23 326.5 338.36 327.42 338.27 328L338.05 329.06L349.85 326Z" fill="#37474F"/>
<path d="M354.9 331C354.9 331 353.9 334.55 353.63 335.39C353.36 336.23 350.28 337.76 348.25 338.32C346.22 338.88 343.98 339.54 344.95 342.39C345.83 345.02 349.19 345.62 350.89 345.54C352.59 345.46 354.94 343.84 355.89 341.21C357.06 337.85 356.43 334.27 356.89 332.31C357.35 330.35 355.92 329.83 354.9 331Z" fill="#FFBDA7"/>
<path d="M249.93 331.83C246.13 328 244.77 329.49 244.29 333.69C244.112 335.452 243.685 337.179 243.02 338.82C242.902 337.948 242.663 337.096 242.31 336.29C242.143 335.854 241.817 335.497 241.398 335.291C240.979 335.085 240.497 335.046 240.05 335.18C239.68 335.33 240.14 336.18 240.05 337.85C239.98 339.93 239.3 341.08 239.79 343.29C239.961 344.121 239.829 344.987 239.42 345.73C237.42 349.53 230.83 356.55 226.21 361.61L208.66 345.76C202.66 340.36 200.72 337.93 194.93 338.32C196.741 339.007 198.41 340.024 199.85 341.32C202.54 343.59 201.9 356.58 201.9 356.58C201.9 356.58 221.82 370.86 223.9 372.22C224.2 372.42 224.51 372.6 224.81 372.77C225.793 373.283 226.921 373.448 228.01 373.239C229.099 373.03 230.086 372.46 230.81 371.62C235.06 366.76 241.26 357.19 244.81 352.22C246.433 349.814 247.88 347.294 249.14 344.68C252.7 337.61 252.31 334.23 249.93 331.83Z" fill="#914F4E"/>
<path d="M195.55 338C196.949 337.745 198.386 337.792 199.766 338.137C201.145 338.482 202.435 339.117 203.55 340C206.97 342.6 221.55 356 221.55 356C221.55 356 221.95 363.09 214.55 367.31L196.68 354.71L195.55 338Z" fill="#89C400"/>
<path opacity="0.3" d="M195.55 338C196.949 337.745 198.386 337.792 199.766 338.137C201.145 338.482 202.435 339.117 203.55 340C206.97 342.6 221.55 356 221.55 356C221.55 356 221.95 363.09 214.55 367.31L196.68 354.71L195.55 338Z" fill="black"/>
<path d="M178.3 497.96H170.73V511.46H178.3V497.96Z" fill="#914F4E"/>
<path d="M196.98 497.24L204.55 497.51L204.93 483.22L196.98 482.95V497.24Z" fill="#914F4E"/>
<path d="M169.66 381.07C169.66 388.6 170.77 449.21 170.77 449.21C170.6 451.37 168.65 455.37 169.07 463.69C169.64 475 170.41 504.69 170.41 504.69C171.71 505.356 173.145 505.717 174.605 505.747C176.066 505.776 177.514 505.473 178.84 504.86C178.84 504.86 186 463.71 187.36 452.51C188.54 442.73 190.55 409.81 190.55 409.81L194.65 448.09C193.776 452.206 193.46 456.42 193.71 460.62C194.07 465.8 196.5 492.79 196.5 492.79C197.809 493.564 199.278 494.03 200.794 494.151C202.31 494.273 203.834 494.046 205.25 493.49C205.25 493.49 209.55 452.84 209.64 448.09C209.74 442.67 207.12 380.97 207.12 380.97L169.66 381.07Z" fill="#37474F"/>
<path d="M178.3 507.56V506.44C179.03 506.77 180.71 513.44 183.71 516.31C186.1 518.58 189.36 521.2 190.19 523.73C191.02 526.26 185.65 527.81 183.42 527.4C180.83 526.92 176.33 525.02 175.21 523.26C174.09 521.5 173.55 518.89 172.63 517.6C171.71 516.31 169.63 514.87 169.11 513.37C168.961 511.975 169.108 510.565 169.54 509.23C169.89 507.84 170.27 506.31 170.73 506.44V507.3C171.798 508.174 173.14 508.645 174.52 508.63C175.62 508.67 178.31 508.44 178.3 507.56Z" fill="#263238"/>
<path d="M204.63 495.08C205.02 495.08 205.34 495.67 206.21 496.65C207.496 498.002 209 499.128 210.66 499.98C213.5 501.46 219.01 503.74 221.51 504.91C223.07 505.64 222.99 507.6 221.38 508.71C219.77 509.82 215.88 510.63 211.21 509.55C208.67 508.95 205.35 506.55 203.21 506.64C201.07 506.73 197.21 506.74 195.64 505.64C194.07 504.54 194.71 502.15 195.15 500.12C195.63 497.89 196.23 494.42 196.93 494.57V495.34C197.84 496.78 202.54 497.34 204.54 496.34L204.63 495.08Z" fill="#263238"/>
<path d="M190.55 409.83C194.49 408.543 198.091 406.391 201.09 403.53C201.09 403.53 199.09 407.53 193.01 411.19L194.3 445.38L190.55 409.83Z" fill="#263238"/>
<path d="M173.6 340C173.6 340 167.68 340.54 168.1 351.83L169.41 369.83L169.29 396.83C174.85 403.14 199.54 402.68 207.99 396.32C207.99 396.32 207.12 364.39 206.55 352.1C206.14 343.37 204.13 338.97 195.55 338.01L184.99 338.47L173.6 340Z" fill="#89C400"/>
<path opacity="0.3" d="M190.43 345.92L191.79 355.4L194.96 355.34L191.38 355.9L190.43 345.92Z" fill="black"/>
<path d="M154.81 378.76C157.88 354.06 164.95 341.76 173.56 340.34L172.95 356.14C169.365 364.566 166.618 373.325 164.75 382.29C163.62 388.37 162.31 398.94 162.65 404.13C162.718 405.045 163.108 405.905 163.75 406.56C165.45 408.29 165.96 409.79 167.1 411.74C168 413.27 168.92 413.81 168.68 414.18C168.371 414.569 167.922 414.822 167.429 414.886C166.936 414.949 166.438 414.818 166.04 414.52C165.138 413.881 164.312 413.139 163.58 412.31C163.47 414.664 163.894 417.013 164.82 419.18C166.82 423.34 166.5 425.53 160.92 424.3C157.42 423.54 154.92 419.85 153.92 411.24C153.657 408.027 153.6 404.8 153.75 401.58C154.13 393.35 154.2 383.7 154.81 378.76Z" fill="#914F4E"/>
<path d="M174.05 339.93C169.58 339.93 165.5 340.7 162.25 346.93C159.14 352.93 156.75 365.62 155.54 369.77C155.54 369.77 162.07 373.63 168.08 373.53L172.31 358.85C172.31 358.85 175.17 352 174.05 339.93Z" fill="#89C400"/>
<path opacity="0.3" d="M174.05 339.93C169.58 339.93 165.5 340.7 162.25 346.93C159.14 352.93 156.75 365.62 155.54 369.77C155.54 369.77 162.07 373.63 168.08 373.53L172.31 358.85C172.31 358.85 175.17 352 174.05 339.93Z" fill="black"/>
<path d="M183.28 314.51C183.37 316.72 184.108 318.854 185.401 320.648C186.695 322.441 188.487 323.815 190.555 324.599C192.623 325.382 194.876 325.54 197.033 325.054C199.19 324.567 201.157 323.457 202.688 321.862C204.219 320.266 205.248 318.256 205.646 316.081C206.044 313.905 205.794 311.661 204.927 309.627C204.06 307.593 202.614 305.858 200.769 304.639C198.924 303.42 196.761 302.77 194.55 302.77C191.5 302.836 188.6 304.109 186.487 306.31C184.374 308.51 183.221 311.46 183.28 314.51Z" fill="#263238"/>
<path d="M176.11 320.38C176.11 320.38 177.84 328.84 178.53 330.23C178.98 331.081 179.744 331.723 180.66 332.02L180.53 326.02L176.11 320.38Z" fill="#263238"/>
<path d="M178.28 308.26C178.28 308.26 177 308 175.72 310C174.59 311.76 174.34 315.72 176.11 320.37L179.36 320.76L178.28 308.26Z" fill="#263238"/>
<path d="M180.34 320.77C179.69 321.18 178.76 319.87 177.95 319C177.14 318.13 174.52 316.92 173.21 319.8C171.9 322.68 174.36 326.61 176.43 327.28C180 328.45 180.53 326.06 180.53 326.06L180.81 339.47C185.54 346.79 196.27 346.53 192.41 339.11V335C193.999 335.264 195.612 335.351 197.22 335.26C199.84 334.84 201.49 332.68 202.29 329.72C203.57 324.97 204.05 321.14 202.97 311.8C201.78 301.56 190.35 301.45 184.17 305.5C177.99 309.55 180.34 320.77 180.34 320.77Z" fill="#914F4E"/>
<path d="M180.75 336.46C181.85 338.712 183.431 340.695 185.38 342.27C187.038 343.493 188.959 344.311 190.99 344.66C189.316 345.794 187.943 347.317 186.99 349.1C185.81 351.71 177.47 344.54 177.55 339.45C177.55 339.45 178.86 334.34 180.65 334.01L180.75 336.46Z" fill="#263238"/>
<path d="M191 344.66C191 344.66 193.57 343.38 192.42 339.11V335L193.55 335.15C194.867 336.433 195.802 338.057 196.25 339.84C196.51 341.01 197.15 346.93 196.02 348.1C194.89 349.27 193.3 345 191 344.66Z" fill="#263238"/>
<path d="M180.34 321.92C180.01 321.92 178.76 319.77 177.95 319C176.82 317.93 178.28 308.26 178.28 308.26C177.985 307.425 177.931 306.525 178.121 305.661C178.312 304.797 178.741 304.003 179.36 303.37C180.91 301.6 183.49 301.37 187.89 300.69C189.647 300.474 191.39 300.157 193.11 299.74C194.926 299.06 196.674 298.21 198.33 297.2C198.851 296.862 199.474 296.721 200.09 296.8C200.374 296.896 200.628 297.064 200.826 297.289C201.024 297.514 201.16 297.786 201.22 298.08C201.32 298.666 201.32 299.264 201.22 299.85C201.776 299.333 202.515 299.057 203.274 299.083C204.033 299.109 204.751 299.435 205.27 299.99C205.761 300.575 206.081 301.284 206.194 302.04C206.307 302.795 206.208 303.567 205.91 304.27C205.271 305.669 204.226 306.843 202.91 307.64C197.38 311.38 190.85 310.34 184.65 309.64C184.357 309.574 184.051 309.595 183.77 309.7C182.77 310.14 182.59 313.15 182.42 314.02C181.92 316.92 181.44 321.9 180.34 321.92Z" fill="#263238"/>
<path d="M178.28 308.77L174.34 306.56C174.46 306.287 174.635 306.042 174.855 305.841C175.075 305.64 175.335 305.487 175.618 305.393C175.901 305.299 176.2 305.265 176.497 305.294C176.793 305.323 177.081 305.413 177.34 305.56C177.864 305.886 178.249 306.393 178.423 306.986C178.596 307.578 178.545 308.213 178.28 308.77Z" fill="#263238"/>
<path d="M192.4 335C192.4 335 186.55 333.77 184.5 332.64C183.283 331.975 182.296 330.957 181.67 329.72C181.975 330.961 182.522 332.13 183.28 333.16C184.77 335.16 192.4 336.63 192.4 336.63V335Z" fill="#783736"/>
<path d="M190.28 318.9C190.287 319.06 190.262 319.22 190.206 319.371C190.151 319.521 190.067 319.66 189.958 319.778C189.85 319.896 189.719 319.991 189.573 320.058C189.428 320.126 189.27 320.164 189.11 320.17C188.786 320.152 188.483 320.008 188.264 319.769C188.045 319.529 187.929 319.214 187.94 318.89C187.94 318.58 188.063 318.282 188.283 318.063C188.502 317.843 188.8 317.72 189.11 317.72C189.42 317.72 189.718 317.843 189.937 318.063C190.157 318.282 190.28 318.58 190.28 318.89V318.9Z" fill="#263238"/>
<path d="M188.27 313.82L185.76 315.26C185.579 314.903 185.539 314.492 185.646 314.107C185.754 313.722 186.001 313.392 186.34 313.18C186.507 313.087 186.692 313.03 186.882 313.012C187.072 312.994 187.264 313.016 187.446 313.076C187.627 313.136 187.794 313.233 187.936 313.361C188.078 313.489 188.192 313.646 188.27 313.82Z" fill="#263238"/>
<path d="M191.87 327.69L194.55 328.74C194.497 328.924 194.407 329.095 194.285 329.243C194.163 329.39 194.012 329.511 193.841 329.597C193.67 329.684 193.483 329.734 193.292 329.745C193.101 329.755 192.91 329.727 192.73 329.66C192.365 329.501 192.073 329.209 191.913 328.844C191.754 328.478 191.738 328.066 191.87 327.69Z" fill="#783736"/>
<path d="M202 315.22L199.36 313.94C199.425 313.761 199.527 313.598 199.659 313.461C199.791 313.324 199.951 313.217 200.127 313.146C200.304 313.075 200.493 313.043 200.683 313.05C200.873 313.058 201.06 313.105 201.23 313.19C201.587 313.373 201.863 313.682 202.005 314.057C202.148 314.432 202.146 314.846 202 315.22Z" fill="#263238"/>
<path d="M200.27 318.9C200.285 319.063 200.266 319.228 200.214 319.384C200.162 319.539 200.078 319.682 199.967 319.804C199.856 319.925 199.722 320.022 199.572 320.088C199.421 320.154 199.259 320.189 199.095 320.189C198.931 320.189 198.769 320.154 198.618 320.088C198.468 320.022 198.334 319.925 198.223 319.804C198.113 319.682 198.028 319.539 197.976 319.384C197.924 319.228 197.905 319.063 197.92 318.9C197.913 318.74 197.938 318.581 197.994 318.431C198.049 318.281 198.134 318.143 198.242 318.026C198.351 317.909 198.482 317.814 198.628 317.748C198.773 317.682 198.93 317.645 199.09 317.64C199.413 317.653 199.717 317.792 199.938 318.028C200.159 318.264 200.278 318.577 200.27 318.9Z" fill="#263238"/>
<path d="M193.62 317.99L193.75 325.4L197.96 324.44L193.62 317.99Z" fill="#783736"/>
<path d="M188.47 315.84C187.693 315.84 186.948 316.149 186.398 316.698C185.849 317.248 185.54 317.993 185.54 318.77C185.54 319.547 185.849 320.292 186.398 320.842C186.948 321.391 187.693 321.7 188.47 321.7H189C189.777 321.7 190.522 321.391 191.072 320.842C191.621 320.292 191.93 319.547 191.93 318.77C191.93 317.993 191.621 317.248 191.072 316.698C190.522 316.149 189.777 315.84 189 315.84H188.47ZM185 318.77C184.992 317.843 185.352 316.952 186 316.29C186.649 315.628 187.533 315.251 188.46 315.24H189C189.849 315.351 190.629 315.768 191.194 316.412C191.759 317.056 192.071 317.883 192.071 318.74C192.071 319.597 191.759 320.424 191.194 321.068C190.629 321.712 189.849 322.129 189 322.24H188.47C187.551 322.235 186.672 321.867 186.022 321.218C185.372 320.568 185.005 319.689 185 318.77Z" fill="#263238"/>
<path d="M199 315.84C198.223 315.84 197.478 316.149 196.928 316.698C196.379 317.248 196.07 317.993 196.07 318.77C196.07 319.547 196.379 320.292 196.928 320.842C197.478 321.391 198.223 321.7 199 321.7H199.53C200.307 321.7 201.052 321.391 201.602 320.842C202.151 320.292 202.46 319.547 202.46 318.77C202.46 317.993 202.151 317.248 201.602 316.698C201.052 316.149 200.307 315.84 199.53 315.84H199ZM195.54 318.77C195.532 317.843 195.892 316.952 196.54 316.29C197.189 315.628 198.073 315.251 199 315.24H199.53C200.379 315.351 201.159 315.768 201.724 316.412C202.289 317.056 202.601 317.883 202.601 318.74C202.601 319.597 202.289 320.424 201.724 321.068C201.159 321.712 200.379 322.129 199.53 322.24H199C198.086 322.227 197.215 321.856 196.571 321.207C195.928 320.559 195.565 319.684 195.56 318.77H195.54Z" fill="#263238"/>
<path d="M192.42 318.07C192.629 317.78 192.904 317.542 193.222 317.377C193.54 317.212 193.892 317.124 194.25 317.12C194.545 317.088 194.844 317.128 195.121 317.236C195.397 317.344 195.644 317.517 195.84 317.74L196.31 317.38C196.06 317.075 195.738 316.838 195.373 316.689C195.008 316.541 194.612 316.486 194.22 316.53C193.766 316.535 193.32 316.649 192.919 316.863C192.519 317.077 192.176 317.385 191.92 317.76L192.42 318.07Z" fill="#263238"/>
<path d="M185.32 318.04H179.36V318.63H185.32V318.04Z" fill="#263238"/>
</svg>
