<svg width="502" height="492" viewBox="0 0 502 492" fill="none" xmlns="http://www.w3.org/2000/svg">
<path d="M472.021 253.094C466.803 297.362 446.598 348.797 406.24 372.428C345.277 408.148 350.378 463.072 231.371 486.966C214.016 490.535 196.324 492.206 178.608 491.951C169.94 491.797 161.29 491.093 152.711 489.843C77.0657 478.829 26.168 426.256 7.50171 362.794C-17.0776 279.328 31.9967 224.72 64.5126 191.762C97.0285 158.803 120.912 56.2595 237.664 31.8594C255.486 28.0687 273.685 26.3428 291.903 26.7159C333.462 27.7699 378.784 41.377 410.151 69.8666C412.512 71.9746 414.806 74.188 417.033 76.5068C460.627 121.26 479.156 192.805 472.021 253.094Z" fill="#38B6FF"/>
<path opacity="0.7" d="M472.021 253.094C466.803 297.362 446.598 348.797 406.24 372.428C345.277 408.148 350.378 463.072 231.371 486.966C214.016 490.535 196.324 492.206 178.608 491.951C169.94 491.797 161.29 491.093 152.711 489.843C77.0657 478.829 26.168 426.256 7.50171 362.794C-17.0776 279.328 31.9967 224.72 64.5126 191.762C97.0285 158.803 120.912 56.2595 237.664 31.8594C255.486 28.0687 273.685 26.3428 291.903 26.7159C333.462 27.7699 378.784 41.377 410.151 69.8666C412.512 71.9746 414.806 74.188 417.033 76.5068C460.627 121.26 479.156 192.805 472.021 253.094Z" fill="white"/>
<path d="M500.984 446.092H0.966797" stroke="#263238" stroke-linecap="round" stroke-linejoin="round"/>
<g opacity="0.3">
<path d="M15.8703 325.694C19.9177 327.454 29.8253 327.232 29.8253 327.232C29.8253 327.232 27.7173 320.75 27.517 320.36C25.3458 315.818 18.4737 308.313 12.8875 309.072C11.9673 309.223 11.0889 309.565 10.3089 310.076C9.529 310.587 8.86485 311.256 8.35935 312.039C7.85385 312.823 7.51822 313.704 7.3741 314.625C7.22999 315.546 7.2806 316.487 7.52267 317.388C8.46073 321.309 12.4238 324.186 15.8703 325.694Z" fill="black"/>
<path d="M19.296 354.362C23.512 354.974 32.3234 352.412 32.998 352.254C34.4614 357.295 36.2607 362.231 38.3839 367.031C39.6065 369.846 40.9135 372.649 42.2626 375.463C41.4616 374.283 40.7238 373.239 40.6078 373.102C37.3194 369.287 28.7082 363.869 23.5225 366.072C22.6705 366.463 21.9103 367.028 21.291 367.732C20.6718 368.435 20.2074 369.261 19.9281 370.155C19.6488 371.05 19.5608 371.993 19.6698 372.924C19.7788 373.855 20.0823 374.752 20.5608 375.558C22.479 379.047 27.0745 380.765 30.7951 381.313C34.5157 381.861 42.1467 379.827 44.1387 379.268C44.6763 380.322 45.1927 381.376 45.7197 382.43C48.281 387.521 50.8527 392.591 53.2242 397.65C54.0674 399.421 54.8263 401.213 55.5957 402.994C54.879 401.94 54.2677 401.065 54.1517 400.886C50.8633 397.081 42.2521 391.663 37.0664 393.866C36.2133 394.255 35.4518 394.82 34.8316 395.523C34.2114 396.227 33.7465 397.053 33.467 397.948C33.1875 398.843 33.0999 399.787 33.2098 400.718C33.3196 401.649 33.6246 402.547 34.1047 403.352C36.0229 406.852 40.6184 408.57 44.339 409.118C48.0596 409.666 54.9528 407.821 57.3243 407.168C58.0621 409.012 58.7893 410.867 59.4323 412.691C59.8328 413.945 60.3071 415.125 60.6338 416.411C60.9606 417.697 61.3295 418.92 61.6878 420.164C62.2675 422.567 62.8789 425.054 63.3848 427.415C63.7431 429.059 64.0593 430.63 64.4388 432.221C63.6272 430.43 61.9619 426.951 61.7932 426.709C59.1161 422.44 51.4219 415.779 45.9832 417.17C45.0812 417.426 44.2431 417.869 43.5237 418.47C42.8043 419.071 42.2197 419.817 41.808 420.659C41.3962 421.502 41.1667 422.421 41.1342 423.358C41.1018 424.295 41.2672 425.229 41.6197 426.098C42.9899 429.839 47.2691 432.242 50.8633 433.339C54.8263 434.551 63.5956 433.444 64.6917 433.339C65.2082 435.963 65.7457 438.514 66.1146 440.927C66.4308 442.719 66.726 444.437 66.9895 446.092H70.4993C70.162 444.247 69.8036 442.329 69.4453 440.316C68.9183 437.649 68.307 434.814 67.6535 431.884C70.2932 430.826 72.8693 429.615 75.3688 428.258C78.2567 431.42 85.6558 435.035 86.6044 435.499C85.5504 437.976 84.6018 440.379 83.611 442.624C83.0946 443.815 82.557 444.943 82.0933 446.06H85.8034L86.6993 443.952C87.7533 441.444 88.8073 438.746 89.8613 435.963C90.9153 436.184 99.6002 437.945 103.648 437.017C107.315 436.184 111.763 434.108 113.408 430.482C113.823 429.642 114.057 428.724 114.093 427.788C114.13 426.851 113.969 425.918 113.621 425.048C113.273 424.178 112.746 423.391 112.073 422.738C111.401 422.085 110.599 421.582 109.719 421.26C104.375 419.457 96.2063 425.528 93.2235 429.586C93.0443 429.818 91.4212 432.632 90.4199 434.414C90.852 433.275 91.2736 432.179 91.6952 430.999C92.549 428.669 93.3395 426.329 94.1827 423.8C94.5516 422.577 94.931 421.323 95.2999 420.069C95.6688 418.814 95.9639 417.476 96.3539 416.169C97.0812 413.112 97.6609 409.982 98.1879 406.82C100.222 407.558 107.505 410.087 111.279 409.824C115.052 409.56 119.711 408.18 121.903 404.849C122.441 404.082 122.811 403.21 122.99 402.29C123.169 401.37 123.151 400.423 122.94 399.51C122.728 398.597 122.326 397.739 121.761 396.992C121.195 396.245 120.479 395.625 119.658 395.173C114.651 392.58 105.661 397.355 102.088 400.907C101.866 401.128 99.6002 403.964 98.3776 405.545C98.6727 403.637 98.9784 401.74 99.2208 399.8C99.9164 394.214 100.443 388.522 101.002 382.862C101.171 381.123 101.36 379.395 101.54 377.666C102.256 377.94 110.846 381.134 115.062 380.828C118.815 380.565 123.494 379.184 125.697 375.853C126.235 375.086 126.606 374.214 126.784 373.294C126.963 372.375 126.946 371.427 126.734 370.515C126.522 369.602 126.121 368.744 125.555 367.996C124.99 367.249 124.273 366.63 123.452 366.178C118.446 363.585 109.455 368.349 105.893 371.901C105.619 372.175 102.351 376.264 101.571 377.34C101.972 373.535 102.414 369.74 102.994 366.02C103.678 360.991 104.692 356.012 106.03 351.116C106.367 351.242 115.315 354.615 119.637 354.278C123.389 354.014 128.069 352.634 130.272 349.303C130.81 348.536 131.18 347.664 131.359 346.744C131.537 345.824 131.52 344.877 131.308 343.964C131.097 343.051 130.695 342.193 130.129 341.446C129.564 340.699 128.847 340.079 128.027 339.627C123.01 337.035 114.029 341.809 110.456 345.361C110.182 345.635 106.662 350.03 106.082 350.874C106.167 350.6 106.219 350.294 106.314 350.009C107.854 345.146 109.826 340.429 112.206 335.917C113.492 333.409 114.862 331.079 116.243 328.845C117.845 329.646 125.202 333.219 129.123 333.377C132.875 333.525 137.713 332.671 140.232 329.593C140.852 328.89 141.317 328.065 141.596 327.17C141.876 326.276 141.963 325.333 141.854 324.402C141.745 323.471 141.44 322.574 140.961 321.769C140.482 320.963 139.838 320.268 139.073 319.728C134.372 316.566 124.917 320.36 120.975 323.501C120.765 323.67 118.783 325.609 117.35 327.106C117.993 326.052 118.635 325.061 119.257 324.123C121.618 320.561 124 317.462 126.129 314.721C127.352 313.172 128.49 311.802 129.565 310.505C131.547 310.505 139.526 310.231 143.014 308.587C146.503 306.943 150.319 304.013 151.141 300.155C151.365 299.246 151.396 298.301 151.231 297.379C151.066 296.458 150.709 295.581 150.183 294.807C149.657 294.033 148.974 293.377 148.179 292.884C147.383 292.391 146.493 292.071 145.565 291.944C139.958 291.333 133.286 299.017 131.241 303.623C131.062 304.023 129.007 310.558 129.133 310.558H129.249C128.195 311.76 127.067 313.067 125.866 314.511C123.674 317.209 121.218 320.276 118.772 323.786C116.088 327.546 113.625 331.46 111.394 335.506C108.875 340.026 106.759 344.759 105.07 349.651C105.07 349.651 105.07 349.767 105.018 349.83C105.018 348.175 105.018 343.506 104.933 343.2C104.333 338.257 100.138 328.982 94.5621 327.928C93.6329 327.783 92.6835 327.836 91.7763 328.084C90.8691 328.332 90.0245 328.769 89.2979 329.366C88.5714 329.963 87.9793 330.707 87.5605 331.549C87.1417 332.391 86.9057 333.312 86.8679 334.252C86.5412 338.215 89.4186 342.189 92.2222 344.697C95.3842 347.522 104.175 350.262 104.87 350.473C103.292 355.493 102.052 360.612 101.16 365.798C100.623 368.813 100.169 371.869 99.7583 374.936C99.7583 373.514 99.7583 372.228 99.6845 372.048C99.0416 367.052 94.8572 357.788 89.3026 356.765C88.3776 356.621 87.4325 356.673 86.5289 356.917C85.6252 357.162 84.7831 357.594 84.0574 358.186C83.3316 358.777 82.7385 359.515 82.3166 360.351C81.8947 361.186 81.6534 362.102 81.6084 363.037C81.2817 367.01 84.1591 370.984 86.9628 373.482C89.7664 375.98 97.2498 378.509 99.2313 379.142C99.0838 380.322 98.9257 381.503 98.7886 382.683C98.1141 388.343 97.4606 393.993 96.6806 399.547C96.4066 401.497 96.0482 403.394 95.7109 405.313C95.7109 404.037 95.7109 402.973 95.6372 402.804C94.9942 397.808 90.7993 388.544 85.2553 387.521C84.33 387.375 83.3843 387.425 82.4799 387.669C81.5755 387.913 80.7328 388.345 80.0067 388.937C79.2806 389.529 78.6875 390.267 78.2661 391.104C77.8447 391.941 77.6044 392.857 77.5611 393.792C77.2343 397.766 80.1118 401.74 82.9154 404.238C85.719 406.736 92.4857 409.023 94.8256 409.782C94.4145 411.732 94.0035 413.671 93.5186 415.536C93.1603 416.812 92.8968 418.056 92.4646 419.299L91.2736 423.009C90.4199 425.339 89.5661 427.752 88.6808 429.997C88.08 431.568 87.4687 433.054 86.8679 434.551C87.1736 432.622 87.69 428.817 87.7006 428.501C87.6454 424.056 86.4476 419.701 84.2224 415.853C84.2433 415.359 84.2115 414.864 84.1275 414.377C84.0107 413.448 83.6995 412.554 83.2142 411.752C82.729 410.951 82.0805 410.261 81.311 409.727C80.5414 409.194 79.6681 408.828 78.7478 408.654C77.8275 408.48 76.8809 408.501 75.9695 408.717C70.5204 410.172 67.0632 419.742 66.8103 424.77C66.8103 425.065 66.9895 428.3 67.137 430.345C66.863 429.154 66.61 428.005 66.3149 426.783C65.7457 424.369 65.1028 421.987 64.4282 419.405C64.0488 418.171 63.6799 416.928 63.2899 415.673C62.8999 414.419 62.4151 413.144 61.9724 411.858C60.9184 408.917 59.6642 405.977 58.3572 403.047C60.4652 402.541 67.9275 400.643 70.9314 398.335C73.9353 396.027 77.0762 392.306 77.0446 388.322C77.0716 387.385 76.9005 386.453 76.5425 385.587C76.1845 384.721 75.6478 383.94 74.9673 383.295C74.2869 382.65 73.478 382.157 72.5937 381.846C71.7093 381.535 70.7694 381.415 69.8353 381.492C64.228 382.093 59.369 391.031 58.3467 395.964C58.2834 396.269 57.9567 399.895 57.8091 401.887C57.0081 400.127 56.2176 398.377 55.3428 396.617C52.8448 391.569 50.1465 386.541 47.4799 381.503C46.6719 379.964 45.8673 378.422 45.0663 376.876C45.8251 376.707 54.742 374.641 58.1042 372.059C61.0871 369.772 64.2491 366.02 64.2174 362.046C64.2441 361.11 64.0732 360.178 63.716 359.312C63.3588 358.446 62.8232 357.665 62.1441 357.02C61.465 356.374 60.6576 355.879 59.7745 355.567C58.8915 355.254 57.9524 355.131 57.0186 355.206C51.4008 355.817 46.5419 364.755 45.5195 369.687C45.4457 370.056 44.9714 375.263 44.9187 376.602C43.1585 373.197 41.43 369.793 39.8595 366.367C37.7177 361.76 35.8798 357.017 34.3576 352.17C34.7054 352.096 44.0228 349.978 47.4694 347.332C50.4522 345.045 53.6142 341.303 53.5826 337.319C53.6095 336.382 53.4384 335.45 53.0805 334.584C52.7225 333.718 52.1858 332.937 51.5053 332.292C50.8249 331.647 50.016 331.153 49.1317 330.843C48.2473 330.532 47.3073 330.412 46.3732 330.489C40.7659 331.09 35.907 340.028 34.8846 344.961C34.8108 345.351 34.3049 350.958 34.2838 351.97C34.1995 351.696 34.073 351.411 33.9887 351.127C32.5979 346.218 31.6456 341.195 31.1429 336.118C30.8267 333.314 30.6792 330.626 30.6054 328.002C32.3761 327.78 40.4814 326.705 43.8436 324.671C47.2059 322.637 50.6208 319.338 51.0319 315.385C51.1595 314.457 51.0902 313.512 50.8287 312.611C50.5671 311.711 50.1191 310.876 49.5137 310.16C48.9084 309.445 48.1592 308.864 47.3149 308.457C46.4706 308.05 45.55 307.825 44.613 307.797C38.9741 307.797 33.1561 316.134 31.6067 320.919C31.5224 321.182 30.9532 323.923 30.5527 325.936C30.5527 324.745 30.4894 323.522 30.4894 322.384C30.4894 318.168 30.774 314.215 31.0375 310.79C31.2062 308.83 31.3959 307.059 31.5961 305.393C33.2193 304.276 39.7436 299.67 41.7567 296.382C43.7698 293.093 45.3087 288.529 43.8647 284.788C43.5495 283.905 43.0524 283.099 42.4055 282.422C41.7585 281.744 40.9764 281.21 40.1097 280.854C39.243 280.498 38.3112 280.329 37.3747 280.356C36.4382 280.384 35.518 280.608 34.6738 281.014C29.6673 283.597 28.3498 293.662 29.1719 298.658C29.2457 299.08 31.1429 305.667 31.2799 305.615L31.3748 305.541C31.1535 307.133 30.9427 308.84 30.7424 310.716C30.3946 314.173 30.0362 318.094 29.9414 322.363C29.778 326.975 29.8871 331.592 30.2681 336.191C30.6673 341.345 31.5244 346.452 32.8293 351.453C32.834 351.513 32.834 351.573 32.8293 351.632C31.944 350.241 29.33 346.426 29.0982 346.152C25.8097 342.347 17.1985 336.919 12.0128 339.121C11.1609 339.512 10.4006 340.077 9.78134 340.781C9.16209 341.484 8.69773 342.31 8.41842 343.205C8.13911 344.099 8.0511 345.042 8.16009 345.973C8.26909 346.904 8.57266 347.802 9.05108 348.607C10.9799 352.096 15.5753 353.825 19.296 354.362Z" fill="black"/>
<path d="M116.011 327.865C116.095 327.917 117.813 321.288 117.877 320.856C118.562 315.87 116.981 305.826 111.9 303.37C111.045 302.985 110.119 302.784 109.181 302.782C108.243 302.779 107.316 302.974 106.458 303.354C105.601 303.734 104.834 304.29 104.206 304.987C103.578 305.683 103.104 306.504 102.815 307.396C101.455 311.127 103.184 315.723 105.229 318.885C107.621 322.584 116 327.865 116.011 327.865Z" fill="black"/>
</g>
<g opacity="0.3">
<path d="M214.307 45.9935C218.354 47.7643 228.251 47.5429 228.262 47.5429C228.272 47.5429 226.154 41.0608 225.943 40.6603C223.772 36.1176 216.9 28.6131 211.314 29.372C210.389 29.5245 209.507 29.8696 208.725 30.3851C207.943 30.9005 207.277 31.5747 206.772 32.3638C206.268 33.153 205.934 34.0395 205.794 34.9658C205.654 35.8921 205.71 36.8375 205.959 37.7407C206.887 41.6089 210.86 44.4863 214.307 45.9935Z" fill="black"/>
<path d="M217.722 74.6729C221.938 75.2842 230.76 72.723 231.424 72.5649C232.908 77.604 234.721 82.5403 236.852 87.3419C238.064 90.1561 239.371 92.9492 240.731 95.7739C239.919 94.5935 239.192 93.55 239.076 93.413C235.777 89.608 227.176 84.18 221.98 86.3828C221.128 86.7733 220.368 87.3386 219.749 88.0421C219.129 88.7455 218.665 89.5713 218.386 90.4659C218.106 91.3605 218.018 92.3038 218.127 93.2347C218.236 94.1655 218.54 95.063 219.018 95.8688C220.937 99.3575 225.532 101.086 229.253 101.624C232.973 102.161 240.604 100.148 242.607 99.5789C243.134 100.633 243.661 101.687 244.188 102.741C246.749 107.832 249.321 112.901 251.692 117.961C252.525 119.742 253.284 121.523 254.053 123.304C253.337 122.25 252.725 121.386 252.62 121.26C249.321 117.444 240.72 112.027 235.524 114.229C234.672 114.62 233.912 115.185 233.292 115.889C232.673 116.592 232.209 117.418 231.93 118.313C231.65 119.207 231.562 120.151 231.671 121.081C231.78 122.012 232.084 122.91 232.562 123.715C234.491 127.204 239.076 128.933 242.797 129.47C246.517 130.008 253.41 128.184 255.792 127.52C256.52 129.375 257.257 131.22 257.9 133.043C258.301 134.298 258.765 135.478 259.091 136.764C259.418 138.05 259.798 139.283 260.145 140.516C260.725 142.93 261.336 145.407 261.832 147.778C262.201 149.423 262.517 150.993 262.886 152.574C262.064 150.793 260.409 147.304 260.23 147.062C257.553 142.846 249.869 136.132 244.42 137.576C243.519 137.834 242.684 138.278 241.966 138.88C241.249 139.482 240.666 140.228 240.256 141.07C239.845 141.912 239.616 142.831 239.584 143.766C239.551 144.702 239.716 145.635 240.067 146.503C241.426 150.245 245.706 152.648 249.3 153.744C253.263 154.956 262.032 153.849 263.128 153.744C263.655 156.368 264.182 158.919 264.562 161.333C264.878 163.125 265.162 164.843 265.426 166.497H268.936C268.612 164.663 268.261 162.738 267.882 160.721C267.365 158.065 266.754 155.23 266.1 152.289C268.738 151.233 271.31 150.022 273.805 148.664C276.693 151.826 284.092 155.451 285.051 155.915C283.997 158.392 283.038 160.785 282.058 163.03C281.542 164.221 281.004 165.348 280.54 166.466H284.25C284.545 165.76 284.841 165.064 285.136 164.358C286.19 161.849 287.244 159.14 288.298 156.358C289.352 156.579 298.037 158.339 302.084 157.412C305.752 156.579 310.2 154.503 311.844 150.877C312.259 150.037 312.493 149.119 312.53 148.183C312.567 147.246 312.406 146.313 312.058 145.443C311.71 144.572 311.182 143.785 310.51 143.133C309.837 142.48 309.035 141.976 308.155 141.655C302.811 139.852 294.653 145.923 291.66 149.981C291.481 150.224 289.858 153.027 288.867 154.819C289.288 153.681 289.721 152.574 290.142 151.394C290.996 149.064 291.776 146.724 292.63 144.205L293.747 140.464C294.147 139.23 294.411 137.871 294.748 136.564C295.475 133.507 296.066 130.377 296.593 127.215C298.627 127.953 305.899 130.493 309.673 130.219C313.446 129.945 318.105 128.585 320.308 125.244C320.846 124.477 321.216 123.605 321.395 122.685C321.573 121.765 321.556 120.818 321.344 119.905C321.133 118.992 320.731 118.134 320.166 117.387C319.6 116.64 318.884 116.02 318.063 115.568C313.046 112.986 304.066 117.75 300.492 121.302C300.271 121.523 297.994 124.358 296.772 125.939C297.078 124.032 297.383 122.134 297.626 120.195C298.321 114.609 298.848 108.928 299.396 103.257C299.565 101.518 299.755 99.8002 299.934 98.0611C300.661 98.3352 309.241 101.529 313.467 101.223C317.219 100.96 321.899 99.5789 324.102 96.2483C324.638 95.4805 325.008 94.6086 325.185 93.6891C325.363 92.7695 325.345 91.8229 325.134 90.9106C324.922 89.9982 324.521 89.1406 323.957 88.3933C323.392 87.6459 322.677 87.0256 321.857 86.5725C316.84 83.9902 307.86 88.7543 304.287 92.3063C304.013 92.5698 300.745 96.6593 299.965 97.7344C300.377 93.9294 300.809 90.135 301.388 86.4144C302.153 81.3852 303.241 76.4106 304.645 71.5214C304.983 71.6479 313.92 75.0207 318.242 74.6834C321.994 74.4199 326.674 73.0497 328.877 69.7085C329.413 68.9285 329.777 68.0433 329.945 67.1117C330.113 66.1801 330.081 65.2235 329.85 64.3053C329.62 63.3871 329.197 62.5285 328.609 61.7864C328.022 61.0443 327.283 60.4358 326.442 60.0012C321.435 57.4189 312.445 62.183 308.872 65.7349C308.598 66.009 305.088 70.4147 304.508 71.2579C304.593 70.9733 304.645 70.6677 304.73 70.3831C306.279 65.5215 308.254 60.8059 310.632 56.2911C311.918 53.7826 313.277 51.4533 314.658 49.2188C316.26 50.0198 323.617 53.5929 327.538 53.751C331.301 53.8985 336.128 53.0448 338.658 49.9671C339.277 49.2635 339.741 48.4374 340.02 47.5425C340.299 46.6476 340.385 45.704 340.275 44.7732C340.165 43.8425 339.859 42.9454 339.379 42.1405C338.899 41.3356 338.255 40.6409 337.488 40.1017C332.787 36.9397 323.333 40.7341 319.401 43.875C319.18 44.0436 317.198 45.983 315.775 47.4797C316.408 46.4257 317.051 45.4349 317.683 44.4969C320.044 40.9449 322.426 37.8356 324.555 35.0952C325.778 33.5563 326.906 32.1756 327.991 30.8792C329.973 30.8792 337.952 30.6051 341.44 28.9714C344.929 27.3377 348.745 24.376 349.63 20.5078C349.854 19.5983 349.885 18.6517 349.719 17.7296C349.554 16.8076 349.196 15.9307 348.669 15.1562C348.142 14.3816 347.458 13.7268 346.661 13.2342C345.864 12.7416 344.972 12.4223 344.044 12.2972C338.384 11.728 331.712 19.38 329.667 23.9755C329.499 24.376 327.443 30.9108 327.559 30.9108H327.686C326.632 32.1124 325.493 33.4193 324.302 34.8738C322.099 37.5615 319.654 40.6287 317.209 44.149C314.518 47.9018 312.055 51.8121 309.831 55.859C307.304 60.3754 305.188 65.1093 303.507 70.0037C303.507 70.0037 303.507 70.1196 303.507 70.1828C303.507 68.528 303.507 63.9115 303.412 63.5532C302.769 58.5572 298.585 49.2926 293.041 48.2596C292.111 48.1131 291.16 48.1651 290.252 48.4122C289.343 48.6592 288.497 49.0958 287.77 49.6931C287.042 50.2904 286.449 51.035 286.029 51.8779C285.61 52.7208 285.374 53.6429 285.336 54.5836C285.009 58.5467 287.887 62.5203 290.701 65.0288C293.863 67.8535 302.643 70.5939 303.349 70.8047C301.776 75.8259 300.537 80.9454 299.639 86.1298C299.101 89.1443 298.659 92.2009 298.247 95.2786C298.247 93.8451 298.195 92.5698 298.174 92.3906C297.52 87.3946 293.336 78.1194 287.792 77.0971C286.863 76.9522 285.913 77.0054 285.006 77.2532C284.099 77.501 283.254 77.9378 282.528 78.535C281.801 79.1322 281.209 79.8762 280.79 80.7182C280.371 81.5603 280.135 82.4814 280.098 83.4211C279.771 87.3841 282.648 91.3577 285.452 93.8662C288.256 96.3747 295.739 98.8938 297.71 99.5156C297.573 100.696 297.415 101.877 297.267 103.057C296.593 108.717 295.95 114.366 295.159 119.921C294.875 121.871 294.527 123.779 294.179 125.686C294.179 124.411 294.126 123.347 294.105 123.188C293.462 118.193 289.278 108.917 283.734 107.895C282.804 107.75 281.854 107.803 280.946 108.051C280.039 108.299 279.193 108.735 278.466 109.332C277.739 109.929 277.146 110.673 276.726 111.515C276.306 112.358 276.068 113.279 276.029 114.219C275.702 118.182 278.58 122.156 281.394 124.664C284.208 127.173 290.954 129.439 293.304 130.198C292.893 132.147 292.482 134.097 291.997 135.963C291.628 137.228 291.375 138.471 290.943 139.726C290.511 140.98 290.142 142.203 289.742 143.425C288.898 145.755 288.034 148.168 287.149 150.413C286.548 151.984 285.947 153.47 285.347 154.967C285.652 153.038 286.169 149.233 286.169 148.917C286.12 144.472 284.926 140.116 282.701 136.269C282.712 135.775 282.68 135.281 282.606 134.793C282.489 133.863 282.178 132.969 281.693 132.167C281.208 131.366 280.559 130.676 279.79 130.141C279.021 129.606 278.148 129.239 277.227 129.064C276.307 128.888 275.36 128.908 274.448 129.123C268.988 130.577 265.531 140.147 265.278 145.175C265.278 145.47 265.458 148.706 265.616 150.751C265.342 149.56 265.089 148.411 264.794 147.188C264.214 144.785 263.571 142.392 262.896 139.81C262.527 138.577 262.148 137.333 261.769 136.079C261.389 134.825 260.883 133.549 260.451 132.263C259.397 129.323 258.132 126.382 256.825 123.463C258.933 122.957 266.406 121.049 269.399 118.751C272.393 116.453 275.544 112.712 275.523 108.728C275.548 107.791 275.376 106.86 275.018 105.994C274.659 105.129 274.122 104.348 273.442 103.704C272.762 103.06 271.954 102.566 271.07 102.255C270.187 101.944 269.248 101.822 268.314 101.898C262.707 102.509 257.837 111.384 256.825 116.369C256.762 116.675 256.425 120.301 256.277 122.293C255.476 120.543 254.686 118.783 253.821 117.023C251.313 111.974 248.625 106.946 245.959 101.919C245.136 100.38 244.346 98.8305 243.545 97.2917C244.293 97.1125 253.221 95.0467 256.572 92.4644C259.555 90.1772 262.728 86.4355 262.696 82.4514C262.721 81.5149 262.549 80.5836 262.191 79.7181C261.832 78.8526 261.295 78.0723 260.615 77.428C259.935 76.7837 259.127 76.2898 258.243 75.9786C257.36 75.6673 256.42 75.5457 255.487 75.6215C249.879 76.2223 245.01 85.1075 243.998 90.0929C243.914 90.4618 243.45 95.6791 243.397 97.0071C241.627 93.6027 239.898 90.1983 238.328 86.7728C236.191 82.1595 234.353 77.4138 232.826 72.5649C233.173 72.4806 242.501 70.362 245.937 67.727C248.92 65.4293 252.093 61.6876 252.061 57.7035C252.086 56.767 251.914 55.8357 251.556 54.9702C251.197 54.1047 250.66 53.3244 249.98 52.6801C249.3 52.0358 248.492 51.5419 247.608 51.2307C246.725 50.9194 245.786 50.7977 244.852 50.8736C239.245 51.4849 234.375 60.3596 233.363 65.345C233.279 65.735 232.773 71.3422 232.762 72.3646C232.668 72.08 232.552 71.7955 232.467 71.5214C231.073 66.6091 230.118 61.583 229.611 56.5019C229.295 53.7088 229.158 51.0106 229.073 48.3861C230.855 48.1648 238.96 47.0897 242.312 45.0555C245.663 43.0213 249.089 39.7328 249.5 35.7697C249.627 34.8419 249.559 33.8976 249.298 32.9982C249.037 32.0987 248.59 31.2642 247.985 30.5486C247.381 29.8331 246.633 29.2525 245.79 28.8446C244.947 28.4367 244.028 28.2106 243.092 28.1809C237.442 28.1809 231.624 36.5181 230.075 41.3138C229.99 41.5667 229.421 44.3177 229.021 46.3203C229.021 45.1293 228.958 43.9066 228.968 42.7788C228.968 38.5628 229.242 34.5998 229.506 31.1848C229.674 29.2244 229.864 27.4537 230.064 25.7989C231.698 24.6711 238.222 20.0651 240.225 16.7767C242.227 13.4882 243.787 8.92436 242.333 5.18266C242.019 4.30073 241.523 3.49475 240.877 2.81711C240.231 2.13947 239.45 1.60535 238.584 1.24946C237.718 0.893567 236.787 0.723879 235.851 0.751424C234.915 0.778969 233.996 1.00313 233.152 1.40934C228.135 4.00218 226.828 14.0573 227.651 19.0533C227.724 19.4854 229.611 26.0624 229.695 26.0097L229.801 25.9465C229.579 27.5275 229.358 29.2455 229.158 31.1111C228.81 34.5682 228.462 38.4891 228.357 42.7578C228.204 47.3732 228.313 51.9937 228.683 56.5968C229.079 61.7317 229.929 66.8214 231.224 71.806C231.235 71.8674 231.252 71.9275 231.276 71.9852C230.391 70.5939 227.777 66.7784 227.545 66.5044C224.204 62.6467 215.645 57.2292 210.502 59.432C209.649 59.8212 208.887 60.3859 208.267 61.0891C207.647 61.7924 207.182 62.6185 206.903 63.5136C206.623 64.4086 206.535 65.3526 206.645 66.2838C206.755 67.215 207.06 68.1126 207.54 68.918C209.448 72.4068 214.001 74.1248 217.722 74.6729Z" fill="black"/>
<path d="M314.437 48.1753C314.532 48.1753 316.239 41.5878 316.302 41.1557C316.998 36.1703 315.407 26.1256 310.326 23.6698C309.472 23.285 308.546 23.0847 307.609 23.082C306.672 23.0793 305.745 23.2744 304.889 23.6544C304.032 24.0343 303.266 24.5907 302.639 25.2872C302.012 25.9836 301.539 26.8045 301.251 27.6961C299.881 31.4378 301.61 36.0227 303.654 39.1847C306.058 42.8948 314.437 48.1648 314.437 48.1753Z" fill="black"/>
</g>
<path d="M250.807 46.4151H53.2135C46.3505 46.4151 40.7869 51.9787 40.7869 58.8418V323.048C40.7869 329.911 46.3505 335.475 53.2135 335.475H250.807C257.67 335.475 263.234 329.911 263.234 323.048V58.8418C263.234 51.9787 257.67 46.4151 250.807 46.4151Z" fill="#263238"/>
<path d="M252.599 63.511H51.4324V321.762H252.599V63.511Z" fill="white" stroke="#263238" stroke-linecap="round" stroke-linejoin="round"/>
<path d="M111.162 102.182H192.868" stroke="#263238" stroke-linecap="round" stroke-linejoin="round"/>
<path d="M73.5978 157.781C81.0662 157.781 87.1206 151.726 87.1206 144.258C87.1206 136.79 81.0662 130.735 73.5978 130.735C66.1293 130.735 60.075 136.79 60.075 144.258C60.075 151.726 66.1293 157.781 73.5978 157.781Z" stroke="#263238" stroke-linecap="round" stroke-linejoin="round"/>
<path d="M93.3076 145.386H231.339" stroke="#263238" stroke-linecap="round" stroke-linejoin="round"/>
<path d="M67.959 140.885L73.0287 148.769L89.3657 127.362" stroke="#38B6FF" stroke-width="4" stroke-linecap="round" stroke-linejoin="round"/>
<path d="M76.701 190.67C83.9697 188.954 88.4715 181.671 86.7559 174.402C85.0403 167.134 77.7571 162.632 70.4884 164.348C63.2196 166.063 58.7179 173.346 60.4335 180.615C62.1491 187.884 69.4323 192.386 76.701 190.67Z" stroke="#263238" stroke-linecap="round" stroke-linejoin="round"/>
<path d="M93.3076 178.629H231.339" stroke="#263238" stroke-linecap="round" stroke-linejoin="round"/>
<path d="M67.959 174.118L73.0287 182.012L89.3657 160.595" stroke="#38B6FF" stroke-width="4" stroke-linecap="round" stroke-linejoin="round"/>
<path d="M76.6959 223.91C83.9646 222.194 88.4663 214.911 86.7508 207.642C85.0352 200.373 77.752 195.872 70.4832 197.587C63.2145 199.303 58.7128 206.586 60.4283 213.855C62.1439 221.123 69.4271 225.625 76.6959 223.91Z" stroke="#263238" stroke-linecap="round" stroke-linejoin="round"/>
<path d="M93.3076 211.872H231.339" stroke="#263238" stroke-linecap="round" stroke-linejoin="round"/>
<path d="M67.959 207.361L73.0287 215.245L89.3657 193.838" stroke="#38B6FF" stroke-width="4" stroke-linecap="round" stroke-linejoin="round"/>
<path d="M83.1557 253.54C88.4367 248.259 88.4367 239.697 83.1557 234.416C77.8747 229.135 69.3126 229.135 64.0316 234.416C58.7506 239.697 58.7506 248.259 64.0316 253.54C69.3126 258.821 77.8747 258.821 83.1557 253.54Z" stroke="#263238" stroke-linecap="round" stroke-linejoin="round"/>
<path d="M93.3076 245.105H231.339" stroke="#263238" stroke-linecap="round" stroke-linejoin="round"/>
<path d="M67.959 240.604L73.0287 248.488L89.3657 227.081" stroke="#38B6FF" stroke-width="4" stroke-linecap="round" stroke-linejoin="round"/>
<path d="M73.5978 290.743C81.0662 290.743 87.1206 284.689 87.1206 277.22C87.1206 269.752 81.0662 263.697 73.5978 263.697C66.1293 263.697 60.075 269.752 60.075 277.22C60.075 284.689 66.1293 290.743 73.5978 290.743Z" stroke="#263238" stroke-linecap="round" stroke-linejoin="round"/>
<path d="M93.3076 278.348H231.339" stroke="#263238" stroke-linecap="round" stroke-linejoin="round"/>
<path d="M67.959 273.837L73.0287 281.731L89.3657 260.314" stroke="#38B6FF" stroke-width="4" stroke-linecap="round" stroke-linejoin="round"/>
<path d="M178.513 40.576C177.539 40.5594 176.587 40.2815 175.757 39.7713C174.927 39.2611 174.249 38.5373 173.795 37.6756C173.34 36.8139 173.126 35.8459 173.173 34.8728C173.221 33.8997 173.529 32.9573 174.065 32.144C175.875 29.2467 176.873 25.9162 176.954 22.5011C177.035 19.086 176.197 15.7118 174.526 12.7318C172.856 9.75181 170.416 7.27553 167.461 5.56218C164.505 3.84882 161.144 2.96138 157.728 2.99275C154.312 3.02412 150.967 3.97314 148.044 5.74049C145.12 7.50783 142.726 10.0285 141.111 13.0387C139.496 16.0488 138.72 19.4378 138.863 22.8509C139.007 26.2639 140.066 29.5755 141.929 32.4391C142.431 33.2571 142.706 34.1948 142.723 35.1547C142.741 36.1147 142.501 37.0618 142.029 37.8977C141.557 38.7336 140.869 39.4278 140.038 39.908C139.206 40.3883 138.262 40.6371 137.302 40.6287H104.164L113.123 66.3568H202.713L211.672 40.6287L178.513 40.576ZM157.907 29.646C156.587 29.6481 155.296 29.2586 154.198 28.5267C153.099 27.7949 152.242 26.7536 151.736 25.5347C151.229 24.3158 151.096 22.9739 151.352 21.679C151.608 20.3841 152.243 19.1944 153.175 18.2602C154.108 17.3261 155.297 16.6896 156.591 16.4313C157.886 16.1731 159.228 16.3046 160.447 16.8092C161.667 17.3139 162.71 18.169 163.443 19.2664C164.177 20.3638 164.569 21.6542 164.569 22.9742C164.569 24.7418 163.867 26.4372 162.618 27.6881C161.369 28.9391 159.675 29.6432 157.907 29.646Z" fill="white" stroke="#263238" stroke-linecap="round" stroke-linejoin="round"/>
<path d="M265.584 446.081H381.988V341.862H265.584V446.081Z" fill="#38B6FF" stroke="#263238" stroke-linecap="round" stroke-linejoin="round"/>
<path d="M265.595 446.081H303.075V341.862H265.595V446.081Z" fill="#263238" stroke="#263238" stroke-linecap="round" stroke-linejoin="round"/>
<path d="M279.307 370.288H289.362V341.862H279.307V370.288Z" fill="white" stroke="#263238" stroke-linecap="round" stroke-linejoin="round"/>
<path d="M357.83 363.374H375.168V352.75H357.83V363.374Z" stroke="#263238" stroke-linecap="round" stroke-linejoin="round"/>
<path d="M183.425 446.081H299.829V341.862H183.425V446.081Z" fill="#38B6FF" stroke="#263238" stroke-linecap="round" stroke-linejoin="round"/>
<path d="M183.435 446.081H220.916V341.862H183.435V446.081Z" fill="#263238" stroke="#263238" stroke-linecap="round" stroke-linejoin="round"/>
<path d="M197.148 370.288H207.203V341.862H197.148V370.288Z" fill="white" stroke="#263238" stroke-linecap="round" stroke-linejoin="round"/>
<path d="M274.775 363.374H292.113V352.75H274.775V363.374Z" stroke="#263238" stroke-linecap="round" stroke-linejoin="round"/>
<path d="M100.011 446.081H216.415V341.862H100.011L100.011 446.081Z" fill="#38B6FF" stroke="#263238" stroke-linecap="round" stroke-linejoin="round"/>
<path d="M100.011 446.081H137.491V341.862H100.011L100.011 446.081Z" fill="#263238" stroke="#263238" stroke-linecap="round" stroke-linejoin="round"/>
<path d="M113.724 370.288H123.779V341.862H113.724V370.288Z" fill="white" stroke="#263238" stroke-linecap="round" stroke-linejoin="round"/>
<path d="M193.122 363.374H210.46V352.75H193.122V363.374Z" stroke="#263238" stroke-linecap="round" stroke-linejoin="round"/>
<path d="M225.711 341.746H342.115V237.526H225.711V341.746Z" fill="#38B6FF" stroke="#263238" stroke-linecap="round" stroke-linejoin="round"/>
<path d="M225.722 341.746H263.202V237.526H225.722V341.746Z" fill="#263238" stroke="#263238" stroke-linecap="round" stroke-linejoin="round"/>
<path d="M239.434 265.942H249.49V237.516H239.434V265.942Z" fill="white" stroke="#263238" stroke-linecap="round" stroke-linejoin="round"/>
<path d="M325.957 298.511H337.699V238.665H325.957V298.511Z" stroke="#263238" stroke-linecap="round" stroke-linejoin="round"/>
<path d="M196.041 237.326L312.445 237.326V133.107H196.041V237.326Z" fill="#38B6FF" stroke="#263238" stroke-linecap="round" stroke-linejoin="round"/>
<path d="M196.041 237.326H233.521V133.107H196.041V237.326Z" fill="#263238" stroke="#263238" stroke-linecap="round" stroke-linejoin="round"/>
<path d="M209.743 161.533H219.798V133.107H209.743V161.533Z" fill="white" stroke="#263238" stroke-linecap="round" stroke-linejoin="round"/>
<path d="M295.191 194.028H306.933V134.182H295.191V194.028Z" stroke="#263238" stroke-linecap="round" stroke-linejoin="round"/>
<path d="M140.759 341.746H257.163V237.526H140.759V341.746Z" fill="#38B6FF" stroke="#263238" stroke-linecap="round" stroke-linejoin="round"/>
<path d="M140.77 341.746H178.25V237.526H140.77V341.746Z" fill="#263238" stroke="#263238" stroke-linecap="round" stroke-linejoin="round"/>
<path d="M154.482 265.942H164.537V237.516H154.482V265.942Z" fill="white" stroke="#263238" stroke-linecap="round" stroke-linejoin="round"/>
<path d="M238.707 298.511H250.449V238.665H238.707V298.511Z" stroke="#263238" stroke-linecap="round" stroke-linejoin="round"/>
<path d="M370.647 211.809C370.688 211.665 370.758 211.532 370.854 211.417C370.95 211.303 371.07 211.21 371.204 211.146C371.339 211.081 371.485 211.045 371.635 211.042C371.784 211.038 371.932 211.066 372.07 211.124L378.794 214.117L371.596 207.319C371.365 207.141 371.214 206.879 371.177 206.591C371.139 206.302 371.218 206.011 371.395 205.78C371.573 205.549 371.835 205.399 372.123 205.361C372.412 205.324 372.704 205.402 372.934 205.58L380.776 210.481L376.233 204.905C376.082 204.701 376.01 204.449 376.03 204.196C376.05 203.944 376.16 203.706 376.341 203.528C376.522 203.35 376.76 203.243 377.014 203.227C377.267 203.211 377.517 203.286 377.719 203.44L386.763 211.082L385.909 207.751C385.835 207.435 385.883 207.103 386.042 206.82C386.201 206.538 386.461 206.325 386.769 206.224C387.078 206.124 387.413 206.142 387.708 206.277C388.004 206.411 388.238 206.651 388.365 206.95C388.944 208.404 390.051 211.166 390.473 212.041C391.21 213.649 391.669 215.37 391.832 217.132C391.759 218.186 391.748 220.568 391.748 220.568L408.654 233.869L409.961 232.32L414.536 236.652L414.399 238.359L418.562 241.521C418.562 241.521 446.461 227.345 450.098 227.102C453.734 226.86 458.772 233.237 456.59 239.624C454.408 246.011 417.497 256.077 416.285 256.161C415.073 256.245 388.449 225.142 388.449 225.142C386.226 224.314 384.054 223.353 381.946 222.265C380.291 221.274 373.567 218.597 371.406 217.753C371.228 217.678 371.085 217.539 371.005 217.363C370.925 217.188 370.914 216.988 370.974 216.805C371.034 216.625 371.16 216.475 371.326 216.383C371.491 216.292 371.685 216.265 371.87 216.309L377.456 217.627L370.984 212.884C370.832 212.755 370.72 212.586 370.66 212.395C370.6 212.205 370.596 212.002 370.647 211.809Z" fill="#263238" stroke="#263238" stroke-linecap="round" stroke-linejoin="round"/>
<path d="M307.006 365.661L316.282 358.241L327.633 349.166L360.665 322.732L360.918 322.9L360.95 322.922L360.971 322.943L393.582 345.519L405.218 353.572L414.925 360.296L375.58 191.551L373.313 191.614L370.426 191.688L331.449 192.742L307.006 365.661Z" fill="#263238" stroke="#263238" stroke-linecap="round" stroke-linejoin="round"/>
<path d="M360.75 322.763L360.771 322.732L360.961 322.943L360.75 322.763Z" fill="white" stroke="#263238" stroke-linecap="round" stroke-linejoin="round"/>
<path d="M316.281 358.241L327.633 349.166L341.904 192.742L360.971 191.951L336.044 192.742L316.281 358.241Z" fill="white" stroke="#263238" stroke-linecap="round" stroke-linejoin="round"/>
<path d="M370.415 191.646L370.426 191.688L393.582 345.519L405.218 353.572L373.314 191.614L373.303 191.551L370.415 191.646Z" fill="white" stroke="#263238" stroke-linecap="round" stroke-linejoin="round"/>
<path d="M287.033 174.308C287.033 171.989 283.144 169.501 283.376 167.246C283.608 164.99 287.94 163.304 288.414 161.09C288.888 158.877 285.6 155.588 286.306 153.417C287.012 151.246 291.576 150.54 292.514 148.453C293.452 146.366 290.912 142.498 292.061 140.516C293.21 138.535 297.826 138.798 299.165 136.954C300.503 135.109 298.838 130.798 300.366 129.101C301.894 127.405 306.363 128.617 308.06 127.088C309.757 125.56 309.009 120.996 310.864 119.647C312.719 118.298 316.819 120.416 318.801 119.268C320.782 118.119 320.993 113.513 323.09 112.575C325.188 111.637 328.74 114.567 330.932 113.861C333.124 113.154 334.273 108.685 336.529 108.211C338.784 107.737 341.63 111.373 343.907 111.11C346.184 110.846 348.239 106.746 350.547 106.746C352.855 106.746 354.942 110.878 357.198 111.11C359.453 111.342 362.384 107.737 364.576 108.211C366.768 108.685 368.012 113.154 370.173 113.861C372.333 114.567 375.938 111.647 378.014 112.575C380.091 113.502 380.375 118.182 382.304 119.236C384.233 120.29 388.396 118.266 390.241 119.615C392.085 120.965 391.347 125.528 393.044 127.057C394.741 128.585 399.2 127.373 400.739 129.07C402.277 130.767 400.591 135.078 401.94 136.922C403.289 138.767 407.895 138.503 409.044 140.485C410.193 142.466 407.653 146.324 408.591 148.421C409.529 150.519 414.093 151.204 414.799 153.396C415.505 155.588 412.217 158.803 412.691 161.059C413.165 163.314 417.487 164.916 417.719 167.214C417.95 169.512 414.072 171.957 414.072 174.276C414.072 176.595 417.961 179.082 417.719 181.338C417.476 183.593 413.165 185.269 412.691 187.493C412.217 189.717 415.505 192.995 414.799 195.156C414.093 197.316 409.529 198.044 408.591 200.12C407.653 202.196 410.193 206.086 409.044 208.057C407.895 210.028 403.279 209.775 401.94 211.619C400.602 213.464 402.267 217.785 400.739 219.482C399.21 221.179 394.741 219.956 393.044 221.495C391.347 223.034 392.096 227.587 390.241 228.936C388.386 230.285 384.286 228.156 382.304 229.305C380.323 230.454 380.112 235.071 378.014 236.009C375.917 236.947 372.354 234.006 370.173 234.723C367.991 235.44 366.831 239.887 364.576 240.362C362.32 240.836 359.474 237.2 357.198 237.463C354.921 237.727 352.866 241.827 350.547 241.827C348.228 241.827 346.162 237.706 343.907 237.463C341.651 237.221 338.721 240.836 336.529 240.362C334.337 239.887 333.093 235.418 330.932 234.712C328.771 234.006 325.167 236.926 323.09 235.998C321.014 235.071 320.772 230.454 318.801 229.305C316.83 228.156 312.709 230.275 310.864 228.926C309.02 227.577 309.757 223.023 308.06 221.548C306.363 220.072 301.894 221.232 300.366 219.535C298.838 217.838 300.514 213.527 299.165 211.672C297.815 209.817 293.21 210.091 292.061 208.109C290.912 206.128 293.452 202.27 292.514 200.173C291.576 198.075 287.012 197.39 286.306 195.208C285.6 193.027 288.888 189.801 288.414 187.546C287.94 185.29 283.618 183.688 283.386 181.39C283.154 179.093 287.033 176.616 287.033 174.308Z" fill="white" stroke="#263238" stroke-linecap="round" stroke-linejoin="round"/>
<path d="M350.568 228.325C380.401 228.325 404.586 204.141 404.586 174.307C404.586 144.474 380.401 120.29 350.568 120.29C320.735 120.29 296.551 144.474 296.551 174.307C296.551 204.141 320.735 228.325 350.568 228.325Z" fill="#38B6FF" stroke="#263238" stroke-linecap="round" stroke-linejoin="round"/>
<path d="M397.125 185.531C403.321 159.822 387.502 133.958 361.793 127.762C336.084 121.566 310.22 137.385 304.024 163.094C297.828 188.803 313.647 214.667 339.356 220.863C365.065 227.059 390.929 211.24 397.125 185.531Z" fill="#263238"/>
<path d="M466.972 352.17C466.972 352.17 466.055 359.938 467.193 363.132C468.332 366.325 475.625 388.27 476.795 407.684C477.965 427.099 479.072 444.933 478.387 445.85C477.702 446.767 473.591 446.303 473.591 446.303H459.889C459.582 446.07 459.366 445.736 459.281 445.36C459.197 444.984 459.248 444.59 459.425 444.247C460.11 443.109 466.74 438.082 467.657 436.479C468.552 435.062 469.244 433.526 469.712 431.916C469.712 431.231 468.11 414.535 462.629 403.574C457.149 392.612 450.066 365.63 449.381 355.817L466.972 352.17Z" fill="white" stroke="#263238" stroke-linecap="round" stroke-linejoin="round"/>
<path d="M459.425 444.258C460.92 442.69 462.522 441.228 464.221 439.884V442.203H478.587C478.703 443.425 478.636 444.658 478.387 445.86C477.702 446.777 473.591 446.313 473.591 446.313H459.889C459.582 446.081 459.366 445.747 459.282 445.37C459.197 444.994 459.248 444.6 459.425 444.258Z" fill="#38B6FF" stroke="#263238" stroke-linecap="round" stroke-linejoin="round"/>
<path d="M452.342 353.319C452.342 353.319 449.18 376.17 451.436 383.021C453.692 389.872 452.806 402.214 449.602 415.231C446.398 428.248 443.9 436.479 443.9 437.165C443.9 437.85 443.9 444.016 443.215 445.154C442.53 446.292 422.419 446.071 421.081 446.071C419.742 446.071 418.34 444.701 419.489 443.33C420.638 441.96 426.804 440.464 430.904 438.535C434.793 436.701 435.015 436.248 435.015 436.248C435.015 436.248 437.302 409.518 436.385 397.64C435.468 385.761 430.43 361.087 431.347 352.866L452.342 353.319Z" fill="white" stroke="#263238" stroke-linecap="round" stroke-linejoin="round"/>
<path d="M421.049 446.071C419.679 446.071 418.309 444.701 419.458 443.33C420.375 442.224 424.559 441.043 428.29 439.61L429.049 441.275L443.805 440.168C443.731 442.15 443.563 444.5 443.173 445.154C442.53 446.303 422.419 446.071 421.049 446.071Z" fill="#38B6FF" stroke="#263238" stroke-linecap="round" stroke-linejoin="round"/>
<path d="M465.106 275.829C465.106 275.829 472.906 292.788 473.591 303.064C474.276 313.341 469.934 324.534 469.934 324.534L472.674 354.046C472.674 354.046 463.536 359.759 448.232 359.527C432.928 359.295 425.392 356.787 425.392 356.787C425.392 356.787 423.568 320.951 428.364 303.56C433.16 286.169 431.452 276.735 431.452 276.735C431.452 276.735 452.732 277.61 465.106 275.829Z" fill="#263238" stroke="#263238" stroke-linecap="round" stroke-linejoin="round"/>
<path d="M436.058 210.249C436.058 210.249 438.293 217.627 439.146 221.748C440 225.869 437.776 233.764 434.857 239.255C431.937 244.746 428.67 250.596 430.219 255.571C431.768 260.546 432.453 262.443 432.453 262.443C432.453 262.443 431.252 274.627 431.399 276.693C431.547 278.759 440.327 280.814 449.086 279.95C457.844 279.086 464.369 277.378 465.054 275.829C465.739 274.279 465.054 265.7 466.255 261.241C467.457 256.783 467.805 235.945 465.054 231.529C462.303 227.113 455.958 220.03 455.958 220.03L450.814 206.465L436.058 210.249Z" fill="#38B6FF" stroke="#263238" stroke-linecap="round" stroke-linejoin="round"/>
<path d="M458.593 223.002C455.39 222.292 452.052 222.512 448.97 223.635C445.607 224.921 441.286 228.251 438.219 230.855C439.189 227.366 439.652 223.993 439.178 221.748C438.324 217.627 436.09 210.249 436.09 210.249L450.846 206.465L456 220.03C456 220.03 457.138 221.253 458.593 223.002Z" fill="white" stroke="#263238" stroke-linecap="round" stroke-linejoin="round"/>
<path d="M429.281 182.149C429.281 182.149 427.173 187.651 426.488 190.002C425.803 192.352 424.675 194.66 423.273 194.882C421.871 195.103 420.575 196.178 421.439 197.98C422.314 199.449 423.413 200.771 424.696 201.901C424.696 201.901 425.95 210.818 426.878 211.935C427.805 213.053 432.148 212.989 434.772 212.315C437.397 211.64 442.498 210.786 442.498 210.786C442.498 210.786 444.153 192.868 443.12 189.116C442.087 185.364 437.586 179.989 436.258 179.346C434.93 178.703 429.281 182.149 429.281 182.149Z" fill="white" stroke="#263238" stroke-linecap="round" stroke-linejoin="round"/>
<path d="M428.259 193.269C428.164 194.207 428.438 195.008 428.87 195.05C429.302 195.092 429.702 194.355 429.797 193.406C429.892 192.457 429.608 191.667 429.175 191.625C428.743 191.583 428.343 192.32 428.259 193.269Z" fill="#263238"/>
<path d="M432.612 190.908C432.612 190.908 430.124 187.925 428.301 188.958" stroke="#263238" stroke-linecap="round" stroke-linejoin="round"/>
<path d="M431.241 201.986C429.94 202.914 428.392 203.435 426.793 203.482" stroke="#263238" stroke-linecap="round" stroke-linejoin="round"/>
<path d="M435.373 181.506C435.373 181.506 440.042 190.729 440.453 191.804C440.864 192.879 441.191 211.83 440.106 216.257C439.607 218.679 438.312 220.864 436.427 222.465C442.434 223.752 448.573 224.318 454.714 224.151C465.085 223.909 469.797 221.411 469.797 221.411C468.707 213.053 468.046 204.645 467.815 196.22C467.573 183.783 462.029 174.824 455.104 173.159C448.179 171.493 439.779 172.948 439.779 172.948C439.779 172.948 434.941 167.499 428.87 171.599C422.799 175.699 425.023 181.591 427.816 183.393C429.906 184.661 432.116 185.72 434.414 186.555L435.373 181.506Z" fill="#263238" stroke="#263238" stroke-linecap="round" stroke-linejoin="round"/>
<path d="M418.024 244.599C418.024 244.599 444.849 228.104 448.453 227.587C452.058 227.071 457.549 233.079 455.831 239.603C454.113 246.127 418.024 259.197 416.833 259.365C415.642 259.534 386.383 231.055 386.383 231.055C384.101 230.392 381.863 229.59 379.68 228.652C377.962 227.787 371.058 225.606 368.855 224.921C368.672 224.862 368.518 224.735 368.426 224.567C368.334 224.398 368.31 224.2 368.36 224.014C368.403 223.828 368.515 223.666 368.674 223.56C368.832 223.454 369.025 223.413 369.213 223.445L374.873 224.362L368.086 220.093C367.915 219.981 367.779 219.822 367.697 219.635C367.615 219.448 367.589 219.241 367.622 219.039C367.652 218.894 367.712 218.756 367.799 218.636C367.885 218.515 367.996 218.414 368.125 218.34C368.253 218.265 368.396 218.218 368.543 218.203C368.691 218.187 368.84 218.203 368.982 218.249L375.906 220.757L368.233 214.497C368.019 214.335 367.875 214.097 367.83 213.833C367.785 213.569 367.843 213.297 367.991 213.074C368.058 212.95 368.149 212.84 368.259 212.752C368.369 212.664 368.496 212.599 368.631 212.561C368.767 212.522 368.909 212.512 369.049 212.529C369.188 212.547 369.323 212.592 369.445 212.663L377.624 216.984L372.681 211.714C372.574 211.6 372.493 211.463 372.445 211.313C372.397 211.164 372.384 211.005 372.405 210.85C372.426 210.694 372.482 210.545 372.568 210.414C372.654 210.283 372.768 210.172 372.902 210.091C373.08 209.985 373.284 209.934 373.49 209.943C373.696 209.953 373.895 210.022 374.062 210.143L383.632 217.121L382.578 213.854C382.521 213.681 382.5 213.499 382.518 213.318C382.535 213.138 382.59 212.963 382.68 212.805C382.769 212.647 382.891 212.509 383.037 212.401C383.183 212.293 383.35 212.217 383.527 212.178C383.809 212.116 384.104 212.151 384.364 212.277C384.624 212.403 384.834 212.613 384.96 212.873C385.645 214.286 386.952 216.942 387.437 217.806C388.29 219.354 388.871 221.037 389.155 222.781C389.155 223.835 389.334 226.217 389.334 226.217L418.024 244.599Z" fill="white" stroke="#263238" stroke-linecap="round" stroke-linejoin="round"/>
<path d="M402.815 246.77L403.152 246.211L408.538 238.77L418.024 244.557C418.024 244.557 444.848 228.062 448.453 227.545C452.058 227.029 457.549 233.036 455.831 239.561C454.113 246.085 418.024 259.155 416.833 259.323C416.243 259.418 411.9 255.107 402.815 246.77Z" fill="#38B6FF" stroke="#263238" stroke-linecap="round" stroke-linejoin="round"/>
<path d="M411.837 240.773L404.291 249.911L399.959 246.475L407.495 237.115L411.837 240.773Z" fill="#38B6FF" stroke="#263238" stroke-linecap="round" stroke-linejoin="round"/>
<path d="M312.245 176.732V160.078H317.515C318.366 160.041 319.212 160.238 319.96 160.648C320.595 161.025 321.091 161.598 321.372 162.281C321.701 163.105 321.858 163.987 321.836 164.874C321.889 165.843 321.678 166.809 321.225 167.667C320.854 168.318 320.269 168.821 319.57 169.09C318.804 169.385 317.988 169.529 317.167 169.512H315.628V176.732H312.245ZM315.639 167.13H316.83C317.223 167.154 317.615 167.074 317.968 166.898C318.105 166.816 318.224 166.708 318.318 166.579C318.412 166.451 318.479 166.305 318.516 166.15C318.623 165.719 318.672 165.276 318.663 164.832C318.67 164.404 318.631 163.977 318.548 163.557C318.489 163.234 318.308 162.947 318.042 162.756C317.671 162.533 317.24 162.43 316.808 162.461H315.639V167.13Z" fill="#38B6FF"/>
<path d="M323.47 176.732V160.078H327.781C328.757 160.058 329.731 160.186 330.669 160.458C331.425 160.679 332.081 161.156 332.524 161.807C332.997 162.617 333.22 163.548 333.167 164.484C333.176 165.093 333.119 165.701 332.998 166.297C332.893 166.797 332.681 167.268 332.376 167.678C332.051 168.094 331.622 168.418 331.132 168.616L333.441 176.732H329.962L328.055 169.185H326.864V176.732H323.47ZM326.864 167.172H327.844C328.291 167.195 328.737 167.105 329.14 166.908C329.455 166.727 329.694 166.439 329.815 166.097C329.951 165.66 330.015 165.205 330.005 164.748C330.045 164.132 329.898 163.518 329.583 162.988C329.39 162.767 329.146 162.596 328.873 162.491C328.599 162.387 328.303 162.351 328.012 162.387H326.864V167.172Z" fill="#38B6FF"/>
<path d="M339.975 176.953C338.967 177.007 337.964 176.781 337.077 176.3C336.368 175.867 335.829 175.205 335.549 174.423C335.216 173.483 335.059 172.49 335.085 171.493V165.285C335.058 164.292 335.215 163.302 335.549 162.366C335.827 161.589 336.367 160.933 337.077 160.511C337.991 160.09 338.985 159.873 339.991 159.873C340.997 159.873 341.991 160.09 342.905 160.511C343.615 160.935 344.159 161.59 344.444 162.366C344.774 163.299 344.931 164.285 344.908 165.275V171.483C344.928 172.479 344.771 173.471 344.444 174.413C344.16 175.195 343.617 175.857 342.905 176.289C342.008 176.775 340.994 177.005 339.975 176.953ZM339.975 174.508C340.325 174.539 340.672 174.433 340.945 174.213C341.157 173.991 341.3 173.713 341.356 173.412C341.42 173.064 341.451 172.711 341.451 172.358V164.484C341.452 164.131 341.42 163.778 341.356 163.43C341.298 163.133 341.155 162.858 340.945 162.64C340.672 162.419 340.325 162.313 339.975 162.345C339.639 162.318 339.306 162.424 339.048 162.64C338.838 162.858 338.695 163.133 338.637 163.43C338.569 163.777 338.533 164.13 338.531 164.484V172.358C338.531 172.711 338.563 173.064 338.626 173.412C338.674 173.713 338.814 173.993 339.027 174.213C339.293 174.43 339.633 174.536 339.975 174.508Z" fill="#38B6FF"/>
<path d="M347.174 176.732V160.079H351.243C352.368 160.031 353.492 160.218 354.542 160.627C355.298 160.961 355.898 161.572 356.218 162.334C356.574 163.283 356.738 164.293 356.702 165.306V171.367C356.737 172.404 356.572 173.438 356.218 174.413C355.904 175.183 355.314 175.807 354.563 176.163C353.539 176.589 352.434 176.783 351.327 176.732H347.174ZM350.558 174.371H351.285C351.752 174.409 352.219 174.302 352.623 174.065C352.764 173.962 352.881 173.831 352.968 173.681C353.056 173.53 353.11 173.363 353.129 173.19C353.208 172.71 353.244 172.223 353.235 171.736V164.874C353.248 164.407 353.202 163.939 353.098 163.483C353.065 163.326 353.002 163.178 352.911 163.046C352.821 162.913 352.705 162.801 352.571 162.714C352.165 162.516 351.714 162.429 351.264 162.461H350.558V174.371Z" fill="#38B6FF"/>
<path d="M363.638 176.953C362.617 177.012 361.6 176.789 360.697 176.31C359.999 175.884 359.476 175.222 359.221 174.445C358.924 173.482 358.782 172.479 358.8 171.472V160.078H362.152V171.936C362.151 172.342 362.183 172.747 362.246 173.148C362.292 173.5 362.434 173.832 362.657 174.107C362.93 174.346 363.281 174.477 363.643 174.477C364.006 174.477 364.356 174.346 364.628 174.107C364.853 173.833 364.992 173.5 365.029 173.148C365.084 172.746 365.112 172.341 365.113 171.936V160.078H368.465V171.472C368.489 172.479 368.347 173.484 368.043 174.445C367.79 175.219 367.271 175.88 366.578 176.31C365.675 176.787 364.658 177.009 363.638 176.953Z" fill="#38B6FF"/>
<path d="M375.453 176.953C374.43 177.006 373.413 176.765 372.523 176.257C371.811 175.805 371.279 175.119 371.016 174.318C370.714 173.386 370.568 172.41 370.584 171.43V165.443C370.564 164.436 370.71 163.432 371.016 162.471C371.28 161.676 371.813 160.998 372.523 160.553C373.417 160.058 374.432 159.824 375.453 159.878C376.423 159.83 377.389 160.033 378.257 160.468C378.919 160.846 379.43 161.442 379.701 162.155C379.993 162.966 380.135 163.823 380.122 164.684V166.086H376.834V164.558C376.834 164.206 376.813 163.854 376.77 163.504C376.741 163.203 376.624 162.917 376.433 162.682C376.305 162.564 376.153 162.476 375.987 162.421C375.822 162.367 375.647 162.348 375.474 162.366C375.295 162.349 375.115 162.37 374.945 162.426C374.774 162.482 374.617 162.573 374.483 162.692C374.275 162.934 374.14 163.23 374.093 163.546C374.04 163.93 374.015 164.318 374.02 164.706V172.273C374.013 172.683 374.048 173.093 374.125 173.496C374.179 173.803 374.33 174.084 374.557 174.297C374.818 174.499 375.145 174.597 375.474 174.571C375.644 174.588 375.815 174.569 375.977 174.514C376.139 174.459 376.287 174.371 376.412 174.255C376.606 174.009 376.727 173.713 376.76 173.401C376.807 173.027 376.832 172.65 376.834 172.273V170.65H380.122V171.936C380.137 172.811 379.998 173.681 379.711 174.508C379.449 175.241 378.948 175.865 378.288 176.278C377.427 176.769 376.443 177.003 375.453 176.953Z" fill="#38B6FF"/>
<path d="M383.759 176.732V162.608H381.187V160.078H389.682V162.608H387.152V176.732H383.759Z" fill="#38B6FF"/>
<path d="M325.936 204.684C325.562 204.489 325.208 204.256 324.882 203.988C324.452 203.668 324.047 203.316 323.67 202.934C323.277 202.541 322.924 202.111 322.616 201.648H322.437H322.226C321.217 201.7 320.213 201.471 319.328 200.984C318.617 200.554 318.077 199.891 317.799 199.108C317.466 198.168 317.309 197.175 317.336 196.178V189.97C317.308 188.976 317.466 187.987 317.799 187.05C318.075 186.274 318.616 185.621 319.328 185.206C320.219 184.739 321.221 184.524 322.226 184.584C323.244 184.536 324.256 184.761 325.156 185.237C325.868 185.655 326.412 186.307 326.695 187.082C327.025 188.016 327.182 189.001 327.159 189.991V196.178C327.163 196.887 327.089 197.594 326.937 198.286C326.815 198.879 326.575 199.442 326.231 199.941C325.885 200.395 325.433 200.757 324.914 200.995L325.472 201.574C325.655 201.761 325.849 201.937 326.052 202.101C326.221 202.256 326.405 202.394 326.6 202.513L325.936 204.684ZM322.226 199.182C322.577 199.208 322.924 199.099 323.196 198.876C323.41 198.657 323.553 198.377 323.607 198.075C323.671 197.728 323.703 197.375 323.702 197.021V189.148C323.703 188.794 323.671 188.441 323.607 188.094C323.551 187.792 323.408 187.514 323.196 187.293C322.92 187.079 322.575 186.974 322.226 186.998C321.884 186.975 321.546 187.08 321.278 187.293C321.065 187.512 320.925 187.792 320.877 188.094C320.812 188.441 320.781 188.794 320.782 189.148V197.021C320.781 197.375 320.813 197.728 320.877 198.075C320.922 198.378 321.062 198.658 321.278 198.876C321.542 199.097 321.882 199.207 322.226 199.182Z" fill="#38B6FF"/>
<path d="M334.136 201.627C333.115 201.683 332.097 201.457 331.196 200.974C330.5 200.547 329.98 199.885 329.73 199.108C329.426 198.148 329.283 197.143 329.309 196.136V184.753H332.661V196.61C332.662 197.016 332.69 197.42 332.745 197.822C332.79 198.177 332.932 198.513 333.156 198.792C333.283 198.921 333.436 199.021 333.605 199.085C333.775 199.148 333.956 199.174 334.136 199.161C334.32 199.176 334.505 199.151 334.678 199.087C334.851 199.023 335.008 198.923 335.138 198.792C335.358 198.512 335.497 198.176 335.538 197.822C335.589 197.42 335.614 197.015 335.612 196.61V184.753H338.964V196.178C338.989 197.185 338.847 198.19 338.542 199.15C338.292 199.927 337.772 200.589 337.077 201.016C336.171 201.485 335.154 201.696 334.136 201.627Z" fill="#38B6FF"/>
<path d="M340.386 201.448L343.612 184.805H347.374L350.536 201.448H347.374L346.774 197.791H344.149L343.506 201.448H340.386ZM344.518 195.714H346.468L345.414 188.99L344.518 195.714Z" fill="#38B6FF"/>
<path d="M352.149 201.448V184.753H355.533V199.098H359.443V201.448H352.149Z" fill="#38B6FF"/>
<path d="M360.96 201.448V184.753H364.386V201.448H360.96Z" fill="#38B6FF"/>
<path d="M368.444 201.448V187.282H365.872V184.753H374.388V187.282H371.859V201.448H368.444Z" fill="#38B6FF"/>
<path d="M378.088 201.448V194.85L374.842 184.805H378.004L379.796 190.655L381.461 184.805H384.539L381.377 194.85V201.448H378.088Z" fill="#38B6FF"/>
<path d="M326.094 144.068L327.233 147.557H330.89L327.928 149.707L329.056 153.185L326.094 151.035L323.133 153.185L324.26 149.707L321.299 147.557H324.967L326.094 144.068Z" fill="#38B6FF"/>
<path d="M338.921 144.068L340.049 147.557H343.717L340.745 149.707L341.883 153.185L338.921 151.035L335.96 153.185L337.087 149.707L334.126 147.557H337.783L338.921 144.068Z" fill="#38B6FF"/>
<path d="M351.738 144.068L352.876 147.557H356.534L353.572 149.707L354.7 153.185L351.738 151.035L348.776 153.185L349.915 149.707L346.942 147.557H350.61L351.738 144.068Z" fill="#38B6FF"/>
<path d="M364.565 144.068L365.693 147.557H369.361L366.399 149.707L367.527 153.185L364.565 151.035L361.603 153.185L362.731 149.707L359.77 147.557H363.437L364.565 144.068Z" fill="#38B6FF"/>
<path d="M377.392 144.068L378.52 147.557H382.178L379.216 149.707L380.354 153.185L377.392 151.035L374.42 153.185L375.558 149.707L372.597 147.557H376.254L377.392 144.068Z" fill="#38B6FF"/>
</svg>
