<svg width="23" height="28" viewBox="0 0 23 28" fill="none" xmlns="http://www.w3.org/2000/svg">
<path d="M14 2H4.4C3.76348 2 3.15303 2.25286 2.70294 2.70294C2.25286 3.15303 2 3.76348 2 4.4V23.6C2 24.2365 2.25286 24.847 2.70294 25.2971C3.15303 25.7471 3.76348 26 4.4 26H18.8C19.4365 26 20.047 25.7471 20.4971 25.2971C20.9471 24.847 21.2 24.2365 21.2 23.6V9.2L14 2Z" stroke="#38B6FF" stroke-width="2.5" stroke-linecap="round" stroke-linejoin="round"/>
<path d="M14 2V9.2H21.2" stroke="#38B6FF" stroke-width="2.5" stroke-linecap="round" stroke-linejoin="round"/>
<path d="M16.4 15.2H6.80005" stroke="#38B6FF" stroke-width="2.5" stroke-linecap="round" stroke-linejoin="round"/>
<path d="M16.4 20H6.80005" stroke="#38B6FF" stroke-width="2.5" stroke-linecap="round" stroke-linejoin="round"/>
<path d="M9.20005 10.4H8.00005H6.80005" stroke="#38B6FF" stroke-width="2.5" stroke-linecap="round" stroke-linejoin="round"/>
</svg>
