<svg width="28" height="28" viewBox="0 0 28 28" fill="none" xmlns="http://www.w3.org/2000/svg">
<path d="M20 10.8431L8 4.63928" stroke="#89C400" stroke-width="2.5" stroke-linecap="round" stroke-linejoin="round"/>
<path d="M26 18.7322V9.16956C25.9995 8.75033 25.8761 8.33857 25.6421 7.97561C25.408 7.61265 25.0717 7.31125 24.6667 7.10163L15.3333 2.32029C14.9279 2.11046 14.4681 2 14 2C13.5319 2 13.0721 2.11046 12.6667 2.32029L3.33333 7.10163C2.92835 7.31125 2.59197 7.61265 2.35795 7.97561C2.12392 8.33857 2.00048 8.75033 2 9.16956V18.7322C2.00048 19.1515 2.12392 19.5632 2.35795 19.9262C2.59197 20.2891 2.92835 20.5906 3.33333 20.8002L12.6667 25.5815C13.0721 25.7913 13.5319 25.9018 14 25.9018C14.4681 25.9018 14.9279 25.7913 15.3333 25.5815L24.6667 20.8002C25.0717 20.5906 25.408 20.2891 25.6421 19.9262C25.8761 19.5632 25.9995 19.1515 26 18.7322Z" stroke="#89C400" stroke-width="2.5" stroke-linecap="round" stroke-linejoin="round"/>
<path d="M2.36011 7.92651L14.0001 13.963L25.6401 7.92651" stroke="#89C400" stroke-width="2.5" stroke-linecap="round" stroke-linejoin="round"/>
<path d="M14 26V13.951" stroke="#89C400" stroke-width="2.5" stroke-linecap="round" stroke-linejoin="round"/>
</svg>
