<svg width="22" height="22" viewBox="0 0 22 22" fill="none" xmlns="http://www.w3.org/2000/svg">
<path d="M9.73917 3.10864H2.95903C2.44526 3.10864 1.95253 3.31808 1.58924 3.69089C1.22595 4.0637 1.02185 4.56933 1.02185 5.09656V19.012C1.02185 19.5392 1.22595 20.0448 1.58924 20.4177C1.95253 20.7905 2.44526 20.9999 2.95903 20.9999H16.5193C17.0331 20.9999 17.5258 20.7905 17.8891 20.4177C18.2524 20.0448 18.4565 19.5392 18.4565 19.012V12.0543" stroke="#5F5C6B" stroke-width="2" stroke-linecap="round" stroke-linejoin="round"/>
<path d="M17.0033 1.61757C17.3887 1.22215 17.9113 1 18.4562 1C19.0012 1 19.5238 1.22215 19.9091 1.61757C20.2944 2.01299 20.5109 2.5493 20.5109 3.10851C20.5109 3.66772 20.2944 4.20402 19.9091 4.59944L10.7075 14.0421L6.83313 15.036L7.80172 11.0602L17.0033 1.61757Z" stroke="#5F5C6B" stroke-width="2" stroke-linecap="round" stroke-linejoin="round"/>
</svg>
