<svg width="24" height="28" viewBox="0 0 24 28" fill="none" xmlns="http://www.w3.org/2000/svg">
<path d="M4.79995 2L1.19995 6.8V23.6C1.19995 24.2365 1.45281 24.847 1.90289 25.2971C2.35298 25.7471 2.96343 26 3.59995 26H20.4C21.0365 26 21.6469 25.7471 22.097 25.2971C22.5471 24.847 22.7999 24.2365 22.7999 23.6V6.8L19.2 2H4.79995Z" stroke="#38B6FF" stroke-width="2.4" stroke-linecap="round" stroke-linejoin="round"/>
<path d="M1.19995 6.80008H22.7999" stroke="#38B6FF" stroke-width="2.4" stroke-linecap="round" stroke-linejoin="round"/>
<path d="M16.8 11.6002C16.8 12.8732 16.2942 14.0941 15.3941 14.9943C14.4939 15.8944 13.273 16.4002 12 16.4002C10.7269 16.4002 9.50601 15.8944 8.60584 14.9943C7.70566 14.0941 7.19995 12.8732 7.19995 11.6002" stroke="#38B6FF" stroke-width="2.4" stroke-linecap="round" stroke-linejoin="round"/>
</svg>
